<?xml version="1.0" encoding="utf-8"?>
<svg version="1.1" id="Teddy-left" xmlns="http://www.w3.org/2000/svg" xmlns:xlink="http://www.w3.org/1999/xlink" x="0px" y="0px"
	 viewBox="0 0 119 122.5" style="enable-background:new 0 0 119 122.5;" xml:space="preserve">
<style type="text/css">
	.changecolor{fill:#FFD003;}
	.st1{fill:#FFFFFF;}
</style>
<polygon id="Body" class="changecolor" points="14,0 14,7 7,7 7,14 0,14 0,21 0,28 7,28 7,35 24.5,35 24.5,42 24.5,49 24.5,56 31.5,56 
	31.5,63 42,63 42,70 7,70 7,73.5 3.5,73.5 3.5,80.5 7,80.5 7,84 42,84 42,119 45.5,119 45.5,122.5 54.2,122.5 54.2,119 57.8,119 
	57.8,112 64.8,112 64.8,119 68.2,119 68.2,122.5 77,122.5 77,119 80.5,119 80.5,63 84,63 84,56 91,56 91,49 91,42 91,35 112,35 
	112,28 119,28 119,14 112,14 112,7 105,7 105,0 "/>
<path id="Contur" d="M49,84h-7v21h7v-7h7V84H49z M70,14h10.5V8.8H70V14z M38.5,14H49V8.8H38.5V14z M38.5,14h-5.2v10.5h5.2V14z
	 M70,50.8H49V56h21V50.8z M75.2,29.8v15.7h5.2v-21H70v5.2L75.2,29.8L75.2,29.8z M70,50.8h5.2v-5.2H70V50.8z M49,45.5h-5.2v5.2H49
	V45.5z M57.8,28h-3.5v5.2h3.5v5.2H63v-5.2h3.5V28H57.8z M49,24.5H38.5v21h5.2V29.8H49V24.5z M70,19.3V14h-5.2v5.2H54.2V14H49v10.5
	h21V19.3z M85.8,14h-5.2v10.5h5.2V14z"/>
<path id="White" class="st1" d="M19.2,24.5h5.2v-5.2h-5.2V14H14v5.2H8.8v5.2H14v5.2h5.2V24.5z M38.5,24.5H49V14H38.5V24.5z
	 M57.8,47.3H63V42h-5.2V47.3z M70,24.5h10.5V14H70V24.5z M110.2,24.5v-5.2H105V14h-5.2v5.2h-5.2v5.2h5.2v5.2h5.2v-5.2L110.2,24.5
	L110.2,24.5z"/>
<rect id="Eye_1_" x="42" y="21" width="3.5" height="3.5"/>
<rect id="Eye" x="73.5" y="21" width="3.5" height="3.5"/>
</svg>
