<svg version="1.1" xmlns="http://www.w3.org/2000/svg" xmlns:xlink="http://www.w3.org/1999/xlink" x="0px" y="0px"
     viewBox="0 0 140 168" style="enable-background:new 0 0 140 168;" xml:space="preserve">
     <style type="text/css">
	 .changecolor{fill:#00B48D;}
	 .white{fill:#FFFFFF;}
     </style>
     <g>
	 <rect x="49" y="119" class="changecolor" width="7" height="7"/>
	 <rect x="42" y="126" class="changecolor" width="7" height="7"/>
	 <rect x="56" y="126" class="changecolor" width="7" height="7"/>
	 <rect x="49" y="133" class="changecolor" width="7" height="7"/>
	 <rect x="42" y="140" class="changecolor" width="7" height="7"/>
	 <rect x="49" y="147" class="changecolor" width="7" height="7"/>
	 <rect x="35" y="147" class="changecolor" width="7" height="7"/>
	 <rect x="56" y="140" class="changecolor" width="7" height="7"/>
	 <polygon class="changecolor" points="70,147 63,147 63,154 70,154 77,154 77,147 	"/>
	 <rect x="77" y="140" class="changecolor" width="7" height="7"/>
	 <rect x="84" y="147" class="changecolor" width="7" height="7"/>
	 <rect x="91" y="140" class="changecolor" width="7" height="7"/>
	 <rect x="98" y="147" class="changecolor" width="7" height="7"/>
	 <rect x="91" y="154" class="changecolor" width="7" height="7"/>
	 <rect x="77" y="154" class="changecolor" width="7" height="7"/>
	 <rect x="56" y="154" class="changecolor" width="7" height="7"/>
	 <rect x="42" y="154" class="changecolor" width="7" height="7"/>
	 <rect x="35" y="161" class="changecolor" width="7" height="7"/>
	 <rect x="49" y="161" class="changecolor" width="7" height="7"/>
	 <polygon class="changecolor" points="63,161 63,168 70,168 77,168 77,161 70,161 	"/>
	 <rect x="84" y="161" class="changecolor" width="7" height="7"/>
	 <rect x="98" y="161" class="changecolor" width="7" height="7"/>
	 <rect x="105" y="154" class="changecolor" width="7" height="7"/>
	 <rect x="28" y="154" class="changecolor" width="7" height="7"/>
	 <rect x="21" y="147" class="changecolor" width="7" height="7"/>
	 <rect x="14" y="140" class="changecolor" width="7" height="7"/>
	 <rect x="7" y="133" class="changecolor" width="7" height="7"/>
	 <rect x="112" y="147" class="changecolor" width="7" height="7"/>
	 <rect x="119" y="140" class="changecolor" width="7" height="7"/>
	 <rect x="126" y="133" class="changecolor" width="7" height="7"/>
	 <rect x="77" y="126" class="changecolor" width="7" height="7"/>
	 <rect x="91" y="126" class="changecolor" width="7" height="7"/>
	 <rect x="84" y="133" class="changecolor" width="7" height="7"/>
	 <rect x="84" y="119" class="changecolor" width="7" height="7"/>
	 <polygon class="changecolor" points="133,42 133,35 126,35 126,28 119,28 119,21 112,21 112,14 105,14 105,7 98,7 98,0 91,0 84,0 84,0
		                              84,0 77,0 77,7 84,7 84,14 91,14 91,21 98,21 98,28 105,28 105,35 98,35 98,28 91,28 91,21 84,21 84,14 77,14 77,7 70,7 63,7
		                              63,14 56,14 56,21 49,21 49,28 42,28 42,35 35,35 35,28 42,28 42,21 49,21 49,14 56,14 56,7 63,7 63,0 56,0 49,0 49,0 42,0 42,7
		                              35,7 35,14 28,14 28,21 21,21 21,28 14,28 14,35 7,35 7,42 0,42 0,49 0,56 0,56 0,63 0,70 0,77 7,77 7,84 14,84 21,84 21,91 21,98
		                              28,98 28,105 35,105 42,105 42,112 42,119 49,119 49,112 56,112 56,119 63,119 63,126 70,126 77,126 77,119 84,119 84,112 91,112
		                              91,119 98,119 98,112 98,105 105,105 112,105 112,98 119,98 119,91 119,84 126,84 133,84 133,77 140,77 140,70 140,63 140,56
		                              140,56 140,49 140,42 	"/>
	                                      <polygon class="changecolor" points="70,140 77,140 77,133 70,133 63,133 63,140 	"/>
     </g>
     <g>
	 <rect x="80.5" y="52.5" width="3.5" height="3.5"/>
	 <rect x="31.5" y="52.5" width="3.5" height="3.5"/>
	 <rect x="84" y="49" width="21" height="3.5"/>
	 <rect x="35" y="49" width="21" height="3.5"/>
	 <rect x="105" y="52.5" width="3.5" height="3.5"/>
	 <rect x="56" y="52.5" width="3.5" height="3.5"/>
	 <polygon points="105,63 98,63 91,63 84,63 84,68.3 80.5,68.3 80.5,71.8 84,71.8 84,77 91,77 98,77 105,77 105,71.8 108.5,71.8
		          108.5,68.3 105,68.3 	"/>
	                  <polygon points="56,63 49,63 42,63 35,63 35,68.3 31.5,68.3 31.5,71.8 35,71.8 35,77 42,77 49,77 56,77 56,71.8 59.5,71.8
		                           59.5,68.3 56,68.3 	"/>
     </g>
     <g>
	 <polygon class="white" points="70,0 63,0 63,6.9 56,6.9 56,13.9 63,13.9 63,7 70,7 77,7 77,0 	"/>
	 <polygon class="white" points="77,98 77,91 70,91 63,91 63,98 70,98 	"/>
	 <rect x="77" y="7" class="white" width="7" height="7"/>
	 <rect x="49" y="13.9" class="white" width="7" height="7"/>
	 <rect x="42" y="20.9" class="white" width="7" height="7"/>
	 <rect x="35" y="27.9" class="white" width="7" height="7"/>
	 <rect x="84" y="14" class="white" width="7" height="7"/>
	 <rect x="91" y="21" class="white" width="7" height="7"/>
	 <rect x="98" y="28" class="white" width="7" height="7"/>
	 <rect x="84" y="112" class="white" width="7" height="7"/>
	 <rect x="84" y="126" class="white" width="7" height="7"/>
	 <polygon class="white" points="70,133 77,133 77,126 70,126 63,126 63,133 	"/>
	 <polygon class="white" points="63,154 63,161 70,161 77,161 77,154 70,154 	"/>
	 <polygon class="white" points="70,140 63,140 63,147 70,147 77,147 77,140 	"/>
	 <rect x="84" y="140" class="white" width="7" height="7"/>
	 <rect x="84" y="154" class="white" width="7" height="7"/>
	 <rect x="49" y="112" class="white" width="7" height="7"/>
	 <rect x="49" y="126" class="white" width="7" height="7"/>
	 <rect x="49" y="140" class="white" width="7" height="7"/>
	 <rect x="49" y="154" class="white" width="7" height="7"/>
	 <rect x="77" y="119" class="white" width="7" height="7"/>
	 <rect x="77" y="133" class="white" width="7" height="7"/>
	 <rect x="77" y="147" class="white" width="7" height="7"/>
	 <rect x="77" y="161" class="white" width="7" height="7"/>
	 <rect x="91" y="161" class="white" width="7" height="7"/>
	 <rect x="91" y="147" class="white" width="7" height="7"/>
	 <rect x="91" y="133" class="white" width="7" height="7"/>
	 <rect x="91" y="119" class="white" width="7" height="7"/>
	 <rect x="56" y="119" class="white" width="7" height="7"/>
	 <rect x="56" y="133" class="white" width="7" height="7"/>
	 <rect x="56" y="147" class="white" width="7" height="7"/>
	 <rect x="56" y="161" class="white" width="7" height="7"/>
	 <rect x="42" y="161" class="white" width="7" height="7"/>
	 <rect x="42" y="147" class="white" width="7" height="7"/>
	 <rect x="42" y="133" class="white" width="7" height="7"/>
	 <rect x="42" y="119" class="white" width="7" height="7"/>
	 <rect x="35" y="154" class="white" width="7" height="7"/>
	 <rect x="98" y="154" class="white" width="7" height="7"/>
     </g>
 </svg>
