<svg xmlns="http://www.w3.org/2000/svg" xmlns:xlink="http://www.w3.org/1999/xlink" x="0px" y="0px"
     viewBox="0 0 218.3 277.8" style="enable-background:new 0 0 218.3 277.8;" xml:space="preserve">
     <style type="text/css">
	 .changecolor{fill:#F3971B;}
	 .white{fill:#FFFFFF;}
     </style>
     <g>
	 <path class="changecolor" d="M178.6,138.9h19.8v-19.8h19.8V99.2h-19.8h-19.8V79.4V59.5h-19.8V39.7H139V19.8h-19.8V0h-20v19.8H79.4v19.8
		                      H59.5v19.8H39.7v19.8V99H19.8H0v19.8h19.8v19.8h19.8v19.8v19.8H19.8v-9.9H0v19.8v19.8h19.8V198h19.8h19.8v19.8v19.8H39.7V258v19.8
		                      h19.8V258h19.8v-19.8h19.8v-19.8h19.8v19.8h19.8V258h19.8v19.8h19.8V258v-19.8h-19.8v-19.8v-19.8h19.8h19.8v9.9h19.8v-19.8v-19.8
		                      h-19.8v9.9h-19.8V159v-20.1H178.6z M99.2,39.7H119v19.8H99.2V39.7z M99.2,79.4H119v19.8H99.2V79.4z M59.5,79.4h19.8v19.8H59.5V79.4
		                      z M158.7,99.2h-19.8V79.4h19.8V99.2z"/>
     </g>
     <g>
	 <polygon class="white" points="138.9,119.1 138.9,138.9 79.4,138.9 79.4,119.1 59.5,119.1 59.5,158.7 79.4,158.7 138.9,158.7 158.7,158.7 158.7,119.1 	"/>
     </g>
     <g>
	 <g>
	     <rect x="99.2" y="39.7" width="19.8" height="19.8"/>
	     <rect x="59.5" y="79.4" width="19.8" height="19.8"/>
	     <rect x="99.2" y="79.4" width="19.8" height="19.8"/>
	     <rect x="138.9" y="79.4" width="19.8" height="19.8"/>
	 </g>
     </g>
 </svg>
