<svg xmlns="http://www.w3.org/2000/svg" xmlns:xlink="http://www.w3.org/1999/xlink" x="0px" y="0px"
     viewBox="0 0 317.5 377" style="enable-background:new 0 0 317.5 377;" xml:space="preserve">
     <style type="text/css">
	 .changecolor{fill:#4C2582;}
	 .white{fill:#FFFFFF;}
     </style>
     <g>
	 <path class="changecolor" d="M297.6,357.2v-19.8h-19.8v-19.8v-19.8V278v-20v-19.8v-19.8v-19.8v-19.8V159v-19.8v-19.8V99.2H258V79.4h-19.8
		                      V59.5h-19.8V39.7h-19.8V19.8h-19.8V0H159h-19.8v19.8h-19.8v19.8H99.2v19.8H79.4v19.8H59.5V99H39.7v19.8v19.8v19.8v19.8V198v19.8
		                      v19.8V258v19.8v19.8v19.8v19.8H19.8V357H0v20h19.8h19.8h19.8h19.8H99v-19.8H79.4v-19.8H59.5v-19.8v-19.8V278v-20v-19.8v-19.8v-19.8
		                      h19.8v19.8h19.8h19.8v19.8h19.8h19.8h19.8h19.8v-19.8h19.8h19.8v-19.8H258v19.8v19.8V258v19.8v19.8v19.8v19.8h-19.8V357h-19.8v20
		                      h19.8H258h19.8h19.8h19.8v-19.8H297.6z"/>
     </g>
     <polygon class="white" points="178.6,79.4 178.6,59.5 158.7,59.5 138.9,59.5 138.9,79.4 119.1,79.4 119.1,99.2 138.9,99.2 138.9,119.1 158.7,119.1 178.6,119.1 178.6,99.2 198.4,99.2 198.4,79.4 "/>
     <g>
	 <g>
	     <rect x="148.8" y="79.4" width="19.8" height="19.8"/>
	     <rect x="119.1" y="158.7" width="19.8" height="19.8"/>
	     <rect x="178.6" y="158.7" width="19.8" height="19.8"/>
	 </g>
	 <rect x="138.9" y="178.6" width="41.4" height="19.8"/>
	 <rect x="99.2" y="138.9" width="19.8" height="19.8"/>
	 <rect x="198.4" y="138.9" width="19.8" height="19.8"/>
     </g>
 </svg>
