<svg xmlns="http://www.w3.org/2000/svg" xmlns:xlink="http://www.w3.org/1999/xlink" x="0px" y="0px"
	 viewBox="0 0 242.9 250" style="enable-background:new 0 0 242.9 250;" xml:space="preserve">
<style type="text/css">
	.changecolor{fill:#FFD003;}
	.white{fill:#FFFFFF;}
</style>
<g>
	<polygon class="changecolor" points="28.6,0 28.6,14.3 14.3,14.3 14.3,28.6 0,28.6 0,42.9 0,57.1 14.3,57.1 14.3,71.4 50,71.4
		50,85.7 50,100 50,114.3 64.3,114.3 64.3,128.6 85.7,128.6 85.7,142.9 14.3,142.9 14.3,150 7.1,150 7.1,164.3 14.3,164.3
		14.3,171.4 85.7,171.4 85.7,242.9 92.9,242.9 92.9,250 110.6,250 110.6,242.9 118,242.9 118,228.6 132.2,228.6 132.2,242.9
		139.2,242.9 139.2,250 157.1,250 157.1,242.9 164.3,242.9 164.3,128.6 171.4,128.6 171.4,114.3 185.7,114.3 185.7,100 185.7,85.7
		185.7,71.4 228.6,71.4 228.6,57.1 242.9,57.1 242.9,28.6 228.6,28.6 228.6,14.3 214.3,14.3 214.3,0 	"/>
	<path d="M100,171.4H85.7v42.9H100V200h14.3v-28.6H100z M142.9,28.6h21.4V18h-21.4V28.6z M78.6,28.6H100V18H78.6V28.6z
		 M78.6,28.6H68V50h10.6V28.6z M142.9,103.7H100v10.6h42.9V103.7z M153.5,60.8v32h10.6V50h-21.2v10.6L153.5,60.8L153.5,60.8z
		 M142.9,103.7h10.6V93.1h-10.6V103.7z M100,92.9H89.4v10.6H100V92.9z M118,57.1h-7.1v10.6h7.1v10.6h10.6V67.8h7.1V57.1H118z
		 M100,50H78.6v42.9h10.6v-32H100V50z M142.9,39.4V28.6h-10.6v10.6h-21.6V28.6H100V50h42.9V39.4z M175.1,28.6h-10.6V50h10.6V28.6z"
		/>
	<path class="white" d="M39.2,50h10.6V39.4H39.2V28.6H28.6v10.6H18v10.6h10.6v10.6h10.6V50z M78.6,50H100V28.6H78.6V50z
		 M118,96.5h10.6V85.7H118V96.5z M142.9,50h21.4V28.6h-21.4V50z M224.9,50V39.4h-10.6V28.6h-10.6v10.6h-10.6v10.6h10.6v10.6h10.6
		V49.8L224.9,50L224.9,50z"/>
	<rect x="85.7" y="42.9" width="7.1" height="7.1"/>
	<rect x="150" y="42.9" width="7.1" height="7.1"/>
</g>
</svg>
