<?xml version="1.0" encoding="utf-8"?>
<!-- Generator: Adobe Illustrator 24.0.3, SVG Export Plug-In . SVG Version: 6.00 Build 0)  -->
<svg version="1.1" id="Bold" xmlns="http://www.w3.org/2000/svg" xmlns:xlink="http://www.w3.org/1999/xlink" x="0px" y="0px"
	 width="512px" height="512px" viewBox="0 0 512 512" style="enable-background:new 0 0 512 512;" xml:space="preserve">
<style type="text/css">
	.st0{fill:#FFFFFF;}
</style>
<path class="st0" d="M256,512c141.4,0,256-114.6,256-256S397.4,0,256,0S0,114.6,0,256S114.6,512,256,512z M117.1,250.5L364,155.3
	c11.5-4.1,21.5,2.8,17.7,20.1l0,0l-42,198c-3.1,14-11.5,17.5-23.1,10.8l-64-47.2l-30.9,29.7c-3.4,3.4-6.3,6.3-12.9,6.3l4.5-65.1
	L332,200.8c5.2-4.5-1.2-7.1-8-2.6l-146.6,92.3l-63.2-19.7C100.5,266.4,100.2,257.1,117.1,250.5L117.1,250.5z"/>
</svg>
