<svg version="1.1" xmlns="http://www.w3.org/2000/svg" xmlns:xlink="http://www.w3.org/1999/xlink" x="0px" y="0px"
	 viewBox="0 0 336 122.5" style="enable-background:new 0 0 336 122.5;" xml:space="preserve">
<style type="text/css">
	.illu-news-0{fill:#00B48D;}
	.illu-news-1{fill:#FFFFFF;}
	.illu-news-2{fill:#E95197;}
	.illu-news-3{fill:#4C2582;}
</style>
<title>Teddys halten News</title>
<polygon class="illu-news-0" points="14,0 14,7 7,7 7,14 0,14 0,21 0,28 7,28 7,35 28,35 28,42 28,49 28,56 35,56 35,63 38.5,63 38.5,119
	42,119 42,122.5 50.8,122.5 50.8,119 54.2,119 54.2,112 61.2,112 61.2,119 64.8,119 64.8,122.5 73.5,122.5 73.5,119 77,119 77,84
	112,84 112,80.5 115.5,80.5 115.5,73.5 112,73.5 112,70 77,70 77,63 87.5,63 87.5,56 94.5,56 94.5,49 94.5,42 94.5,35 112,35
	112,28 119,28 119,14 112,14 112,7 105,7 105,0 "/>
<path d="M70,84h7v21h-7v-7h-7V84H70z M49,14H38.5V8.8H49V14z M80.5,14H70V8.8h10.5V14z M80.5,14h5.2v10.5h-5.2V14z M49,50.8h21V56
	H49V50.8z M43.8,29.8v15.7h-5.2v-21H49v5.2L43.8,29.8L43.8,29.8z M49,50.8h-5.2v-5.2H49V50.8z M70,45.5h5.2v5.2H70V45.5z M61.2,28
	h3.5v5.2h-3.5v5.2H56v-5.2h-3.5V28H61.2z M70,24.5h10.5v21h-5.2V29.8H70V24.5z M49,19.3V14h5.2v5.2h10.5V14H70v10.5H49V19.3z
	 M33.2,14h5.2v10.5h-5.2V14z"/>
<path class="illu-news-1" d="M99.8,24.5h-5.2v-5.2h5.2V14h5.2v5.2h5.2v5.2H105v5.2h-5.2V24.5z M80.5,24.5H70V14h10.5V24.5z M61.2,47.3H56V42
	h5.2V47.3z M49,24.5H38.5V14H49V24.5z M8.8,24.5v-5.2H14V14h5.2v5.2h5.2v5.2h-5.2v5.2H14v-5.2L8.8,24.5L8.8,24.5z"/>
<rect x="42" y="21" width="3.5" height="3.5"/>
<rect x="73.5" y="21" width="3.5" height="3.5"/>
<polygon class="illu-news-2" points="231,0 231,7 224,7 224,14 217,14 217,21 217,28 224,28 224,35 241.5,35 241.5,42 241.5,49 241.5,56
	248.5,56 248.5,63 259,63 259,70 224,70 224,73.5 220.5,73.5 220.5,80.5 224,80.5 224,84 259,84 259,119 262.5,119 262.5,122.5
	271.2,122.5 271.2,119 274.8,119 274.8,112 281.8,112 281.8,119 285.2,119 285.2,122.5 294,122.5 294,119 297.5,119 297.5,63
	301,63 301,56 308,56 308,49 308,42 308,35 329,35 329,28 336,28 336,14 329,14 329,7 322,7 322,0 "/>
<path d="M266,84h-7v21h7v-7h7V84H266z M287,14h10.5V8.8H287V14z M255.5,14H266V8.8h-10.5V14z M255.5,14h-5.2v10.5h5.2V14z M287,50.8
	h-21V56h21V50.8z M292.2,29.8v15.7h5.2v-21H287v5.2L292.2,29.8L292.2,29.8z M287,50.8h5.2v-5.2H287V50.8z M266,45.5h-5.2v5.2h5.2
	V45.5z M274.8,28h-3.5v5.2h3.5v5.2h5.2v-5.2h3.5V28H274.8z M266,24.5h-10.5v21h5.2V29.8h5.3V24.5z M287,19.3V14h-5.2v5.2h-10.6V14
	H266v10.5h21V19.3z M302.8,14h-5.2v10.5h5.2V14z"/>
<path class="illu-news-1" d="M236.2,24.5h5.2v-5.2h-5.2V14H231v5.2h-5.2v5.2h5.2v5.2h5.2V24.5z M255.5,24.5H266V14h-10.5V24.5z M274.8,47.3
	h5.2V42h-5.2V47.3z M287,24.5h10.5V14H287V24.5z M327.2,24.5v-5.2H322V14h-5.2v5.2h-5.2v5.2h5.2v5.2h5.2v-5.2L327.2,24.5L327.2,24.5
	z"/>
<rect x="259" y="21" width="3.5" height="3.5"/>
<rect x="290.5" y="21" width="3.5" height="3.5"/>
<rect x="115.5" y="56" class="illu-news-3" width="105" height="42"/>
<rect x="112" y="56" width="3.5" height="17.5"/>
<rect x="112" y="80.5" width="3.5" height="17.5"/>
<g class="illu-news-1">
	<path d="M126,64.5h2.7v2.7H126V64.5z M126,68.1h2.7v2.7H126V68.1z M126,71.7h2.7v2.7H126V71.7z M126,75.3h2.7V78H126V75.3z
		 M126,78.9h2.7v2.7H126V78.9z M126,82.5h2.7v2.7H126V82.5z M126,86.1h2.7v2.7H126V86.1z M129.6,71.7h2.7v2.7h-2.7V71.7z
		 M133.2,75.3h2.7V78h-2.7V75.3z M136.8,78.9h2.7v2.7h-2.7V78.9z M140.4,64.5h2.7v2.7h-2.7V64.5z M140.4,68.1h2.7v2.7h-2.7V68.1z
		 M140.4,71.7h2.7v2.7h-2.7V71.7z M140.4,75.3h2.7V78h-2.7V75.3z M140.4,78.9h2.7v2.7h-2.7V78.9z M140.4,82.5h2.7v2.7h-2.7V82.5z
		 M140.4,86.1h2.7v2.7h-2.7V86.1z"/>
	<path d="M147.6,66.3h2.7V69h-2.7V66.3z M147.6,69.9h2.7v2.7h-2.7V69.9z M147.6,73.5h2.7v2.7h-2.7V73.5z M147.6,77.1h2.7v2.7h-2.7
		V77.1z M147.6,80.7h2.7v2.7h-2.7V80.7z M147.6,84.3h2.7V87h-2.7V84.3z M151.2,64.5h2.7v2.7h-2.7V64.5z M151.2,75.3h2.7V78h-2.7
		V75.3z M151.2,86.1h2.7v2.7h-2.7V86.1z M154.8,64.5h2.7v2.7h-2.7V64.5z M154.8,75.3h2.7V78h-2.7V75.3z M154.8,86.1h2.7v2.7h-2.7
		V86.1z M158.4,64.5h2.7v2.7h-2.7V64.5z M158.4,75.3h2.7V78h-2.7V75.3z M158.4,86.1h2.7v2.7h-2.7V86.1z M162,64.5h2.7v2.7H162V64.5z
		 M162,86.1h2.7v2.7H162V86.1z"/>
	<path d="M169.2,64.5h2.7v2.7h-2.7V64.5z M169.2,68.1h2.7v2.7h-2.7V68.1z M169.2,71.7h2.7v2.7h-2.7V71.7z M169.2,75.3h2.7V78h-2.7
		V75.3z M169.2,78.9h2.7v2.7h-2.7V78.9z M169.2,82.5h2.7v2.7h-2.7V82.5z M172.8,86.1h2.7v2.7h-2.7V86.1z M176.4,74.4h2.7v2.7h-2.7
		V74.4z M176.4,78h2.7v2.7h-2.7V78z M176.4,81.6h2.7v2.7h-2.7V81.6z M176.4,85.2h2.7v2.7h-2.7V85.2z M180,86.1h2.7v2.7H180V86.1z
		 M183.6,64.5h2.7v2.7h-2.7V64.5z M183.6,68.1h2.7v2.7h-2.7V68.1z M183.6,71.7h2.7v2.7h-2.7V71.7z M183.6,75.3h2.7V78h-2.7V75.3z
		 M183.6,78.9h2.7v2.7h-2.7V78.9z M183.6,82.5h2.7v2.7h-2.7V82.5z"/>
	<path d="M190.8,66.3h2.7V69h-2.7V66.3z M190.8,69.9h2.7v2.7h-2.7V69.9z M190.8,73.5h2.7v2.7h-2.7V73.5z M190.8,84.3h2.7V87h-2.7
		V84.3z M194.4,64.5h2.7v2.7h-2.7V64.5z M194.4,75.3h2.7V78h-2.7V75.3z M194.4,86.1h2.7v2.7h-2.7V86.1z M198,64.5h2.7v2.7H198V64.5z
		 M198,75.3h2.7V78H198V75.3z M198,86.1h2.7v2.7H198V86.1z M201.6,64.5h2.7v2.7h-2.7V64.5z M201.6,75.3h2.7V78h-2.7V75.3z
		 M201.6,86.1h2.7v2.7h-2.7V86.1z M205.2,66.3h2.7V69h-2.7V66.3z M205.2,77.1h2.7v2.7h-2.7V77.1z M205.2,80.7h2.7v2.7h-2.7V80.7z
		 M205.2,84.3h2.7V87h-2.7V84.3z"/>
</g>
<rect x="115.5" y="52.5" width="105" height="3.5"/>
<rect x="115.5" y="98" width="105" height="3.5"/>
<rect x="220.5" y="56" width="3.5" height="17.5"/>
<rect x="220.5" y="80.5" width="3.5" height="17.5"/>
</svg>
