<?xml version="1.0" encoding="utf-8"?>
<svg version="1.1" id="Wrestler" xmlns="http://www.w3.org/2000/svg" xmlns:xlink="http://www.w3.org/1999/xlink" x="0px" y="0px"
	 viewBox="0 0 166.6 250" style="enable-background:new 0 0 166.6 250;" xml:space="preserve">
<style type="text/css">
	.changecolor{fill:#00A6DE;}
	.st1{fill:#FCFCFC;}
</style>
<g>
	<polygon id="Face" class="changecolor" points="156.2,41.7 156.2,31.2 145.8,31.2 145.8,20.8 135.4,20.8 135.4,10.4 125,10.4 125,0 41.7,0 
		41.7,10.4 31.2,10.4 31.2,20.8 20.8,20.8 20.8,31.2 10.4,31.2 10.4,41.7 0,41.7 0,197.9 10.4,197.9 10.4,208.3 20.8,208.3 
		20.8,218.8 41.7,218.8 41.7,239.6 52.1,239.6 52.1,250 114.6,250 114.6,239.6 125,239.6 125,218.8 145.8,218.8 145.8,208.3 
		156.2,208.3 156.2,197.9 166.7,197.9 166.7,41.7 	"/>
	<path id="White" class="st1" d="M93.8,145.8H72.9v-10.4h20.8V145.8z M156.2,114.6V72.9H93.8v10.4H72.9V72.9H10.4v41.7h10.4V125
		h10.4v10.4h31.2v20.8H41.7v41.7H125v-41.7h-20.8v-20.8h31.3V125h10.4v-10.4H156.2z"/>
	<path id="Black" d="M62.5,109.4h5.2V99H57.3v-5.2H20.8V99H26v5.2h5.2v5.2h5.2v5.2h26V109.4z M99,177.1h-5.2v-5.2H72.9v5.2h-5.2
		v10.4h5.2v5.2h20.8v-5.2H99V177.1z M145.8,99v-5.2h-36.5V99H99v10.4h5.2v5.2h26v-5.2h5.2v-5.2h5.2V99H145.8z"/>
</g>
</svg>
