<?xml version="1.0" encoding="utf-8"?>
<svg version="1.1" id="Octopus" xmlns="http://www.w3.org/2000/svg" xmlns:xlink="http://www.w3.org/1999/xlink" x="0px" y="0px"
	 viewBox="0 0 208.3 250" style="enable-background:new 0 0 208.3 250;" xml:space="preserve">
<style type="text/css">
	.changecolor{fill:#00B48D;}
	.st1{fill:#FFFFFF;}
</style>
<g>
	<g id="Body">
		<rect x="72.9" y="177.1" class="changecolor" width="10.4" height="10.4"/>
		<rect x="62.5" y="187.5" class="changecolor" width="10.4" height="10.4"/>
		<rect x="83.3" y="187.5" class="changecolor" width="10.4" height="10.4"/>
		<rect x="72.9" y="197.9" class="changecolor" width="10.4" height="10.4"/>
		<rect x="62.5" y="208.3" class="changecolor" width="10.4" height="10.4"/>
		<rect x="72.9" y="218.8" class="changecolor" width="10.4" height="10.4"/>
		<rect x="52.1" y="218.8" class="changecolor" width="10.4" height="10.4"/>
		<rect x="83.3" y="208.3" class="changecolor" width="10.4" height="10.4"/>
		<polygon class="changecolor" points="104.2,218.8 93.8,218.8 93.8,229.2 104.2,229.2 114.6,229.2 114.6,218.8 		"/>
		<rect x="114.6" y="208.3" class="changecolor" width="10.4" height="10.4"/>
		<rect x="125" y="218.8" class="changecolor" width="10.4" height="10.4"/>
		<rect x="135.4" y="208.3" class="changecolor" width="10.4" height="10.4"/>
		<rect x="145.8" y="218.8" class="changecolor" width="10.4" height="10.4"/>
		<rect x="135.4" y="229.2" class="changecolor" width="10.4" height="10.4"/>
		<rect x="114.6" y="229.2" class="changecolor" width="10.4" height="10.4"/>
		<rect x="83.3" y="229.2" class="changecolor" width="10.4" height="10.4"/>
		<rect x="62.5" y="229.2" class="changecolor" width="10.4" height="10.4"/>
		<rect x="52.1" y="239.6" class="changecolor" width="10.4" height="10.4"/>
		<rect x="72.9" y="239.6" class="changecolor" width="10.4" height="10.4"/>
		<polygon class="changecolor" points="93.8,239.6 93.8,250 104.2,250 114.6,250 114.6,239.6 104.2,239.6 		"/>
		<rect x="125" y="239.6" class="changecolor" width="10.4" height="10.4"/>
		<rect x="145.8" y="239.6" class="changecolor" width="10.4" height="10.4"/>
		<rect x="156.2" y="229.2" class="changecolor" width="10.4" height="10.4"/>
		<rect x="41.7" y="229.2" class="changecolor" width="10.4" height="10.4"/>
		<rect x="31.2" y="218.8" class="changecolor" width="10.4" height="10.4"/>
		<rect x="20.8" y="208.3" class="changecolor" width="10.4" height="10.4"/>
		<rect x="10.4" y="197.9" class="changecolor" width="10.4" height="10.4"/>
		<rect x="166.7" y="218.8" class="changecolor" width="10.4" height="10.4"/>
		<rect x="177.1" y="208.3" class="changecolor" width="10.4" height="10.4"/>
		<rect x="187.5" y="197.9" class="changecolor" width="10.4" height="10.4"/>
		<rect x="114.6" y="187.5" class="changecolor" width="10.4" height="10.4"/>
		<rect x="135.4" y="187.5" class="changecolor" width="10.4" height="10.4"/>
		<rect x="125" y="197.9" class="changecolor" width="10.4" height="10.4"/>
		<rect x="125" y="177.1" class="changecolor" width="10.4" height="10.4"/>
		<polygon class="changecolor" points="197.9,62.5 197.9,52.1 187.5,52.1 187.5,41.7 177.1,41.7 177.1,31.2 166.7,31.2 166.7,20.8 
			156.2,20.8 156.2,10.4 145.8,10.4 145.8,0 135.4,0 125,0 125,0 125,0 114.6,0 114.6,10.4 125,10.4 125,20.8 135.4,20.8 
			135.4,31.2 145.8,31.2 145.8,41.7 156.2,41.7 156.2,52.1 145.8,52.1 145.8,41.7 135.4,41.7 135.4,31.2 125,31.2 125,20.8 
			114.6,20.8 114.6,10.4 104.2,10.4 93.8,10.4 93.8,20.8 83.3,20.8 83.3,31.2 72.9,31.2 72.9,41.7 62.5,41.7 62.5,52.1 52.1,52.1 
			52.1,41.7 62.5,41.7 62.5,31.2 72.9,31.2 72.9,20.8 83.3,20.8 83.3,10.4 93.8,10.4 93.8,0 83.3,0 72.9,0 72.9,0 62.5,0 62.5,10.4 
			52.1,10.4 52.1,20.8 41.7,20.8 41.7,31.2 31.2,31.2 31.2,41.7 20.8,41.7 20.8,52.1 10.4,52.1 10.4,62.5 0,62.5 0,72.9 0,83.3 
			0,83.3 0,93.8 0,104.2 0,114.6 10.4,114.6 10.4,125 20.8,125 31.2,125 31.2,135.4 31.2,145.8 41.7,145.8 41.7,156.2 52.1,156.2 
			62.5,156.2 62.5,166.7 62.5,177.1 72.9,177.1 72.9,166.7 83.3,166.7 83.3,177.1 93.8,177.1 93.8,187.5 104.2,187.5 114.6,187.5 
			114.6,177.1 125,177.1 125,166.7 135.4,166.7 135.4,177.1 145.8,177.1 145.8,166.7 145.8,156.2 156.2,156.2 166.7,156.2 
			166.7,145.8 177.1,145.8 177.1,135.4 177.1,125 187.5,125 197.9,125 197.9,114.6 208.3,114.6 208.3,104.2 208.3,93.8 208.3,83.3 
			208.3,83.3 208.3,72.9 208.3,62.5 		"/>
		<polygon class="changecolor" points="104.2,208.3 114.6,208.3 114.6,197.9 104.2,197.9 93.8,197.9 93.8,208.3 		"/>
	</g>
	<g id="Eyes">
		<rect x="119.8" y="78.1" width="5.2" height="5.2"/>
		<rect x="46.9" y="78.1" width="5.2" height="5.2"/>
		<rect x="125" y="72.9" width="31.2" height="5.2"/>
		<rect x="52.1" y="72.9" width="31.2" height="5.2"/>
		<rect x="156.2" y="78.1" width="5.2" height="5.2"/>
		<rect x="83.3" y="78.1" width="5.2" height="5.2"/>
		<polygon points="156.2,93.8 145.8,93.8 135.4,93.8 125,93.8 125,101.6 119.8,101.6 119.8,106.8 125,106.8 125,114.6 135.4,114.6 
			145.8,114.6 156.2,114.6 156.2,106.8 161.5,106.8 161.5,101.6 156.2,101.6 		"/>
		<polygon points="83.3,93.8 72.9,93.8 62.5,93.8 52.1,93.8 52.1,101.6 46.9,101.6 46.9,106.8 52.1,106.8 52.1,114.6 62.5,114.6 
			72.9,114.6 83.3,114.6 83.3,106.8 88.5,106.8 88.5,101.6 83.3,101.6 		"/>
	</g>
	<g id="White">
		<polygon class="st1" points="104.2,0 93.8,0 93.8,10.3 83.3,10.3 83.3,20.7 93.8,20.7 93.8,10.4 104.2,10.4 114.6,10.4 114.6,0 		
			"/>
		<polygon class="st1" points="114.6,145.8 114.6,135.4 104.2,135.4 93.8,135.4 93.8,145.8 104.2,145.8 		"/>
		<rect x="114.6" y="10.4" class="st1" width="10.4" height="10.4"/>
		<rect x="72.9" y="20.7" class="st1" width="10.4" height="10.4"/>
		<rect x="62.5" y="31.1" class="st1" width="10.4" height="10.4"/>
		<rect x="52.1" y="41.5" class="st1" width="10.4" height="10.4"/>
		<rect x="125" y="20.8" class="st1" width="10.4" height="10.4"/>
		<rect x="135.4" y="31.2" class="st1" width="10.4" height="10.4"/>
		<rect x="145.8" y="41.7" class="st1" width="10.4" height="10.4"/>
		<rect x="125" y="166.7" class="st1" width="10.4" height="10.4"/>
		<rect x="125" y="187.5" class="st1" width="10.4" height="10.4"/>
		<polygon class="st1" points="104.2,197.9 114.6,197.9 114.6,187.5 104.2,187.5 93.8,187.5 93.8,197.9 		"/>
		<polygon class="st1" points="93.8,229.2 93.8,239.6 104.2,239.6 114.6,239.6 114.6,229.2 104.2,229.2 		"/>
		<polygon class="st1" points="104.2,208.3 93.8,208.3 93.8,218.8 104.2,218.8 114.6,218.8 114.6,208.3 		"/>
		<rect x="125" y="208.3" class="st1" width="10.4" height="10.4"/>
		<rect x="125" y="229.2" class="st1" width="10.4" height="10.4"/>
		<rect x="72.9" y="166.7" class="st1" width="10.4" height="10.4"/>
		<rect x="72.9" y="187.5" class="st1" width="10.4" height="10.4"/>
		<rect x="72.9" y="208.3" class="st1" width="10.4" height="10.4"/>
		<rect x="72.9" y="229.2" class="st1" width="10.4" height="10.4"/>
		<rect x="114.6" y="177.1" class="st1" width="10.4" height="10.4"/>
		<rect x="114.6" y="197.9" class="st1" width="10.4" height="10.4"/>
		<rect x="114.6" y="218.8" class="st1" width="10.4" height="10.4"/>
		<rect x="114.6" y="239.6" class="st1" width="10.4" height="10.4"/>
		<rect x="135.4" y="239.6" class="st1" width="10.4" height="10.4"/>
		<rect x="135.4" y="218.8" class="st1" width="10.4" height="10.4"/>
		<rect x="135.4" y="197.9" class="st1" width="10.4" height="10.4"/>
		<rect x="135.4" y="177.1" class="st1" width="10.4" height="10.4"/>
		<rect x="83.3" y="177.1" class="st1" width="10.4" height="10.4"/>
		<rect x="83.3" y="197.9" class="st1" width="10.4" height="10.4"/>
		<rect x="83.3" y="218.8" class="st1" width="10.4" height="10.4"/>
		<rect x="83.3" y="239.6" class="st1" width="10.4" height="10.4"/>
		<rect x="62.5" y="239.6" class="st1" width="10.4" height="10.4"/>
		<rect x="62.5" y="218.8" class="st1" width="10.4" height="10.4"/>
		<rect x="62.5" y="197.9" class="st1" width="10.4" height="10.4"/>
		<rect x="62.5" y="177.1" class="st1" width="10.4" height="10.4"/>
		<rect x="52.1" y="229.2" class="st1" width="10.4" height="10.4"/>
		<rect x="145.8" y="229.2" class="st1" width="10.4" height="10.4"/>
	</g>
</g>
</svg>
