<?xml version="1.0" encoding="utf-8"?>
<!-- Generator: Adobe Illustrator 23.1.1, SVG Export Plug-In . SVG Version: 6.00 Build 0)  -->
<svg version="1.1" id="Robot" xmlns="http://www.w3.org/2000/svg" xmlns:xlink="http://www.w3.org/1999/xlink" x="0px" y="0px"
	 viewBox="0 0 144.2 250" style="enable-background:new 0 0 144.2 250;" xml:space="preserve">
<style type="text/css">
	.changecolor{fill:#EA680C;}
	.st1{fill:#FFFFFF;}
</style>
<g>
	<path id="Body" class="changecolor" d="M9.6,250h9.6v-67.3H9.6V250z M125,250h9.6v-67.3H125V250z M57.7,230.8h9.6v9.6h-9.6V230.8z
		 M67.3,221.2h9.6v9.6h-9.6V221.2z M28.8,173.1V250h19.2v-9.6h9.6v9.6h28.8v-9.6h-9.6v-9.6h9.6v9.6h9.6v9.6h19.2v-76.9H28.8z
		 M57.7,0v9.6h-9.6v9.6H19.2v9.6H9.6v48.1H0v28.8h9.6v48.1h9.6v9.6H125v-9.6h9.6v-48.1h9.6V76.9h-9.6V28.8H125v-9.6H96.2V9.6h-9.6
		v9.6H57.7V9.6h28.8V0H57.7z"/>
	<g id="White_1_">
		<rect x="67.3" y="221.2" class="st1" width="9.6" height="9.6"/>
		<rect x="76.9" y="230.8" class="st1" width="9.6" height="9.6"/>
		<rect x="57.7" y="230.8" class="st1" width="9.6" height="9.6"/>
		<rect x="48.1" y="240.4" class="st1" width="9.6" height="9.6"/>
		<rect x="86.5" y="240.4" class="st1" width="9.6" height="9.6"/>
		<polygon class="st1" points="76.9,19.2 86.5,19.2 86.5,9.6 76.9,9.6 67.3,9.6 57.7,9.6 57.7,19.2 67.3,19.2 		"/>
	</g>
	<g id="White">
		<rect x="38.5" y="129.7" class="st1" width="9.6" height="14.4"/>
		<rect x="52.9" y="129.7" class="st1" width="9.6" height="14.4"/>
		<rect x="67.3" y="129.7" class="st1" width="9.6" height="14.4"/>
		<rect x="81.7" y="129.7" class="st1" width="9.6" height="14.4"/>
		<rect x="96.2" y="129.7" class="st1" width="9.6" height="14.4"/>
		<rect x="96.2" y="81.6" class="st1" width="19.2" height="19.2"/>
		<rect x="28.8" y="81.6" class="st1" width="19.2" height="19.2"/>
	</g>
	<g id="Outline">
		<g>
			<rect x="28.8" y="76.8" width="19.2" height="4.8"/>
			<rect x="28.8" y="100.8" width="19.2" height="4.8"/>
			<rect x="24" y="81.6" width="4.8" height="19.2"/>
			<rect x="48.1" y="81.6" width="4.8" height="19.2"/>
			<rect x="96.2" y="76.8" width="19.2" height="4.8"/>
			<rect x="91.3" y="81.6" width="4.8" height="19.2"/>
			<rect x="115.4" y="81.6" width="4.8" height="19.2"/>
			<rect x="96.2" y="100.8" width="19.2" height="4.8"/>
			<polygon points="38.5,134.5 38.5,129.7 33.7,129.7 33.7,134.5 33.7,139.3 33.7,144.1 38.5,144.1 38.5,139.3 			"/>
			<path d="M96.2,129.7h9.6v-4.8H38.5v4.8h9.6v14.4h-9.6v4.8h67.3v-4.8h-9.6V129.7z M62.5,134.5v9.6h-9.6v-14.4h9.6V134.5z
				 M76.9,134.5v9.6h-9.6v-14.4h9.6V134.5z M91.3,134.5v9.6h-9.6v-14.4h9.6V134.5z"/>
			<polygon points="105.8,134.5 105.8,139.3 105.8,144.1 110.6,144.1 110.6,139.3 110.6,134.5 110.6,129.7 105.8,129.7 			"/>
		</g>
		<rect x="38.5" y="88.6" width="4.8" height="4.8"/>
		<rect x="105.8" y="88.6" width="4.8" height="4.8"/>
	</g>
</g>
</svg>
