<?xml version="1.0" encoding="utf-8"?>
<svg version="1.1" xmlns="http://www.w3.org/2000/svg" xmlns:xlink="http://www.w3.org/1999/xlink" x="0px" y="0px"
	 viewBox="0 0 700 500" style="enable-background:new 0 0 500 370;" xml:space="preserve">
<style type="text/css">
	.st0{fill:#E6414A;}
	.st1{fill:#FFFFFF;}
	.st2{fill:#2969B2;}
	.st3{fill:#FFD003;}
	.st4{fill:#00B48D;}
	.st5{fill:#D1D6DA;}

	.sparkle-change-1{
		fill:#E6414A;
		animation: a1 3s steps(1) infinite;
	}
	.sparkle-change-2{
		fill: #00B48D;
		animation: a2 3s steps(1) infinite;
	}
	.sparkle-change-3{
		fill:#2969B2;
		animation: a3 3s steps(1) infinite;
	}
	.sparkle-change-4{
		fill:#FFD003;
		animation: a4 3s steps(1) infinite;
	}
	.sparkle-change-5{
		fill:#D1D6DA;
		animation: a5 3s steps(1) infinite;
	}

	@keyframes a1 {
	  0% {
	    fill:  #E6414A;
	  }
	  25% {
	    fill: #2969B2;
	  }
	  50% {
	    fill: #00B48D;
	  }
	  75% {
	    fill:  #D1D6DA;
	  }
	  100% {
	    fill:  #E6414A;
	  }
	}
	@keyframes a2 {
	  0% {
	    fill:  #00B48D;

	  }
	  25% {
	    fill:  #D1D6DA;
	  }
	  50% {
	    fill: #FFD003;
	  }
	  75% {
	    fill: #E6414A;
	  }
	  100% {
	    fill:  #00B48D;
	  }
	}


	@keyframes a3 {
	  0% {
	    fill: #2969B2;

	  }
	  25% {
	    fill:  #2969B2;
	  }
	  50% {
	    fill:  #00B48D;
	  }
	  75% {
	    fill: #D1D6DA;
	  }
	  100% {
	    fill: #2969B2;
	  }
	}


	@keyframes a4 {
	  0% {
	    fill: #D1D6DA;
	  }
	  25% {
	    fill: #E6414A;
	  }
	  50% {
	    fill:  #2969B2;
	  }
	  75% {
	    fill:  #FFD003;
	  }
	  100% {
	    fill: #D1D6DA;
	  }
	}


	@keyframes a5 {
	  0% {
	    fill: #D1D6DA;
	  }
	  25% {
	    fill: #FFD003;
	  }
	  50% {
	    fill:  #E6414A;
	  }
	  75% {
	    fill:  #00B48D;
	  }
	  100% {
	    fill: #D1D6DA;
	  }
	}

	.wave{
	 animation: a1 10s steps(10) infinite;
	 }

         @keyframes a1 {
         0% {
         transform: translate(0%, 0px);
         }
         100% {
         transform: translate(-200px, 0px);}
</style>
<g class="wave">
	<g>
		<rect x="60" y="140" class="st0" width="20" height="20"/>
		<rect x="140" y="180" class="st0" width="20" height="20"/>
		<rect x="40" y="160" class="st0" width="20" height="20"/>
		<rect x="180" y="180" class="st0" width="20" height="20"/>
		<rect x="80" y="160" class="st0" width="20" height="20"/>
		<rect x="200" y="200" class="st0" width="20" height="20"/>
		<rect x="120" y="200" class="st0" width="20" height="20"/>
		<rect y="200" class="st0" width="20" height="20"/>
		<rect x="100" y="180" class="st0" width="20" height="20"/>
		<rect x="20" y="180" class="st0" width="20" height="20"/>
		<rect x="160" y="160" class="st0" width="20" height="20"/>

		<rect x="140" y="135" class="st2" width="20" height="20"/>
		<rect x="40" y="115" class="st2" width="20" height="20"/>
		<rect x="180" y="135" class="st2" width="20" height="20"/>
		<rect x="80" y="115" class="st2" width="20" height="20"/>
		<rect x="200" y="155" class="st2" width="20" height="20"/>
		<rect x="120" y="155" class="st2" width="20" height="20"/>
		<rect x="0" y="155" class="st2" width="20" height="20"/>
		<rect x="100" y="135" class="st2" width="20" height="20"/>
		<rect x="20" y="135" class="st2" width="20" height="20"/>
		<rect x="160" y="115" class="st2" width="20" height="20"/>
		<rect x="60" y="95" class="st2" width="20" height="20"/>

		<rect x="140" y="225" class="st3" width="20" height="20"/>
		<rect x="40" y="205" class="st3" width="20" height="20"/>
		<rect x="180" y="225" class="st3" width="20" height="20"/>
		<rect x="80" y="205" class="st3" width="20" height="20"/>
		<rect x="200" y="245" class="st3" width="20" height="20"/>
		<rect x="120" y="245" class="st3" width="20" height="20"/>
		<rect x="0" y="245" class="st3" width="20" height="20"/>
		<rect x="100" y="225" class="st3" width="20" height="20"/>
		<rect x="20" y="225" class="st3" width="20" height="20"/>
		<rect x="160" y="205" class="st3" width="20" height="20"/>
		<rect x="60" y="185" class="st3" width="20" height="20"/>
	</g>

	<g>
		<rect x="260" y="140" class="st0" width="20" height="20"/>
		<rect x="340" y="180" class="st0" width="20" height="20"/>
		<rect x="240" y="160" class="st0" width="20" height="20"/>
		<rect x="380" y="180" class="st0" width="20" height="20"/>
		<rect x="280" y="160" class="st0" width="20" height="20"/>
		<rect x="400" y="200" class="st0" width="20" height="20"/>
		<rect x="320" y="200" class="st0" width="20" height="20"/>
		<rect x="200" y="200" class="st0" width="20" height="20"/>
		<rect x="300" y="180" class="st0" width="20" height="20"/>
		<rect x="220" y="180" class="st0" width="20" height="20"/>
		<rect x="360" y="160" class="st0" width="20" height="20"/>

		<rect x="340" y="135" class="st2" width="20" height="20"/>
		<rect x="240" y="115" class="st2" width="20" height="20"/>
		<rect x="380" y="135" class="st2" width="20" height="20"/>
		<rect x="280" y="115" class="st2" width="20" height="20"/>
		<rect x="400" y="155" class="st2" width="20" height="20"/>
		<rect x="320" y="155" class="st2" width="20" height="20"/>
		<rect x="200" y="155" class="st2" width="20" height="20"/>
		<rect x="300" y="135" class="st2" width="20" height="20"/>
		<rect x="220" y="135" class="st2" width="20" height="20"/>
		<rect x="360" y="115" class="st2" width="20" height="20"/>
		<rect x="260" y="95" class="st2" width="20" height="20"/>

		<rect x="340" y="225" class="st3" width="20" height="20"/>
		<rect x="240" y="205" class="st3" width="20" height="20"/>
		<rect x="380" y="225" class="st3" width="20" height="20"/>
		<rect x="280" y="205" class="st3" width="20" height="20"/>
		<rect x="400" y="245" class="st3" width="20" height="20"/>
		<rect x="320" y="245" class="st3" width="20" height="20"/>
		<rect x="200" y="245" class="st3" width="20" height="20"/>
		<rect x="300" y="225" class="st3" width="20" height="20"/>
		<rect x="220" y="225" class="st3" width="20" height="20"/>
		<rect x="360" y="205" class="st3" width="20" height="20"/>
		<rect x="260" y="185" class="st3" width="20" height="20"/>
	</g>


</g>

<g id="Head">
	<g id="Alpaka-BG" transform="translate(200.000000, 85.000000)">
		<g id="Gruppe_228">
			<polygon id="Pfad_1128" class="st0" points="237.2,-42 237.2,-13.1 208.2,-13.1 208.2,15.9 128.6,15.9 128.6,-13.1 99.6,-13.1 
				99.6,-42 49,-42 49,-13.1 20,-13.1 20,204.1 49,204.1 49,233.1 77.9,233.1 77.9,262 266.2,262 266.2,233.1 295.1,233.1 
				295.1,204.1 324.1,204.1 324.1,-13.1 295.1,-13.1 295.1,-42 			"/>
		</g>
	</g>
	<g>
		<path class="st1" d="M250.9,193h2.8v-2.8h-2.8V193z M254.5,193h2.8v-2.8h-2.8V193z M258.2,193h2.8v-2.8h-2.8V193z M272.7,193h2.8
			v-2.8h-2.8V193z M276.3,193h2.8v-2.8h-2.8V193z M280,193h2.8v-2.8H280V193z M294.4,193h2.8v-2.8h-2.8V193z M298.1,193h2.8v-2.8
			h-2.8V193z M301.8,193h2.8v-2.8h-2.8V193z M316.2,193h2.8v-2.8h-2.8V193z M319.9,193h2.8v-2.8h-2.8V193z M323.4,193h2.8v-2.8h-2.8
			V193z M327,193h2.8v-2.8H327V193z M334.4,193h2.8v-2.8h-2.8V193z M348.9,193h2.8v-2.8h-2.8V193z M356.1,193h2.8v-2.8h-2.8V193z
			 M359.8,193h2.8v-2.8h-2.8V193z M363.5,193h2.6v-2.8h-2.8L363.5,193z M367,193h2.8v-2.8H367V193z M389,193h2.8v-2.8H389V193z
			 M403.5,193h2.8v-2.8h-2.8V193z M410.9,193h2.8v-2.8h-2.8V193z M425.3,193h2.8v-2.8h-2.8V193z M436.2,193h2.8v-2.8h-2.8V193z
			 M440,193h2.8v-2.8H440V193z M443.6,193h2.8v-2.8h-2.8V193z M454.3,193h2.8v-2.8h-2.8V193z M468.8,193h2.8v-2.8h-2.8V193z
			 M483.4,193h2.8v-2.8h-2.8V193z M247.2,190.9h2.8v-2.8h-2.8V190.9z M261.7,190.9h2.8v-2.8h-2.8V190.9z M290.8,190.9h2.8v-2.8h-2.8
			V190.9z M305.3,190.9h2.8v-2.8h-2.8V190.9z M312.5,190.9h2.8v-2.8h-2.8V190.9z M370.6,190.9h2.8v-2.8h-2.8V190.9z M432.6,190.9
			h2.8v-2.8h-2.8V190.9z M447.1,190.9h2.8v-2.8h-2.8V190.9z M269,189.2h2.8v-2.8H269V189.2z M283.4,189.2h2.8v-2.8h-2.8V189.2z
			 M334.4,189.2h2.8v-2.8h-2.8V189.2z M348.9,189.2h2.8v-2.8h-2.8V189.2z M356.1,189.2h2.8v-2.8h-2.8V189.2z M389,189.2h2.8v-2.8
			H389V189.2z M403.5,189.2h2.8v-2.8h-2.8V189.2z M410.9,189.2h2.8v-2.8h-2.8V189.2z M425.3,189.2h2.8v-2.8h-2.8V189.2z
			 M454.3,189.2h2.8v-2.8h-2.8V189.2z M465.2,189.2h2.8v-2.8h-2.8V189.2z M483.4,189.2h2.8v-2.8h-2.8V189.2z M247.2,187.3h2.8v-2.8
			h-2.8V187.3z M261.7,187.3h2.8v-2.8h-2.8V187.3z M290.8,187.3h2.8v-2.8h-2.8V187.3z M305.3,187.3h2.8v-2.8h-2.8V187.3z
			 M312.5,187.3h2.8v-2.8h-2.8V187.3z M370.6,187.3h2.8v-2.8h-2.8V187.3z M432.6,187.3h2.8v-2.8h-2.8V187.3z M269,185.6h2.8v-2.8
			H269V185.6z M283.4,185.6h2.8v-2.8h-2.8V185.6z M334.4,185.6h2.8v-2.8h-2.8V185.6z M345.1,185.6h2.8v-2.8h-2.8V185.6z
			 M348.9,185.6h2.8v-2.8h-2.8V185.6z M356.1,185.6h2.8v-2.8h-2.8V185.6z M389,185.6h2.8v-2.8H389V185.6z M403.5,185.6h2.8v-2.8
			h-2.8V185.6z M410.9,185.6h2.8v-2.8h-2.8V185.6z M425.3,185.6h2.8v-2.8h-2.8V185.6z M454.3,185.6h2.8v-2.8h-2.8V185.6z
			 M461.7,185.6h2.8v-2.8h-2.8V185.6z M483.4,185.6h2.8v-2.8h-2.8V185.6z M261.7,183.7h2.8V181h-2.8V183.7z M290.8,183.7h2.8V181
			h-2.8V183.7z M298.1,183.7h2.8V181h-2.8V183.7z M301.8,183.7h2.8V181h-2.8V183.7z M305.3,183.7h2.8V181h-2.8V183.7z M312.5,183.7
			h2.8V181h-2.8V183.7z M370.6,183.7h2.8V181h-2.8V183.7z M414.5,183.7h2.8V181h-2.8V183.7z M418.1,183.7h2.8V181h-2.8V183.7z
			 M421.7,183.7h2.8V181h-2.8V183.7z M432.6,183.7h2.8V181h-2.8V183.7z M269,182h2.8v-2.8H269V182z M283.4,182h2.8v-2.8h-2.8V182z
			 M316.2,182h2.8v-2.8h-2.8V182z M319.9,182h2.8v-2.8h-2.8V182z M323.4,182h2.8v-2.8h-2.8V182z M334.4,182h2.8v-2.8h-2.8V182z
			 M341.7,182h2.8v-2.8h-2.8V182z M348.9,182h2.8v-2.8h-2.8V182z M356.1,182h2.8v-2.8h-2.8V182z M389,182h2.8v-2.8H389V182z
			 M392.6,182h2.8v-2.8h-2.8V182z M396.4,182h2.8v-2.8h-2.8V182z M400,182h2.8v-2.8H400V182z M403.5,182h2.8v-2.8h-2.8V182z
			 M410.9,182h2.8v-2.8h-2.8V182z M425.3,182h2.8v-2.8h-2.8V182z M454.3,182h2.8v-2.8h-2.8V182z M458.1,182h2.8v-2.8h-2.8V182z
			 M483.4,182h2.8v-2.8h-2.8V182z M261.7,180.1h2.8v-2.8h-2.8V180.1z M290.8,180.1h2.8v-2.8h-2.8V180.1z M312.5,180.1h2.8v-2.8h-2.8
			V180.1z M370.6,180.1h2.8v-2.8h-2.8V180.1z M432.6,180.1h2.8v-2.8h-2.8V180.1z M269,178.4h2.8v-2.9H269V178.4z M283.4,178.4h2.8
			v-2.9h-2.8V178.4z M334.4,178.4h2.8v-2.9h-2.8V178.4z M338,178.4h2.8v-2.9H338V178.4z M348.9,178.4h2.8v-2.9h-2.8V178.4z
			 M356.1,178.4h2.8v-2.9h-2.6L356.1,178.4z M389,178.4h2.8v-2.9H389V178.4z M403.5,178.4h2.8v-2.9h-2.8V178.4z M410.9,178.4h2.8
			v-2.9h-2.8V178.4z M425.3,178.4h2.8v-2.9h-2.8V178.4z M454.3,178.4h2.8v-2.9h-2.8V178.4z M461.7,178.4h2.8v-2.9h-2.8V178.4z
			 M483.4,178.4h2.8v-2.9h-2.8V178.4z M261.7,176.5h2.8v-2.8h-2.8V176.5z M290.8,176.5h2.8v-2.8h-2.8V176.5z M312.5,176.5h2.8v-2.8
			h-2.8V176.5z M370.6,176.5h2.8v-2.8h-2.8V176.5z M432.6,176.5h2.8v-2.8h-2.8V176.5z M247.2,174.6h2.8v-2.8h-2.8V174.6z M269,174.6
			h2.8v-2.8H269V174.6z M283.4,174.6h2.8v-2.8h-2.8V174.6z M334.4,174.6h2.8v-2.8h-2.8V174.6z M348.9,174.6h2.8v-2.8h-2.8V174.6z
			 M356.1,174.6h2.8v-2.8h-2.6L356.1,174.6z M389,174.6h2.8v-2.8H389V174.6z M403.5,174.6h2.8v-2.8h-2.8V174.6z M410.9,174.6h2.8
			v-2.8H411L410.9,174.6z M425.3,174.6h2.8v-2.8h-2.8V174.6z M454.3,174.6h2.8v-2.8h-2.8V174.6z M465.2,174.6h2.8v-2.8h-2.8V174.6z
			 M483.3,174.6h2.8v-2.8h-2.8V174.6z M261.7,172.7h2.8V170h-2.8V172.7z M290.8,172.7h2.8V170h-2.8V172.7z M305.3,172.7h2.8V170
			h-2.8V172.7z M312.5,172.7h2.8V170h-2.8V172.7z M370.6,172.7h2.8V170h-2.8V172.7z M432.6,172.7h2.8V170h-2.8V172.7z M447.1,172.7
			h2.8V170h-2.8V172.7z M414.5,171.8h2.8v-2.8h-2.8V171.8z M421.7,171.8h2.8v-2.8h-2.8V171.8z M247.2,171h2.8v-2.8h-2.8V171z
			 M250.9,171h2.8v-2.8h-2.8V171z M254.5,171h2.8v-2.8h-2.8V171z M258.2,171h2.8v-2.8h-2.8V171z M269,171h2.8v-2.8H269V171z
			 M283.4,171h2.8v-2.8h-2.8V171z M294.4,171h2.8v-2.8h-2.6L294.4,171z M297.9,171h2.8v-2.8h-2.6L297.9,171z M301.7,171h2.8v-2.8
			h-2.6L301.7,171z M316.2,171h2.8v-2.8h-2.8V171z M319.8,171h2.8v-2.8h-2.6L319.8,171z M323.4,171h2.8v-2.8h-2.6L323.4,171z
			 M327,171h2.8v-2.8H327V171z M334.4,171h2.8v-2.8h-2.8V171z M348.9,171h2.8v-2.8h-2.8V171z M356.1,171h2.8v-2.8h-2.6L356.1,171z
			 M359.8,171h2.8v-2.8h-2.6L359.8,171z M363.4,171h2.8v-2.8h-2.8V171z M367,171h2.8v-2.8H367V171z M389,171h2.8v-2.8H389V171z
			 M403.5,171h2.8v-2.8h-2.8V171z M418.1,171h2.8v-2.8h-2.8V171z M436.2,171h2.8v-2.8h-2.8V171z M440,171h2.8v-2.8H440V171z
			 M443.4,171h2.8v-2.8h-2.8V171z M454.3,171h2.8v-2.8h-2.8V171z M468.8,171h2.8v-2.8h-2.8V171z M476.2,171h2.8v-2.8h-2.8V171z
			 M479.8,171h2.8v-2.8h-2.8V171z M483.3,171h2.8v-2.8h-2.8V171z M487,171h2.8v-2.8H487V171z M490.6,171h2.8v-2.8h-2.8V171z"/>
		<path class="st1" d="M477.3,221.1c2.2,2,4.9,3.2,8.1,3.2c4.9,0,8.1-3,8.1-6.5c0-3.2-1.9-4.9-4.5-5.9l-3-1.3
			c-1.9-0.7-3.5-1.4-3.5-3.2c0-1.6,1.3-2.6,3.5-2.6c1.7,0,3.5,0.7,4.8,1.9l2-2.5c-1.9-1.7-4.3-2.8-7-2.8c-4.3,0-7.4,2.8-7.4,6.2
			c0,3.2,2.3,4.9,4.5,5.9l3,1.3c2,0.9,3.5,1.4,3.5,3.2c0,1.7-1.4,2.9-3.9,2.9c-2.2-0.1-4.2-1-5.8-2.5L477.3,221.1z M468.8,224h3.9
			v-22.4h-3.9V224z M450.3,224H464v-3.3h-9.8v-6.5h8.1v-3.3h-8.1v-5.6h9.6v-3.6h-13.5L450.3,224L450.3,224z M446.2,224l-5.4-9.4
			c2.8-0.9,4.6-3.5,4.5-6.4c0-4.9-3.6-6.5-8.3-6.5h-7.4V224h3.9v-8.8h3.3l4.8,8.8H446.2L446.2,224z M433.5,204.7h3.2
			c3,0,4.6,0.9,4.6,3.5c0,2.6-1.6,3.8-4.6,3.8h-3.2V204.7z M409,224h3.9v-6.5l3.2-3.9l5.9,10.6h4.3l-8.1-13.6l6.8-8.8h-4.3
			l-8.1,10.3h-0.1v-10.4h-3.9v22.3h0.4V224z M388.4,221.1c2.2,2,4.9,3.2,8.1,3.2c4.9,0,8.1-3,8.1-6.5c0-3.2-1.9-4.9-4.5-5.9
			l-2.9-1.3c-1.9-0.7-3.5-1.4-3.5-3.2c0-1.6,1.3-2.6,3.5-2.6c1.7,0,3.5,0.7,4.8,1.9l2-2.5c-1.9-1.7-4.3-2.8-7-2.8
			c-4.3,0-7.4,2.8-7.4,6.2c0,3.2,2.3,4.9,4.5,5.9l3,1.3c2,0.9,3.5,1.4,3.5,3.2c0,1.7-1.4,2.9-3.9,2.9c-2.2-0.1-4.2-1-5.8-2.5
			L388.4,221.1z M371.3,224h13.8v-3.3h-9.8v-6.5h8.1v-3.3h-8.1v-5.6h9.6v-3.6h-13.5L371.3,224L371.3,224z M353.7,220.6v-15.9h1.7
			c4.5,0,7.1,2.3,7.1,8c0,5.6-2.6,8.1-7.1,8.1h-1.7V220.6z M349.8,224h6.1c6.5,0,10.7-3.8,10.7-11.3s-4.1-11.1-11-11.1h-5.9v22.3
			h0.1V224z M326.9,224h3.8v-9.8c0-2.5-0.3-5.2-0.4-7.5h0.1l2.3,4.8l7,12.6h4.1v-22.4h-3.8v9.8c0,2.5,0.3,5.4,0.4,7.5h-0.1l-2.3-4.8
			l-7-12.6h-4.1V224z M304.1,214.1c0,7.2,3.3,10.3,8.5,10.3s8.5-2.9,8.5-10.3v-12.6h-3.8v12.9c0,4.8-1.9,6.4-4.6,6.4
			c-2.8,0-4.5-1.6-4.5-6.4v-12.9h-3.9L304.1,214.1L304.1,214.1z M285.6,224h13.8v-3.3h-9.8v-6.5h8.1v-3.3h-8.1v-5.6h9.6v-3.6h-13.5
			L285.6,224L285.6,224z M281.6,224l-5.2-9.4c2.8-0.9,4.6-3.5,4.5-6.4c0-4.9-3.6-6.5-8.3-6.5h-7.4V224h3.9v-8.8h3.3l4.8,8.8H281.6
			L281.6,224z M268.8,204.7h3.2c3,0,4.6,0.9,4.6,3.5c0,2.6-1.6,3.8-4.6,3.8h-3.2L268.8,204.7L268.8,204.7z M247.2,224h3.9v-9.4h8.3
			v-3.3h-8.3V205h9.6v-3.5h-13.5V224z"/>
	</g>
</g>



<g id="Sparkles">
	<rect id="Rechteck_133_1_" y="300" class="sparkle-change-5" width="20" height="20"/>
	<rect id="Rechteck_135_1_" x="580" y="235" class="st2" width="20" height="20"/>
	<rect id="Rechteck_129_1_" y="25" class="sparkle-change-4" width="20" height="20"/>
	<rect x="235" y="335" class="st0" width="20" height="20"/>
	<rect id="Rechteck_131_1_" x="145" y="270" class="sparkle-change-2" width="20" height="20"/>
	<rect x="380" y="0" class="st3" width="20" height="20"/>
	<rect x="560" y="130" class="sparkle-change-5" width="20" height="20"/>
	<rect id="Rechteck_132_1_" x="200" y="15" class="st2" width="20" height="20"/>
	<rect id="Rechteck_130_1_" x="545" y="50" class="st4" width="20" height="20"/>
</g>
<g id="Cross-2">
	<rect x="400" y="410" class="sparkle-change-4" width="20" height="20"/>
	<rect x="400" y="370" class="sparkle-change-2" width="20" height="20"/>
	<rect x="380" y="390" class="sparkle-change-3" width="20" height="20"/>
	<rect x="420" y="390" class="sparkle-change-5" width="20" height="20"/>
</g>
<g id="Cross-1">
	<rect id="Rechteck_129_3_" x="100" class="sparkle-change-2" width="20" height="20"/>
	<rect id="Rechteck_130_3_" x="100" y="40" class="sparkle-change-5" width="20" height="20"/>
	<rect id="Rechteck_131_3_" x="120" y="20" class="sparkle-change-4" width="20" height="20"/>
	<rect id="Rechteck_132_3_" x="80" y="20" class="sparkle-change-3" width="20" height="20"/>
</g>

</svg>
