<?xml version="1.0" standalone="no"?>
<!DOCTYPE svg PUBLIC "-//W3C//DTD SVG 20010904//EN"
 "http://www.w3.org/TR/2001/REC-SVG-20010904/DTD/svg10.dtd">
<svg version="1.0" xmlns="http://www.w3.org/2000/svg"
 width="700.000000pt" height="700.000000pt" viewBox="0 0 700.000000 700.000000"
 preserveAspectRatio="xMidYMid meet">
<metadata>
Created by potrace 1.11, written by Peter Selinger 2001-2013
</metadata>
<g transform="translate(0.000000,700.000000) scale(0.100000,-0.100000)"
fill="#000000" stroke="none">
<path d="M639 6993 c-1 -5 -2 -147 -2 -318 l-2 -310 -315 0 -315 0 -3 -2546
-2 -2547 272 0 c150 0 294 -1 319 -1 l45 -1 0 -311 c-1 -197 3 -313 9 -318 6
-4 148 -6 318 -6 l307 1 1 -35 c0 -20 1 -163 1 -319 l0 -282 2227 2 2226 3 2
285 c1 157 2 299 2 315 l1 31 315 -1 c202 0 316 4 318 10 1 6 2 148 2 317 l-1
308 40 1 c23 0 166 1 319 1 l277 1 -2 2546 -3 2545 -315 1 -315 0 -1 315 0
315 -637 3 -637 2 0 -318 0 -318 -307 1 c-170 0 -313 -1 -318 -2 -7 -2 -10
-105 -10 -306 0 -166 -1 -309 -3 -317 -3 -13 -41 -15 -285 -13 -155 1 -584 2
-952 2 l-670 1 0 318 0 317 -317 0 -318 0 0 317 0 318 -635 0 c-349 0 -635 -3
-636 -7z"/>
</g>
</svg>
