<svg width="132px" height="50px" xmlns="http://www.w3.org/2000/svg" xmlns:xlink="http://www.w3.org/1999/xlink" x="0px" y="0px" viewBox="0 0 132 50" style="enable-background:new 0 0 132 50;" xml:space="preserve">
    <style type="text/css">
	.colorchange{fill-rule:evenodd;clip-rule:evenodd;fill:var(--event-single-color);}
    </style>
    <title>Freitag</title>
    <g>
	<g transform="translate(-60.000000, -3009.000000)">
	    <g transform="translate(58.000000, 2693.000000)">
		<g transform="translate(0.000000, 316.000000)">
		    <g transform="translate(2.000000, 0.000000)">
			<polygon class="colorchange" points="0,0 132,0 132,37.2 12.8,37.2 0,50"/>
			<g>
			    <path fill="#FFFFFF" d="M13,9.5h2v2h-2V9.5z M13,12h2v2h-2V12z M13,14.7h2v1.9h-2V14.7z M13,17.2h2v2h-2V17.2z M13,19.8h2v2h-2 V19.8z M13,22.5h2v2h-2V22.5z M13,25h2v2h-2V25z M15.6,9.5h1.9v2h-1.9V9.5z M15.6,17.2h1.9v2h-1.9V17.2z M18.2,9.5h1.9v2h-1.9 V9.5z M18.2,17.2h1.9v2h-1.9V17.2z M20.8,9.5h2v2h-2V9.5z M20.8,17.2h2v2h-2V17.2z M23.4,9.5h2v2h-2V9.5z"/>
			    <path fill="#FFFFFF" d="M28.6,9.5h2v2h-2V9.5z M28.6,12h2v2h-2V12z M28.6,14.7h2v1.9h-2V14.7z M28.6,17.2h2v2h-2V17.2z M28.6,19.8h2v2h-2V19.8z M28.6,22.5h2v2h-2V22.5z M28.6,25h2v2h-2V25z M31.2,9.5h1.9v2h-1.9V9.5z M31.2,17.2h1.9v2h-1.9V17.2 z M33.8,9.5h1.9v2h-1.9V9.5z M33.8,17.2h1.9v2h-1.9V17.2z M33.8,19.8h1.9v2h-1.9V19.8z M36.4,9.5h2v2h-2V9.5z M36.4,17.2h2v2 h-2V17.2z M36.4,22.5h2v2h-2V22.5z M39,10.8h2v2h-2V10.8z M39,13.3h2v2h-2V13.3z M39,16h2v2h-2V16z M39,25h2v2h-2V25z"/>
			    <path fill="#FFFFFF" d="M44.2,10.8h2v2h-2V10.8z M44.2,13.3h2v2h-2V13.3z M44.2,16h2v2h-2V16z M44.2,18.5h2v2h-2V18.5z M44.2,21.2h2v1.9h-2V21.2z M44.2,23.8h2v2h-2V23.8z M46.8,9.5h1.9v2h-1.9V9.5z M46.8,17.2h1.9v2h-1.9V17.2z M46.8,25h1.9v2 h-1.9V25z M49.4,9.5h1.9v2h-1.9V9.5z M49.4,17.2h1.9v2h-1.9V17.2z M49.4,25h1.9v2h-1.9V25z M52,9.5h2v2h-2V9.5z M52,17.2h2v2 h-2V17.2z M52,25h2v2h-2V25z M54.6,9.5h2v2h-2V9.5z M54.6,25h2v2h-2V25z"/>
			    <path fill="#FFFFFF" d="M59.8,9.5h2v2h-2V9.5z M59.8,25h2v2h-2V25z M62.4,9.5h1.9v2h-1.9V9.5z M62.4,25h1.9v2h-1.9V25z M65,9.5 h1.9v2H65V9.5z M65,12h1.9v2H65V12z M65,14.7h1.9v1.9H65V14.7z M65,17.2h1.9v2H65V17.2z M65,19.8h1.9v2H65V19.8z M65,22.5h1.9 v2H65V22.5z M65,25h1.9v2H65V25z M67.6,9.5h2v2h-2V9.5z M67.6,25h2v2h-2V25z M70.2,9.5h2v2h-2V9.5z M70.2,25h2v2h-2V25z"/>
			    <path fill="#FFFFFF" d="M75.4,9.5h1.9v2h-1.9V9.5z M78,9.5h1.9v2H78V9.5z M80.6,9.5h2v2h-2V9.5z M80.6,12h2v2h-2V12z M80.6,14.7 h2v1.9h-2V14.7z M80.6,17.2h2v2h-2V17.2z M80.6,19.8h2v2h-2V19.8z M80.6,22.5h2v2h-2V22.5z M80.6,25h2v2h-2V25z M83.2,9.5h2v2 h-2V9.5z M85.8,9.5h2v2h-2V9.5z"/>
			    <path fill="#FFFFFF" d="M91,12h2v2h-2V12z M91,14.7h2v1.9h-2V14.7z M91,17.2h2v2h-2V17.2z M91,19.8h2v2h-2V19.8z M91,22.5h2v2h-2 V22.5z M91,25h2v2h-2V25z M93.6,10.1h2v2h-2V10.1z M93.6,18.5h2v2h-2V18.5z M96.2,9.5h2v2h-2V9.5z M96.2,18.5h2v2h-2V18.5z M98.8,10.1h2v2h-2V10.1z M98.8,18.5h2v2h-2V18.5z M101.4,12h1.9v2h-1.9V12z M101.4,14.7h1.9v1.9h-1.9V14.7z M101.4,17.2h1.9 v2h-1.9V17.2z M101.4,19.8h1.9v2h-1.9V19.8z M101.4,22.5h1.9v2h-1.9V22.5z M101.4,25h1.9v2h-1.9V25z"/>
			    <path fill="#FFFFFF" d="M106.6,10.8h2v2h-2V10.8z M106.6,13.3h2v2h-2V13.3z M106.6,16h2v2h-2V16z M106.6,18.5h2v2h-2V18.5z M106.6,21.2h2v1.9h-2V21.2z M106.6,23.8h2v2h-2V23.8z M109.2,9.5h2v2h-2V9.5z M109.2,25h2v2h-2V25z M111.8,9.5h2v2h-2V9.5z M111.8,18.5h2v2h-2V18.5z M111.8,25h2v2h-2V25z M114.4,9.5h2v2h-2V9.5z M114.4,18.5h2v2h-2V18.5z M114.4,25h2v2h-2V25z M117,10.8h1.9v2H117V10.8z M117,18.5h1.9v2H117V18.5z M117,21.2h1.9v1.9H117V21.2z M117,23.8h1.9v2H117V23.8z"/>
			</g>
		    </g>
		</g>
	    </g>
	</g>
    </g>
</svg>
