<?xml version="1.0" encoding="utf-8"?>
<svg version="1.1" id="Layer_1" xmlns="http://www.w3.org/2000/svg" xmlns:xlink="http://www.w3.org/1999/xlink" x="0px" y="0px"
	 viewBox="0 0 27 26" style="enable-background:new 0 0 27 26;" xml:space="preserve">
<style type="text/css">
	.st0{fill-rule:evenodd;clip-rule:evenodd;}
	.st1{fill-rule:evenodd;clip-rule:evenodd;fill:#E6414A;}
	.st2{fill-rule:evenodd;clip-rule:evenodd;fill:#FFFFFF;}
</style>
<title>Group 13</title>
<g>
	<g transform="translate(-456.000000, -3059.000000)">
		<g id="Group-22" transform="translate(58.000000, 2693.000000)">
			<g id="Group-20" transform="translate(376.000000, 316.000000)">
				<g id="Group-17" transform="translate(0.000000, 38.000000)">
					<g id="Group-13" transform="translate(22.000000, 12.000000)">
						<polygon id="Fill-5" class="st0" points="0,20 2,20 2,6 0,6 						"/>
						<polygon id="Fill-6" class="st0" points="6,26 21,26 21,24 6,24 						"/>
						<polygon class="st1" points="23,10 23,6 15,6 15,8 13,8 13,4 4,4 4,6 2,6 2,20 4,20 4,22 4,24 21,24 21,22 23,22 25,22 25,10 
													"/>
						<polygon id="Fill-11" class="st2" points="5,10 9,10 9,8 5,8 						"/>
						<polygon id="Fill-23" class="st0" points="21,24 23,24 23,22 21,22 						"/>
						<polygon class="st0" points="4,24 6,24 6,22 4,22 						"/>
						<polygon class="st0" points="2,22 4,22 4,20 2,20 						"/>
						<polygon class="st0" points="2,6 4,6 4,4 2,4 						"/>
						<polygon class="st0" points="23,22 25,22 25,20 23,20 						"/>
						<polygon class="st0" points="23,10 25,10 25,8 23,8 						"/>
						<polygon class="st0" points="23,8 25,8 25,6 23,6 						"/>
						<polygon class="st0" points="23,4 15,4 15,2 17,2 17,0 13,0 13,2 4,2 4,4 13,4 13,8 15,8 15,6 23,6 						"/>
						<polygon class="st0" points="25,20 27,20 27,10 25,10 						"/>
					</g>
				</g>
			</g>
		</g>
	</g>
</g>
</svg>
