<?xml version="1.0" encoding="utf-8"?>
<svg version="1.1" id="Layer_1" xmlns="http://www.w3.org/2000/svg" xmlns:xlink="http://www.w3.org/1999/xlink" x="0px" y="0px"
	 viewBox="0 0 39 34" style="enable-background:new 0 0 39 34;" xml:space="preserve">
<style type="text/css">
	.st0{fill-rule:evenodd;clip-rule:evenodd;}
	.st1{fill-rule:evenodd;clip-rule:evenodd;fill:#1A1919;}
	.st2{fill-rule:evenodd;clip-rule:evenodd;fill:#EA6800;}
	.st3{fill-rule:evenodd;clip-rule:evenodd;fill:#FFD003;}
	.st4{fill-rule:evenodd;clip-rule:evenodd;fill:#FFFFFF;}
</style>
<title>Group 16</title>
<g>
	<g transform="translate(-449.000000, -3186.000000)">
		<g id="Group-22" transform="translate(58.000000, 2693.000000)">
			<g id="Group-20" transform="translate(376.000000, 316.000000)">
				<g id="Group-17" transform="translate(0.000000, 38.000000)">
					<g id="Group-16" transform="translate(15.000000, 139.000000)">
						<polygon id="Fill-7" class="st0" points="33,30 35,30 35,27 33,27 						"/>
						<polygon class="st0" points="4,30 6,30 6,27 4,27 						"/>
						<polygon class="st0" points="37,23 39,23 39,6 37,6 						"/>
						<polygon id="Fill-23" class="st0" points="35,27 37,27 37,23 35,23 						"/>
						<polygon class="st0" points="2,27 4,27 4,23 2,23 						"/>
						<polygon class="st0" points="35,6 37,6 37,2 35,2 						"/>
						<polygon class="st0" points="0,23 2,23 2,6 0,6 						"/>
						<polygon class="st0" points="2,6 4,6 4,2 2,2 						"/>
						<polygon id="Fill-25" class="st0" points="10,34 29,34 29,32 10,32 						"/>
						<polygon id="Fill-26" class="st1" points="29,32 33,32 33,30 29,30 						"/>
						<polygon class="st1" points="6,32 10,32 10,30 6,30 						"/>
						<polygon id="Fill-4" class="st0" points="24,2 35,2 35,0 24,0 						"/>
						<polygon class="st0" points="4,2 15,2 15,0 4,0 						"/>
						<polygon class="st0" points="15,4 18,4 18,2 15,2 						"/>
						<polygon class="st0" points="21,4 24,4 24,2 21,2 						"/>
						<polygon class="st0" points="18,6 21,6 21,4 18,4 						"/>
						<polygon class="st0" points="8,10 13,10 13,8 8,8 						"/>
						<polygon class="st0" points="25,10 30,10 30,8 25,8 						"/>
						<g id="Group-15" transform="translate(14.000000, 22.000000)">
							<polygon class="st0" points="2,2 4,2 4,0 2,0 							"/>
							<polygon class="st0" points="8,4 10,4 10,2 8,2 							"/>
							<polygon class="st0" points="0,4 2,4 2,2 0,2 							"/>
							<polygon class="st0" points="2,6 8,6 8,4 2,4 							"/>
						</g>
						<polygon class="st0" points="8,21 10,21 10,19 8,19 						"/>
						<polygon class="st0" points="28,20 30,20 30,18 28,18 						"/>
						<polygon class="st0" points="13,19 15,19 15,10 13,10 						"/>
						<polygon class="st0" points="23,19 25,19 25,10 23,10 						"/>
						<path class="st2" d="M37,6h-2V2H24v2h-3v2h-3V4h-3V2H4v4H2v4v13h2v4h2v3h4v2h12h1h6v-2h1h3v-3h2v-4h2V6z M8,10V8h5v2h2v9h-5v2
							H8v-4H6v-7H8z M16,28v-2h-2v-2h2v-2h6v2h2v2h-2v2H16z M30,20h-2v-2h-5v-8h2V8h5v2h2v8h-2V20z"/>
						<polygon class="st0" points="6,19 8,19 8,10 6,10 						"/>
						<polygon class="st0" points="30,18 32,18 32,10 30,10 						"/>
						<polygon class="st3" points="32,18 34,18 34,10 32,10 						"/>
						<polygon class="st3" points="4,17 6,17 6,10 4,10 						"/>
						<polygon class="st3" points="16,16 18,16 18,14 16,14 						"/>
						<polygon class="st3" points="18,18 20,18 20,16 18,16 						"/>
						<polygon class="st3" points="20,24 22,24 22,22 20,22 						"/>
						<polygon class="st3" points="16,30 22,30 22,28 16,28 						"/>
						<polygon class="st3" points="6,8 11,8 11,6 6,6 						"/>
						<polygon class="st4" points="11,8 13,8 13,6 11,6 						"/>
					</g>
				</g>
			</g>
		</g>
	</g>
</g>
</svg>
