<?xml version="1.0" encoding="UTF-8"?>
<svg width="38px" height="31px" viewBox="0 0 38 31" version="1.1" xmlns="http://www.w3.org/2000/svg" xmlns:xlink="http://www.w3.org/1999/xlink">
    <title>Group 30</title>
    <g id="Events-✔" stroke="none" stroke-width="1" fill="none" fill-rule="evenodd">
        <g id="Eventdetail-–-Anmeldung" transform="translate(-73.000000, -3055.000000)">
            <g id="Group-22" transform="translate(58.000000, 2693.000000)">
                <g id="Group" transform="translate(0.000000, 316.000000)">
                    <g id="Group-30" transform="translate(15.000000, 46.000000)">
                        <g id="Group-26">
                            <polygon id="Fill-23" fill="#000000" points="36 29 38 29 38 7 36 7"></polygon>
                            <polygon id="Fill-7" fill="#000000" points="0 29 2 29 2 7 0 7"></polygon>
                            <polygon id="Fill-25" fill="#000000" points="2 31 36 31 36 29 2 29"></polygon>
                            <polygon id="Fill-4" fill="#000000" points="2 7 36 7 36 5 2 5"></polygon>
                            <polygon id="Fill-4" fill="#000000" points="13 5 15 5 15 2 13 2"></polygon>
                            <polygon id="Fill-4" fill="#000000" points="23 5 25 5 25 2 23 2"></polygon>
                            <polygon id="Fill-4" fill="#000000" points="15 2 23 2 23 0 15 0"></polygon>
                            <rect id="Rectangle" fill="#F3971B" x="2" y="7" width="34" height="22"></rect>
                            <polygon id="Fill-4" fill="#000000" points="7 30 9 30 9 7 7 7"></polygon>
                            <rect id="Rectangle" fill="#FFE713" x="7" y="13" width="2" height="2"></rect>
                            <polygon id="Fill-4" fill="#000000" points="29 29 31 29 31 6 29 6"></polygon>
                            <polygon id="Fill-4" fill="#00498C" points="15 27 16 27 16 26 15 26"></polygon>
                            <polygon id="Fill-4" fill="#00498C" points="14 22 15 22 15 21 14 21"></polygon>
                            <polygon id="Fill-4" fill="#00498C" points="13 25 18 25 18 24 13 24"></polygon>
                            <polygon id="Fill-4" fill="#00498C" points="12 24 17 24 17 23 12 23"></polygon>
                            <polygon id="Fill-4" fill="#00498C" points="14 26 17 26 17 25 14 25"></polygon>
                            <polygon id="Fill-4" fill="#00498C" points="13 23 16 23 16 22 13 22"></polygon>
                            <polygon id="Fill-4" fill="#00498C" points="17 25 18 25 18 24 17 24"></polygon>
                            <g id="Group-29" transform="translate(12.000000, 19.000000)" fill="#00498C">
                                <polygon id="Fill-4" points="4 1 5 1 5 0 4 0"></polygon>
                                <polygon id="Fill-4" points="3 4 8 4 8 3 3 3"></polygon>
                                <polygon id="Fill-4" points="2 3 7 3 7 2 2 2"></polygon>
                                <g id="Group-28" transform="translate(0.000000, 2.000000)">
                                    <polygon id="Fill-4" points="3 6 4 6 4 5 3 5"></polygon>
                                    <polygon id="Fill-4" points="2 1 3 1 3 0 2 0"></polygon>
                                    <polygon id="Fill-4" points="1 4 6 4 6 3 1 3"></polygon>
                                    <polygon id="Fill-4" points="0 3 5 3 5 2 0 2"></polygon>
                                    <polygon id="Fill-4" points="2 5 5 5 5 4 2 4"></polygon>
                                    <polygon id="Fill-4" points="1 2 4 2 4 1 1 1"></polygon>
                                </g>
                                <polygon id="Fill-4" points="4 5 7 5 7 4 4 4"></polygon>
                                <polygon id="Fill-4" points="3 2 6 2 6 1 3 1"></polygon>
                                <polygon id="Fill-4" points="3 8 4 8 4 7 3 7"></polygon>
                                <polygon id="Fill-4" points="1 6 6 6 6 5 1 5"></polygon>
                                <polygon id="Fill-4" points="2 7 5 7 5 6 2 6"></polygon>
                            </g>
                            <g id="Group-29" transform="translate(24.000000, 12.000000) rotate(90.000000) translate(-24.000000, -12.000000) translate(20.000000, 8.000000)" fill="#00498C">
                                <polygon id="Fill-4" points="4 1 5 1 5 0 4 0"></polygon>
                                <polygon id="Fill-4" points="3 4 8 4 8 3 3 3"></polygon>
                                <polygon id="Fill-4" points="2 3 7 3 7 2 2 2"></polygon>
                                <g id="Group-28" transform="translate(0.000000, 2.000000)">
                                    <polygon id="Fill-4" points="3 6 4 6 4 5 3 5"></polygon>
                                    <polygon id="Fill-4" points="2 1 3 1 3 0 2 0"></polygon>
                                    <polygon id="Fill-4" points="1 4 6 4 6 3 1 3"></polygon>
                                    <polygon id="Fill-4" points="0 3 5 3 5 2 0 2"></polygon>
                                    <polygon id="Fill-4" points="2 5 5 5 5 4 2 4"></polygon>
                                    <polygon id="Fill-4" points="1 2 4 2 4 1 1 1"></polygon>
                                </g>
                                <polygon id="Fill-4" points="4 5 7 5 7 4 4 4"></polygon>
                                <polygon id="Fill-4" points="3 2 6 2 6 1 3 1"></polygon>
                                <polygon id="Fill-4" points="3 8 4 8 4 7 3 7"></polygon>
                                <polygon id="Fill-4" points="1 6 6 6 6 5 1 5"></polygon>
                                <polygon id="Fill-4" points="2 7 5 7 5 6 2 6"></polygon>
                            </g>
                            <polygon id="Fill-4" fill="#00498C" points="14 22 15 22 15 21 14 21"></polygon>
                            <polygon id="Fill-4" fill="#00498C" points="12 24 17 24 17 23 12 23"></polygon>
                        </g>
                        <rect id="Rectangle" fill="#FFE713" x="29" y="13" width="2" height="2"></rect>
                    </g>
                </g>
            </g>
        </g>
    </g>
</svg>