<svg xmlns="http://www.w3.org/2000/svg" xmlns:xlink="http://www.w3.org/1999/xlink" x="0px" y="0px"
	 viewBox="0 0 497 367" style="enable-background:new 0 0 497 367;" xml:space="preserve">
<style type="text/css">
	.st0{fill:#2969B2;}
	.st1{fill:#E6414A;}
	.st2{fill:#FFD003;}
	.st3{fill:#00B48D;}
	.st4{fill:#D1D6DA;}
	.st5{fill:#FFFFFF;}
</style>
<title>Freundeskreis Nyan</title>
<rect id="Rechteck_129_2_" x="126" y="111" class="st0" width="18" height="18"/>
<rect id="Rechteck_162" x="126" y="157" class="st1" width="18" height="18"/>
<rect id="Rechteck_140" x="36" y="93" class="st0" width="18" height="18"/>
<rect id="Rechteck_153" x="36" y="139" class="st1" width="18" height="18"/>
<rect id="Rechteck_130_2_" x="162" y="111" class="st0" width="18" height="18"/>
<rect id="Rechteck_163" x="162" y="157" class="st1" width="18" height="18"/>
<rect id="Rechteck_142" x="72" y="93" class="st0" width="18" height="18"/>
<rect id="Rechteck_155" x="72" y="139" class="st1" width="18" height="18"/>
<rect id="Rechteck_131_2_" x="180" y="129" class="st0" width="18" height="18"/>
<rect id="Rechteck_165" x="180" y="175" class="st1" width="18" height="18"/>
<rect id="Rechteck_144" x="108" y="129" class="st0" width="18" height="18"/>
<rect id="Rechteck_156" x="108" y="175" class="st1" width="18" height="18"/>
<rect id="Rechteck_146" y="129" class="st0" width="18" height="18"/>
<rect id="Rechteck_158" y="175" class="st1" width="18" height="18"/>
<rect id="Rechteck_143" x="90" y="111" class="st0" width="18" height="18"/>
<rect id="Rechteck_159" x="90" y="157" class="st1" width="18" height="18"/>
<rect id="Rechteck_145" x="18" y="111" class="st0" width="18" height="18"/>
<rect id="Rechteck_160" x="18" y="157" class="st1" width="18" height="18"/>
<rect id="Rechteck_132_2_" x="144" y="93" class="st0" width="18" height="18"/>
<rect id="Rechteck_164" x="144" y="139" class="st1" width="18" height="18"/>
<rect id="Rechteck_141" x="54" y="75" class="st0" width="18" height="18"/>
<rect id="Rechteck_161" x="54" y="121" class="st1" width="18" height="18"/>
<g>
	<rect id="Rechteck_183" x="126" y="203" class="st2" width="18" height="18"/>
	<rect id="Rechteck_188" x="36" y="185" class="st2" width="18" height="18"/>
	<rect id="Rechteck_182" x="162" y="203" class="st2" width="18" height="18"/>
	<rect id="Rechteck_187" x="72" y="185" class="st2" width="18" height="18"/>
	<rect id="Rechteck_181" x="180" y="221" class="st2" width="18" height="18"/>
	<rect id="Rechteck_184" x="108" y="221" class="st2" width="18" height="18"/>
	<rect id="Rechteck_190" y="221" class="st2" width="18" height="18"/>
	<rect id="Rechteck_185" x="90" y="203" class="st2" width="18" height="18"/>
	<rect id="Rechteck_189" x="18" y="203" class="st2" width="18" height="18"/>
	<rect id="Rechteck_186" x="144" y="185" class="st2" width="18" height="18"/>
	<rect id="Rechteck_195" x="54" y="167" class="st2" width="18" height="18"/>
</g>
<rect id="Rechteck_133" y="294" class="st3" width="18" height="18"/>
<rect id="Rechteck_135" x="436" y="239" class="st0" width="18" height="18"/>
<rect x="63" y="280" class="st0" width="18" height="18"/>
<rect id="Rechteck_129" x="1" y="21" class="st1" width="18" height="18"/>
<rect x="234" y="330" class="st1" width="18" height="18"/>
<rect id="Rechteck_131" x="144" y="266" class="st2" width="18" height="18"/>
<rect x="479" y="12" class="st2" width="18" height="18"/>
<rect x="429" y="122" class="st2" width="18" height="18"/>
<rect id="Rechteck_132" x="153" y="12" class="st4" width="18" height="18"/>
<g id="Group-12" transform="translate(263.500000, 27.000000) scale(-1, -1) translate(-263.500000, -27.000000) translate(236.000000, 0.000000)">
	<rect id="Rechteck_129_1_" x="20.1" y="36" class="st1" width="18" height="18"/>
	<rect id="Rechteck_130_1_" x="20.1" class="st2" width="18.1" height="18"/>
	<rect id="Rechteck_131_1_" x="2.1" y="18" class="st4" width="18" height="18"/>
	<rect id="Rechteck_132_1_" x="38" y="18" class="st0" width="18" height="18"/>
</g>
<g transform="translate(385.000000, 313.000000)">
	<rect x="16.1" y="36" class="st2" width="18" height="18"/>
	<rect x="16.1" class="st3" width="18" height="18"/>
	<rect x="-2" y="18" class="st0" width="18" height="18"/>
	<rect x="34" y="18" class="st1" width="18" height="18"/>
</g>
<g id="Gruppe_388" transform="translate(200.000000, 85.000000)">
	<g id="Gruppe_228">
		<polygon id="Pfad_1128" class="st1" points="152,0 152,18 134,18 134,37 70,37 70,18 52,18 52,0 16,0 16,18 -2,18 -2,173 16,173
			16,191 34,191 34,209 170,209 170,191 188,191 188,173 206,173 206,18 188,18 188,0 		"/>
	</g>
</g>
<g>
	<path class="st5" d="M220.3,190.9h1.9V189h-1.9V190.9z M222.8,190.9h1.9V189h-1.9V190.9z M225.3,190.9h1.9V189h-1.9V190.9z
		 M235.2,190.9h1.9V189h-1.9V190.9z M237.7,190.9h1.9V189h-1.9V190.9z M240.2,190.9h1.9V189h-1.9V190.9z M250.1,190.9h1.9V189h-1.9
		V190.9z M252.6,190.9h1.9V189h-1.9V190.9z M255.1,190.9h1.9V189h-1.9V190.9z M265,190.9h1.9V189H265V190.9z M267.5,190.9h1.9V189
		h-1.9V190.9z M269.9,190.9h1.9V189h-1.9L269.9,190.9z M272.4,190.9h1.9V189h-1.9V190.9z M277.4,190.9h1.9V189h-1.9V190.9z
		 M287.3,190.9h1.9V189h-1.9V190.9z M292.3,190.9h1.9V189h-1.9L292.3,190.9z M294.8,190.9h1.9V189h-1.9V190.9z M297.3,190.9h1.8V189
		h-1.9L297.3,190.9z M299.7,190.9h1.9V189h-1.9V190.9z M314.8,190.9h1.9V189h-1.9V190.9z M324.7,190.9h1.9V189h-1.9V190.9z
		 M329.7,190.9h1.9V189h-1.9V190.9z M339.6,190.9h1.9V189h-1.9V190.9z M347.1,190.9h1.9V189h-1.9V190.9z M349.6,190.9h1.9V189h-1.9
		V190.9z M352.1,190.9h1.9V189h-1.9V190.9z M359.5,190.9h1.9V189h-1.9L359.5,190.9z M369.4,190.9h1.9V189h-1.9V190.9z M379.4,190.9
		h1.9V189h-1.9V190.9z M217.8,189.6h1.9v-1.9h-1.9V189.6z M227.7,189.6h1.9v-1.9h-1.9V189.6z M247.6,189.6h1.9v-1.9h-1.9V189.6z
		 M257.5,189.6h1.9v-1.9h-1.9V189.6z M262.5,189.6h1.9v-1.9h-1.9V189.6z M302.2,189.6h1.9v-1.9h-1.9V189.6z M344.6,189.6h1.9v-1.9
		h-1.9V189.6z M354.5,189.6h1.9v-1.9h-1.9L354.5,189.6z M232.7,188.4h1.9v-1.9h-1.9V188.4z M242.6,188.4h1.9v-1.9h-1.9L242.6,188.4z
		 M277.4,188.4h1.9v-1.9h-1.9V188.4z M287.3,188.4h1.9v-1.9h-1.9V188.4z M292.3,188.4h1.9v-1.9h-1.9V188.4z M314.8,188.4h1.9v-1.9
		h-1.9V188.4z M324.7,188.4h1.9v-1.9h-1.9V188.4z M329.7,188.4h1.9v-1.9h-1.9V188.4z M339.6,188.4h1.9v-1.9h-1.9V188.4z
		 M359.5,188.4h1.9v-1.9h-1.9L359.5,188.4z M366.9,188.4h1.9v-1.9h-1.9V188.4z M379.4,188.4h1.9v-1.9h-1.9V188.4z M217.8,187.1h1.9
		v-1.9h-1.9V187.1z M227.7,187.1h1.9v-1.9h-1.9V187.1z M247.6,187.1h1.9v-1.9h-1.9V187.1z M257.5,187.1h1.9v-1.9h-1.9V187.1z
		 M262.5,187.1h1.9v-1.9h-1.9V187.1z M302.2,187.1h1.9v-1.9h-1.9V187.1z M344.6,187.1h1.9v-1.9h-1.9V187.1z M232.7,185.9h1.9V184
		h-1.9V185.9z M242.6,185.9h1.9V184h-1.9L242.6,185.9z M277.4,185.9h1.9V184h-1.9V185.9z M284.8,185.9h1.9V184h-1.9L284.8,185.9z
		 M287.3,185.9h1.9V184h-1.9V185.9z M292.3,185.9h1.9V184h-1.9V185.9z M314.8,185.9h1.9V184h-1.9V185.9z M324.7,185.9h1.9V184h-1.9
		V185.9z M329.7,185.9h1.9V184h-1.9V185.9z M339.6,185.9h1.9V184h-1.9V185.9z M359.5,185.9h1.9V184h-1.9L359.5,185.9z M364.5,185.9
		h1.9V184h-1.9V185.9z M379.4,185.9h1.9V184h-1.9V185.9z M227.7,184.6h1.9v-1.9h-1.9V184.6z M247.6,184.6h1.9v-1.9h-1.9V184.6z
		 M252.6,184.6h1.9v-1.9h-1.9L252.6,184.6z M255.1,184.6h1.9v-1.9h-1.9V184.6z M257.5,184.6h1.9v-1.9h-1.9V184.6z M262.5,184.6h1.9
		v-1.9h-1.9V184.6z M302.2,184.6h1.9v-1.9h-1.9V184.6z M332.2,184.6h1.9v-1.9h-1.9V184.6z M334.7,184.6h1.9v-1.9h-1.9V184.6z
		 M337.2,184.6h1.9v-1.9h-1.9V184.6z M344.6,184.6h1.9v-1.9h-1.9V184.6z M232.7,183.4h1.9v-1.9h-1.9V183.4z M242.6,183.4h1.9v-1.9
		h-1.9L242.6,183.4z M265,183.4h1.9v-1.9H265V183.4z M267.5,183.4h1.9v-1.9h-1.9V183.4z M269.9,183.4h1.9v-1.9h-1.9V183.4z
		 M277.4,183.4h1.9v-1.9h-1.9V183.4z M282.4,183.4h1.9v-1.9h-1.9V183.4z M287.3,183.4h1.9v-1.9h-1.9V183.4z M292.3,183.4h1.9v-1.9
		h-1.9L292.3,183.4z M314.8,183.4h1.9v-1.9h-1.9V183.4z M317.3,183.4h1.9v-1.9h-1.9L317.3,183.4z M319.8,183.4h1.9v-1.9h-1.9V183.4z
		 M322.3,183.4h1.9v-1.9h-1.9V183.4z M324.7,183.4h1.9v-1.9h-1.9V183.4z M329.7,183.4h1.9v-1.9h-1.9V183.4z M339.6,183.4h1.9v-1.9
		h-1.9V183.4z M359.5,183.4h1.9v-1.9h-1.9L359.5,183.4z M362,183.4h1.9v-1.9H362V183.4z M379.4,183.4h1.9v-1.9h-1.9V183.4z
		 M227.7,182.1h1.9v-1.9h-1.9V182.1z M247.6,182.1h1.9v-1.9h-1.9V182.1z M262.5,182.1h1.9v-1.9h-1.9V182.1z M302.2,182.1h1.9v-1.9
		h-1.9V182.1z M344.6,182.1h1.9v-1.9h-1.9V182.1z M232.7,180.9h1.9V179h-1.9V180.9z M242.6,180.9h1.9V179h-1.9V180.9z M277.4,180.9
		h1.9V179h-1.9V180.9z M279.9,180.9h1.9V179h-1.9V180.9z M287.3,180.9h1.9V179h-1.9V180.9z M292.3,180.9h1.9V179h-1.8L292.3,180.9z
		 M314.8,180.9h1.9V179h-1.9V180.9z M324.7,180.9h1.9V179h-1.9V180.9z M329.7,180.9h1.9V179h-1.9V180.9z M339.6,180.9h1.9V179h-1.9
		V180.9z M359.5,180.9h1.9V179h-1.9L359.5,180.9z M364.5,180.9h1.9V179h-1.9V180.9z M379.4,180.9h1.9V179h-1.9V180.9z M227.7,179.6
		h1.9v-1.9h-1.9V179.6z M247.6,179.6h1.9v-1.9h-1.9V179.6z M262.5,179.6h1.9v-1.9h-1.9V179.6z M302.2,179.6h1.9v-1.9h-1.9V179.6z
		 M344.6,179.6h1.9v-1.9h-1.9V179.6z M217.8,178.4h1.9v-1.9h-1.9V178.4z M232.7,178.4h1.9v-1.9h-1.9V178.4z M242.6,178.4h1.9v-1.9
		h-1.9V178.4z M277.4,178.4h1.9v-1.9h-1.9V178.4z M287.3,178.4h1.9v-1.9h-1.9V178.4z M292.3,178.4h1.9v-1.9h-1.8L292.3,178.4z
		 M314.8,178.4h1.9v-1.9h-1.9V178.4z M324.7,178.4h1.9v-1.9h-1.9V178.4z M329.7,178.4h1.9v-1.9h-1.8L329.7,178.4z M339.6,178.4h1.9
		v-1.9h-1.9V178.4z M359.5,178.4h1.9v-1.9h-1.9L359.5,178.4z M366.9,178.4h1.9v-1.9h-1.9V178.4z M379.3,178.4h1.9v-1.9h-1.9V178.4z
		 M227.7,177.1h1.9v-1.9h-1.9V177.1z M247.6,177.1h1.9v-1.9h-1.9V177.1z M257.5,177.1h1.9v-1.9h-1.9V177.1z M262.5,177.1h1.9v-1.9
		h-1.9V177.1z M302.2,177.1h1.9v-1.9h-1.9V177.1z M344.6,177.1h1.9v-1.9h-1.9V177.1z M354.5,177.1h1.9v-1.9h-1.9L354.5,177.1z
		 M332.2,176.5h1.9v-1.9h-1.9V176.5z M337.2,176.5h1.9v-1.9h-1.9V176.5z M217.8,175.9h1.9V174h-1.9V175.9z M220.3,175.9h1.9V174
		h-1.9V175.9z M222.8,175.9h1.9V174h-1.9V175.9z M225.3,175.9h1.9V174h-1.9V175.9z M232.7,175.9h1.9V174h-1.9V175.9z M242.6,175.9
		h1.9V174h-1.9V175.9z M250.1,175.9h1.9V174h-1.8L250.1,175.9z M252.5,175.9h1.9V174h-1.8L252.5,175.9z M255,175.9h1.9V174h-1.8
		L255,175.9z M265,175.9h1.9V174H265L265,175.9z M267.4,175.9h1.9V174h-1.8L267.4,175.9z M269.9,175.9h1.9V174h-1.8L269.9,175.9z
		 M272.4,175.9h1.9V174h-1.9L272.4,175.9z M277.4,175.9h1.9V174h-1.9V175.9z M287.3,175.9h1.9V174h-1.9V175.9z M292.3,175.9h1.9V174
		h-1.8L292.3,175.9z M294.8,175.9h1.9V174h-1.8L294.8,175.9z M297.2,175.9h1.9V174h-1.9V175.9z M299.7,175.9h1.9V174h-1.9V175.9z
		 M314.8,175.9h1.9V174h-1.9V175.9z M324.7,175.9h1.9V174h-1.9V175.9z M334.7,175.9h1.9V174h-1.9V175.9z M347.1,175.9h1.9V174h-1.9
		V175.9z M349.6,175.9h1.9V174h-1.9V175.9z M352,175.9h1.9V174H352V175.9z M359.5,175.9h1.9V174h-1.9L359.5,175.9z M369.4,175.9h1.9
		V174h-1.9V175.9z M374.4,175.9h1.9V174h-1.9V175.9z M376.9,175.9h1.9V174h-1.9V175.9z M379.3,175.9h1.9V174h-1.9V175.9z
		 M381.8,175.9h1.9V174h-1.9V175.9z M384.3,175.9h1.9V174h-1.9L384.3,175.9z"/>
	<path class="st5" d="M375.2,210.2c1.5,1.4,3.4,2.2,5.5,2.2c3.4,0,5.5-2.1,5.5-4.5c0-2.2-1.3-3.4-3.1-4.1l-2.1-0.9
		c-1.3-0.5-2.4-1-2.4-2.2c0-1.1,0.9-1.8,2.4-1.8c1.2,0,2.4,0.5,3.3,1.3l1.4-1.7c-1.3-1.2-3-1.9-4.8-1.9c-3,0-5.1,1.9-5.1,4.3
		c0,2.2,1.6,3.4,3.1,4.1l2.1,0.9c1.4,0.6,2.4,1,2.4,2.2s-1,2-2.7,2c-1.5-0.1-2.9-0.7-4-1.7L375.2,210.2z M369.4,212.1h2.7v-15.3
		h-2.7V212.1z M356.7,212.1h9.4v-2.3h-6.7v-4.5h5.5V203h-5.5v-3.9h6.5v-2.3h-9.2V212.1z M353.9,212.1l-3.7-6.4
		c1.9-0.6,3.2-2.4,3.1-4.4c0-3.4-2.5-4.5-5.6-4.5h-5.1v15.3h2.7v-6h2.3l3.3,6H353.9z M345.2,199h2.2c2.1,0,3.2,0.6,3.2,2.4
		c0,1.8-1.1,2.6-3.2,2.6h-2.2V199z M328.4,212.1h2.7v-4.5l2.2-2.7l4.1,7.2h3l-5.5-9.3l4.7-6h-3l-5.5,7h-0.1v-7h-2.7V212.1z
		 M314.4,210.2c1.5,1.4,3.4,2.2,5.5,2.2c3.4,0,5.5-2.1,5.5-4.5c0-2.2-1.3-3.4-3.1-4.1l-2-0.9c-1.3-0.5-2.4-1-2.4-2.2
		c0-1.1,0.9-1.8,2.4-1.8c1.2,0,2.4,0.5,3.3,1.3l1.4-1.7c-1.3-1.2-3-1.9-4.8-1.9c-3,0-5.1,1.9-5.1,4.3c0,2.2,1.6,3.4,3.1,4.1l2.1,0.9
		c1.4,0.6,2.4,1,2.4,2.2s-1,2-2.7,2c-1.5-0.1-2.9-0.7-4-1.7L314.4,210.2z M302.7,212.1h9.4v-2.3h-6.7v-4.5h5.5V203h-5.5v-3.9h6.5
		v-2.3h-9.2V212.1z M290.6,209.9V199h1.2c3.1,0,4.9,1.6,4.9,5.4s-1.8,5.5-4.9,5.5H290.6z M287.9,212.1h4.2c4.5,0,7.3-2.6,7.3-7.7
		s-2.8-7.6-7.5-7.6h-4.1V212.1z M272.3,212.1h2.6v-6.7c0-1.7-0.2-3.6-0.3-5.2h0.1l1.6,3.3l4.8,8.6h2.8v-15.3h-2.6v6.7
		c0,1.7,0.2,3.7,0.3,5.2h-0.1l-1.6-3.3l-4.8-8.6h-2.8L272.3,212.1z M256.7,205.4c0,5,2.3,7,5.8,7c3.5,0,5.8-2,5.8-7v-8.6h-2.6v8.8
		c0,3.3-1.3,4.4-3.2,4.4c-1.9,0-3.1-1.1-3.1-4.4v-8.8h-2.7V205.4z M244.1,212.1h9.4v-2.3h-6.7v-4.5h5.5V203h-5.5v-3.9h6.5v-2.3h-9.2
		V212.1z M241.3,212.1l-3.6-6.4c1.9-0.6,3.2-2.4,3.1-4.4c0-3.4-2.5-4.5-5.6-4.5h-5.1v15.3h2.7v-6h2.3l3.3,6H241.3z M232.6,199h2.2
		c2.1,0,3.2,0.6,3.2,2.4c0,1.8-1.1,2.6-3.2,2.6h-2.2V199z M217.8,212.1h2.7v-6.4h5.6v-2.3h-5.6v-4.3h6.5v-2.3h-9.2V212.1z"/>
</g>
<rect id="Rechteck_130" x="344" y="49" class="st3" width="18" height="18"/>
</svg>
