<svg xmlns="http://www.w3.org/2000/svg" xmlns:xlink="http://www.w3.org/1999/xlink" x="0px" y="0px"
     viewBox="0 0 287.7 367.1" style="enable-background:new 0 0 287.7 367.1;" xml:space="preserve">
    <style type="text/css">
	.st0{fill:#FFD000;}
	.st1{fill:#FFFFFF;}
	.st2{fill:#010202;}
	.st3{fill:#00498B;}
	.st4{fill:#07A6DE;}
    </style>

    <rect x="39.7" y="129" class="st0" width="148.8" height="10"/>
    <rect x="39.7" y="119.1" class="st0" width="188.5" height="29.8"/>
    <rect x="39.7" y="99.2" class="st0" width="178.6" height="29.8"/>
    <rect x="59.5" y="0" class="st2" width="148.8" height="9.9"/>
    <rect x="49.6" y="10" class="st2" width="9.9" height="89.2"/>
    <polygon class="st2" points="208.3,99.2 59.5,99.2 59.5,89.3 208.3,89 "/>
    <rect x="208.3" y="10" class="st2" width="10" height="89.2"/>
    <rect x="59.5" y="9.9" class="st3" width="148.8" height="79.4"/>
    <rect x="39.7" y="99.2" class="st2" width="9.9" height="19.8"/>
    <rect x="59.5" y="109.1" class="st2" width="9.9" height="9.9"/>
    <rect x="79.4" y="109.1" class="st2" width="9.9" height="9.9"/>
    <rect x="99.2" y="109.1" class="st2" width="9.9" height="9.9"/>
    <rect x="119.1" y="109.1" class="st2" width="9.9" height="9.9"/>
    <rect x="138.9" y="109.1" class="st2" width="9.9" height="9.9"/>
    <rect x="158.7" y="109.1" class="st2" width="9.9" height="9.9"/>
    <rect x="178.6" y="109.1" class="st2" width="9.9" height="9.9"/>
    <rect x="69.4" y="138.9" class="st2" width="9.9" height="9.9"/>
    <rect x="89.3" y="129" class="st2" width="69.4" height="9.9"/>
    <rect x="188.5" y="129" class="st2" width="9.9" height="9.9"/>
    <rect x="218.3" y="99.2" class="st2" width="9.9" height="19.8"/>
    <rect x="228.2" y="119.1" class="st2" width="9.9" height="39.7"/>
    <rect x="89.3" y="148.8" class="st2" width="79.4" height="9.9"/>
    <rect x="19.8" y="198.4" class="st2" width="9.9" height="9.9"/>
    <rect y="178.6" class="st2" width="9.9" height="69.4"/>
    <rect x="29.8" y="307.6" width="49.6" height="9.9"/>
    <rect x="109.1" y="228.2" class="st2" width="9.9" height="19.8"/>
    <rect x="99.2" y="218.3" class="st2" width="9.9" height="9.9"/>
    <rect x="79.4" y="228.2" class="st2" width="19.8" height="9.9"/>
    <rect x="168.7" y="119.1" class="st2" width="9.9" height="9.9"/>
    <rect x="158.7" y="138.9" class="st2" width="9.9" height="9.9"/>
    <rect x="178.6" y="159" class="st2" width="9.9" height="29.9"/>
    <rect x="198.4" y="158.7" class="st2" width="9.9" height="29.8"/>
    <rect x="218.3" y="158.7" class="st2" width="9.9" height="29.8"/>
    <rect x="178.6" y="148.8" class="st2" width="9.9" height="9.9"/>
    <rect x="238.1" y="158.7" class="st2" width="9.9" height="39.7"/>
    <rect x="248" y="198.4" class="st2" width="9.9" height="49.6"/>
    <rect x="258" y="248" class="st2" width="9.9" height="9.9"/>
    <rect x="267.9" y="258" class="st2" width="9.9" height="9.9"/>
    <rect x="277.8" y="267.9" class="st2" width="9.9" height="9.9"/>
    <rect x="267.9" y="277.8" class="st2" width="9.9" height="9.9"/>
    <rect x="258" y="287.7" class="st2" width="9.9" height="9.9"/>
    <rect x="248" y="297.6" class="st2" width="9.9" height="9.9"/>
    <rect x="218.3" y="307.6" class="st2" width="29.8" height="9.9"/>
    <rect x="208.3" y="297.6" class="st2" width="9.9" height="9.9"/>
    <rect x="198.4" y="277.8" class="st2" width="9.9" height="19.8"/>
    <rect x="188.5" y="267.9" class="st2" width="9.9" height="9.9"/>
    <rect x="168.7" y="258" class="st2" width="19.8" height="9.9"/>
    <rect x="148.8" y="248" class="st2" width="19.8" height="9.9"/>
    <rect x="148.8" y="228.2" class="st2" width="9.9" height="29.8"/>
    <rect x="138.9" y="208.3" class="st2" width="9.9" height="9.9"/>
    <rect x="129" y="188.5" class="st2" width="9.9" height="9.9"/>
    <rect x="138.9" y="178.6" class="st2" width="9.9" height="9.9"/>
    <rect x="148.8" y="188.5" class="st2" width="9.9" height="9.9"/>
    <rect x="158.7" y="198.4" class="st2" width="9.9" height="9.9"/>
    <rect x="208.3" y="129" class="st2" width="9.9" height="9.9"/>
    <rect x="198.4" y="109.1" class="st2" width="9.9" height="9.9"/>
    <rect x="9.9" y="168.7" class="st2" width="9.9" height="9.9"/>
    <polygon class="st1" points="99.2,228.2 99.2,238.1 89.3,238.1 89.3,248 79.4,248 79.4,148.8 69.4,148.8 69.4,208.3 59.5,208.3 59.5,158.7 49.6,158.7 49.6,208.3 39.7,208.3 39.7,148.8 29.8,148.8 29.8,208.3 19.8,208.3 19.8,178.6 9.9,178.6 9.9,258 19.8,258 19.8,287.7 29.8,287.7 29.8,327.4 39.7,327.4 49.6,327.4 59.5,327.4 69.4,327.4 79.4,327.4 79.4,297.6 89.3,297.6 89.3,277.8 99.2,277.8 99.2,258 109.1,258 109.1,228.2 "/>
    <polygon class="st1" points="267.9,267.9 267.9,258 258,258 258,248 248,248 248,198.4 238.1,198.4 238.1,158.7 228.2,158.7 228.2,188.5 218.3,188.5 218.3,158.7 208.3,158.7 208.3,188.5 198.4,188.5 198.4,158.7 188.5,158.7 188.5,188.5 178.6,188.5 178.6,129 168.7,129 168.7,148.8 168.7,208.3 158.7,208.3 158.7,198.4 148.8,198.4 148.8,188.5 138.9,188.5 138.9,208.3 148.8,208.3 148.8,228.2 158.7,228.2 158.7,248 168.7,248 168.7,258 178.6,258 188.5,258 188.5,267.9 198.4,267.9 198.4,277.8 208.3,277.8 208.3,297.6 218.3,297.6 218.3,307.6 228.2,307.6 238.1,307.6 248,307.6 248,297.6 258,297.6 258,287.7 267.9,287.7 267.9,277.8 277.8,277.8 277.8,267.9 "/>
    <rect x="39.7" y="148.8" class="st2" width="9.9" height="9.9"/>
    <rect x="29.8" y="119.1" class="st2" width="9.9" height="19.8"/>
    <rect x="9.9" y="248" class="st2" width="9.9" height="29.8"/>
    <rect x="19.8" y="277.8" class="st2" width="9.9" height="49.6"/>
    <rect x="79.4" y="287.7" class="st2" width="9.9" height="39.7"/>
    <rect x="89.3" y="267.9" class="st2" width="9.9" height="19.8"/>
    <rect x="99.2" y="248" class="st2" width="9.9" height="19.8"/>
    <rect x="19.8" y="317.5" class="st2" width="69.4" height="9.9"/>
    <rect x="49.6" y="129" class="st2" width="9.9" height="9.9"/>
    <rect x="69.4" y="129" class="st2" width="9.9" height="9.9"/>

    <rect x="386.9" y="555.6" class="st2" width="9.9" height="9.9"/>
    <rect x="515.9" y="575.4" class="st2" width="9.9" height="9.9"/>
    <rect x="535.7" y="575.4" class="st2" width="9.9" height="9.9"/>
    <rect x="49.6" y="148.8" class="st2" width="9.9" height="9.9"/>
    <rect x="59.5" y="148.8" class="st2" width="9.9" height="9.9"/>
    <rect x="29.8" y="138.9" class="st2" width="9.9" height="9.9"/>
    <rect x="188.5" y="148.8" class="st2" width="9.9" height="9.9"/>
    <rect x="208.3" y="148.8" class="st2" width="9.9" height="9.9"/>
    <rect x="218.3" y="148.8" class="st2" width="9.9" height="9.9"/>
    <rect x="198.4" y="148.8" class="st2" width="9.9" height="9.9"/>
    <rect x="178.6" y="138.9" class="st2" width="9.9" height="9.9"/>
    <rect x="19.8" y="188.5" class="st2" width="9.9" height="9.9"/>
    <rect x="19.8" y="178.6" class="st2" width="9.9" height="9.9"/>
    <rect x="19.8" y="168.7" class="st2" width="9.9" height="9.9"/>
    <rect x="19.8" y="158.7" class="st2" width="9.9" height="9.9"/>
    <rect x="19.8" y="148.8" class="st2" width="9.9" height="9.9"/>
    <rect x="39.7" y="198.4" class="st2" width="9.9" height="9.9"/>
    <rect x="39.7" y="188.5" class="st2" width="9.9" height="9.9"/>
    <rect x="39.7" y="178.6" class="st2" width="9.9" height="9.9"/>
    <rect x="39.7" y="168.7" class="st2" width="9.9" height="9.9"/>
    <rect x="39.7" y="158.7" class="st2" width="9.9" height="9.9"/>
    <rect x="59.5" y="198.4" class="st2" width="9.9" height="9.9"/>
    <rect x="59.5" y="188.5" class="st2" width="9.9" height="9.9"/>
    <rect x="59.5" y="178.6" class="st2" width="9.9" height="9.9"/>
    <rect x="59.5" y="168.7" class="st2" width="9.9" height="9.9"/>
    <rect x="59.5" y="158.7" class="st2" width="9.9" height="9.9"/>
    <rect x="79.4" y="198.4" class="st2" width="9.9" height="9.9"/>
    <rect x="79.4" y="188.5" class="st2" width="9.9" height="9.9"/>
    <rect x="79.4" y="178.6" class="st2" width="9.9" height="9.9"/>
    <rect x="79.4" y="168.7" class="st2" width="9.9" height="9.9"/>
    <rect x="79.4" y="158.7" class="st2" width="9.9" height="9.9"/>
    <rect x="79.4" y="208.3" class="st2" width="9.9" height="9.9"/>
    <rect x="79.4" y="218.3" class="st2" width="9.9" height="9.9"/>
    <rect x="79.4" y="148.8" class="st2" width="9.9" height="9.9"/>
    <rect x="158.7" y="129" class="st2" width="9.9" height="9.9"/>
    <rect x="158.7" y="188.5" class="st2" width="9.9" height="9.9"/>
    <rect x="158.7" y="178.6" class="st2" width="9.9" height="9.9"/>
    <rect x="158.7" y="168.7" class="st2" width="9.9" height="9.9"/>
    <rect x="158.7" y="158.7" class="st2" width="9.9" height="9.9"/>
    <rect x="129" y="198.4" class="st2" width="9.9" height="9.9"/>
    <rect x="138.9" y="218.3" class="st2" width="9.9" height="9.9"/>
    <rect x="79.4" class="st2" width="9.9" height="9.9" y="238.2"/>
</svg>
