<svg id="Ebene_1" data-name="Ebene 1" xmlns="http://www.w3.org/2000/svg" viewBox="0 0 84 168">
  <defs>
    <style>
      .cls-1 {
        fill: #00a6de;
      }
    </style>
  </defs>
  <title>Zeichenfläche 1</title>
  <polygon class="cls-1" points="14 0 14 7 7 7 7 14 0 14 0 77 7 77 7 84 14 84 14 91 21 91 21 98 28 98 28 105 35 105 35 112 28 112 28 119 21 119 21 126 14 126 14 168 21 168 21 147 28 147 28 168 56 168 56 147 63 147 63 168 70 168 70 126 63 126 63 119 56 119 56 112 49 112 49 105 56 105 56 98 63 98 63 91 70 91 70 84 77 84 77 77 84 77 84 14 77 14 77 7 70 7 70 0 14 0 14 0"/>
  <path d="M28,70h3.5V66.5H28v-7H24.5V56H14v3.5H10.5V63H14v3.5h3.5V70Zm7,14h3.5V80.5H35V84Zm10.5,0H49V80.5H45.5V84Zm7,7h-21v3.5h21V91Zm21-28V59.5H70V56H59.5v3.5H56v7H52.5V70h14V66.5H70V63Z"/>
</svg>
