<svg id="Ebene_1" data-name="Ebene 1" xmlns="http://www.w3.org/2000/svg" viewBox="0 0 112 168">
  <defs>
    <style>
      .cls-1 {
        fill: #00a6de;
      }

      .cls-2 {
        fill: #00b48d;
      }
    </style>
  </defs>
  <title>Zeichenfläche 1</title>
  <polygon class="cls-1" points="105 28 105 21 98 21 98 14 91 14 91 7 84 7 84 0 28 0 28 7 21 7 21 14 14 14 14 21 7 21 7 28 0 28 0 133 7 133 7 140 14 140 14 147 28 147 28 161 35 161 35 168 77 168 77 161 84 161 84 147 98 147 98 140 105 140 105 133 112 133 112 28 105 28"/>
  <path class="cls-2" d="M63,98H49V91H63v7Zm42-21V49H63v7H49V49H7V77h7v7h7v7H42v14H28v28H84V105H70V91H91V84h7V77Z"/>
  <path d="M42,73.5h3.5v-7h-7V63H14v3.5h3.5V70H21v3.5h3.5V77H42V73.5ZM66.5,119H63v-3.5H49V119H45.5v7H49v3.5H63V126h3.5v-7ZM98,66.5V63H73.5v3.5h-7v7H70V77H87.5V73.5H91V70h3.5V66.5Z"/>
</svg>
