<svg id="Ebene_1" data-name="Ebene 1" xmlns="http://www.w3.org/2000/svg" viewBox="0 0 105 196">
  <defs>
    <style>
      .cls-1 {
        fill: #00a6de;
      }

      .cls-2 {
        fill: #fff;
      }

      .cls-3 {
        fill: #00b48d;
      }

      .cls-4 {
        fill: #ea680c;
      }
    </style>
  </defs>
  <title>Zeichenfläche 1</title>
  <path d="M21,196h7V185.5H21ZM0,185.5H7V10.5H0Zm21-175h7V0H21Z"/>
  <polygon class="cls-1" points="28 0 28 10.5 7 10.5 7 185.5 28 185.5 28 196 84 196 84 185.5 105 185.5 105 10.5 84 10.5 84 0 28 0"/>
  <polygon class="cls-2" points="70 24.5 63 24.5 63 19.25 56 19.25 49 19.25 49 24.5 42 24.5 42 77 49 77 49 82.25 56 82.25 63 82.25 63 77 70 77 70 24.5"/>
  <path d="M70,77H63v5.25H49V77H42V24.5h7V19.25H63V24.5h7V77Zm3.5,3.5V21h-7V15.75h-21V21h-7V80.5h7v5.25h21V80.5Z"/>
  <rect class="cls-3" x="50.75" y="28" width="10.5" height="42"/>
  <rect x="50.75" y="45.5" width="10.5" height="10.5"/>
  <rect class="cls-2" x="56" y="47.25" width="3.5" height="3.5"/>
  <path d="M22.75,120.75h66.5v-17.5H22.75Zm66.5,27.87H22.75v17.5h66.5Z"/>
  <path class="cls-4" d="M22.75,103.25h66.5V98H22.75Zm0,0H17.5v17.5h5.25Zm66.5,17.5H22.75V126h66.5Zm0,0H94.5v-17.5H89.25Zm-66.5,27.87h66.5v-5.25H22.75Zm0,0H17.5v17.5h5.25Zm66.5,17.5H22.75v5.25h66.5Zm5.25-17.5H89.25v17.5H94.5Z"/>
  <path class="cls-2" d="M26.25,106.75H35v-3.5H26.25Zm0,14H35v-3.5H26.25Zm0,31.37H35v-3.5H26.25Zm0,14H35v-3.5H26.25Zm12.69-59.37h8.75v-3.5H38.94Zm0,14h8.75v-3.5H38.94Zm0,31.37h8.75v-3.5H38.94Zm0,14h8.75v-3.5H38.94Zm12.69-59.37h8.75v-3.5H51.63Zm0,14h8.75v-3.5H51.63Zm0,31.37h8.75v-3.5H51.63Zm0,14h8.75v-3.5H51.63Zm12.68-59.37h8.75v-3.5H64.31Zm0,14h8.75v-3.5H64.31Zm0,31.37h8.75v-3.5H64.31Zm0,14h8.75v-3.5H64.31ZM77,106.75h8.75v-3.5H77Zm0,14h8.75v-3.5H77Zm0,31.37h8.75v-3.5H77Zm8.75,10.5H77v3.5h8.75Z"/>
</svg>
