<?xml version="1.0" encoding="utf-8"?>
<!-- Generator: Adobe Illustrator 23.0.6, SVG Export Plug-In . SVG Version: 6.00 Build 0)  -->
<svg version="1.1" id="Ebene_1" xmlns="http://www.w3.org/2000/svg" xmlns:xlink="http://www.w3.org/1999/xlink" x="0px" y="0px"
	 viewBox="0 0 328.04 123.38" style="enable-background:new 0 0 328.04 123.38;" xml:space="preserve">
<style type="text/css">
	.st0{fill:#00A6DE;}
	.st1{fill:#FFD003;}
	.st2{fill:#5DEA48;}
	.st3{fill:#00B48D;}
	.st4{fill:#FFFFFF;}
</style>
<g>
	<rect x="293.12" y="43.75" class="st0" width="5.25" height="5.25"/>
	<rect x="303.62" y="39.38" class="st0" width="5.25" height="5.25"/>
	<rect x="308" y="48.12" class="st0" width="5.25" height="5.25"/>
	<rect x="319.38" y="46.38" class="st0" width="5.25" height="5.25"/>
	<rect x="318.5" y="58.62" class="st0" width="5.25" height="5.25"/>
	<rect x="301.88" y="56.88" class="st0" width="5.25" height="5.25"/>
	<rect x="302.75" y="69.12" class="st0" width="5.25" height="5.25"/>
	<rect x="312.38" y="67.38" class="st0" width="5.25" height="5.25"/>
	<rect x="321.12" y="70.88" class="st0" width="5.25" height="5.25"/>
	<rect x="317.62" y="81.38" class="st0" width="5.25" height="5.25"/>
	<rect x="308" y="78.75" class="st0" width="5.25" height="5.25"/>
	<rect x="297.5" y="84" class="st0" width="5.25" height="5.25"/>
	<rect x="307.12" y="91.88" class="st0" width="5.25" height="5.25"/>
	<rect x="295.75" y="96.25" class="st0" width="5.25" height="5.25"/>
	<rect x="288.75" y="107.62" class="st0" width="3.5" height="3.5"/>
	<rect x="285.25" y="96.25" class="st0" width="3.5" height="3.5"/>
</g>
<title>Zeichenfläche 1</title>
<polygon class="st1" points="301.88,5.25 301.88,10.5 296.62,10.5 296.62,15.75 291.38,15.75 291.38,21 238,21 238,15.75 
	232.75,15.75 232.75,10.5 227.5,10.5 227.5,5.25 222.25,5.25 222.25,10.5 217,10.5 217,15.75 197.75,15.75 197.75,10.5 192.5,10.5 
	192.5,5.25 187.25,5.25 187.25,10.5 182,10.5 182,15.75 176.75,15.75 176.75,42 182,42 182,47.25 187.25,47.25 187.25,52.5 
	192.5,52.5 192.5,57.75 213.5,57.75 213.5,75.25 221.38,75.25 221.38,64.75 238.88,64.75 238.88,75.25 246.75,75.25 246.75,64.75 
	275.62,64.75 275.62,75.25 283.5,75.25 283.5,64.75 294,64.75 294,56 283.5,56 283.5,33.25 296.62,33.25 296.62,28 301.88,28 
	301.88,22.75 307.12,22.75 307.12,17.5 312.38,17.5 312.38,5.25 "/>
<rect x="188.5" y="26.75" width="4" height="5"/>
<rect x="188.5" y="31.75" width="4" height="4"/>
<rect x="222.5" y="31.75" class="st2" width="5" height="4"/>
<rect x="176.75" y="10.5" width="5.25" height="5.25"/>
<rect x="192.5" y="5.25" width="5.25" height="5.25"/>
<rect x="182" y="5.25" width="5.25" height="5.25"/>
<rect x="197.75" y="10.5" width="19.25" height="5.25"/>
<rect x="187.25" width="5.25" height="5.25"/>
<polyline points="171.5,42 176.75,42 176.75,34.75 176.75,15.75 171.5,15.75 "/>
<rect x="176.75" y="42" width="5.25" height="5.25"/>
<rect x="182" y="47.25" width="5.25" height="5.25"/>
<rect x="203.88" y="50.75" class="st3" width="5.25" height="5.25"/>
<polygon class="st0" points="157.5,15.75 157.5,10.5 147,10.5 147,5.25 100.62,5.25 100.62,10.5 90.12,10.5 90.12,15.75 
	84.88,15.75 84.88,21 40.25,21 40.25,15.75 35,15.75 35,10.5 25.38,10.5 25.38,18.38 30.62,18.38 30.62,27.12 35.88,27.12 
	35.88,32.38 50.75,32.38 50.75,56 40.25,56 40.25,63 50.75,63 50.75,72.62 57.75,72.62 57.75,63 89.25,63 89.25,72.62 96.25,72.62 
	96.25,63 112,63 112,72.62 119,72.62 119,52.5 135.62,52.5 135.62,47.25 140.88,47.25 140.88,42 146.12,42 146.12,36.75 
	151.38,36.75 151.38,49 157.5,49 157.5,43.75 162.75,43.75 162.75,15.75 "/>
<rect x="233.62" y="64.75" width="5.25" height="15.75"/>
<g>
	<polygon points="226.62,64.75 221.38,64.75 221.38,70 221.38,75.25 213.5,75.25 213.5,63 213.5,57.75 192.5,57.75 192.5,52.5 
		187.25,52.5 187.25,57.75 187.25,63 208.25,63 208.25,75.25 208.25,80.5 221.38,80.5 226.62,80.5 226.62,75.25 226.62,70 
		238.88,70 238.88,64.75 	"/>
	<path d="M289.62,50.75V38.5h7v-5.25H283.5V35v3.5v26.25V70v5.25h-7.88V70v-5.25v0h-28.88v0V70v5.25h-13.12v5.25h13.12H252v-5.25V70
		h18.38v5.25v5.25h5.25h7.88h5.25h0.88V70H294h1.75h3.5V56v-1.75v-3.5H289.62z M294,64.75h-4.38V56H294V64.75z"/>
</g>
<rect x="296.62" y="28" width="5.25" height="5.25"/>
<rect x="301.88" y="22.75" width="5.25" height="5.25"/>
<rect x="307.12" y="17.5" width="5.25" height="5.25"/>
<rect x="312.38" y="5.25" width="5.25" height="12.25"/>
<rect x="301.62" width="10.76" height="5.25"/>
<rect x="296.62" y="5.25" width="5.25" height="5.25"/>
<rect x="291.38" y="10.5" width="5.25" height="5.25"/>
<rect x="217" y="5.25" width="5.25" height="5.25"/>
<rect x="222.25" y="0" width="5.25" height="5.25"/>
<rect x="227.5" y="5.25" width="5.25" height="5.25"/>
<rect x="232.75" y="10.5" width="5.25" height="5.25"/>
<polygon points="291.38,15.75 243.25,15.75 241.5,15.75 238,15.75 238,42 243.25,42 243.25,21 291.38,21 "/>
<polygon points="222.25,31.5 222.25,26.25 217,26.25 217,31.5 217,36.75 227.5,36.75 227.5,31.5 "/>
<rect x="222.25" y="26.25" class="st4" width="5.25" height="5.25"/>
<rect x="187.25" y="26.25" width="5.25" height="5.25"/>
<rect x="187.25" y="31.5" width="10.5" height="5.25"/>
<rect x="192.5" y="26.25" class="st4" width="5.25" height="5.25"/>
<rect x="233.62" y="42" width="4.38" height="4.38"/>
<rect x="229.25" y="46.38" width="4.38" height="5.25"/>
<rect x="224.88" y="51.62" width="4.38" height="5.25"/>
<rect x="203.88" y="39.38" width="5.25" height="5.25"/>
<rect x="205.62" y="44.62" width="1.75" height="1.75"/>
<rect x="203" y="46.38" width="2.62" height="4.38"/>
<rect x="200.38" y="50.75" width="2.62" height="2.24"/>
<rect x="207.38" y="46.38" width="2.62" height="4.38"/>
<rect x="210" y="50.75" width="2.62" height="2.24"/>
<polyline points="162.75,43.75 168,43.75 168,36.02 168,15.75 162.75,15.75 "/>
<rect x="157.5" y="10.5" width="5.25" height="5.25"/>
<rect x="147" y="5.25" width="10.5" height="5.25"/>
<rect x="100.62" y="0" width="46.38" height="5.25"/>
<rect x="90.12" y="5.25" width="10.5" height="5.25"/>
<rect x="84.88" y="10.5" width="5.25" height="5.25"/>
<rect x="40.25" y="15.75" width="44.62" height="5.25"/>
<rect x="35" y="10.5" width="5.25" height="5.25"/>
<rect x="25.38" y="5.25" width="9.62" height="5.25"/>
<polyline points="20.12,18.38 25.38,18.38 25.38,16.2 25.38,10.5 20.12,10.5 "/>
<rect x="25.38" y="18.38" width="5.25" height="8.75"/>
<rect x="30.62" y="27.12" width="5.25" height="5.25"/>
<rect x="35.88" y="32.38" width="14.88" height="5.25"/>
<rect x="45.5" y="37.62" width="5.25" height="35"/>
<rect x="45.5" y="72.62" width="17.5" height="5.25"/>
<rect x="57.75" y="63" width="5.25" height="9.62"/>
<rect x="61.25" y="63" width="28" height="5.25"/>
<rect x="84" y="63" width="5.25" height="9.62"/>
<rect x="96.25" y="63" width="5.25" height="9.62"/>
<rect x="106.75" y="63" width="5.25" height="9.62"/>
<rect x="119" y="52.5" width="5.25" height="20.12"/>
<rect x="106.75" y="72.62" width="17.5" height="5.25"/>
<rect x="84" y="72.62" width="17.5" height="5.25"/>
<rect x="96.25" y="63" width="14" height="5.25"/>
<rect x="106.75" y="52.5" width="28.88" height="5.25"/>
<rect x="135.62" y="47.25" width="5.25" height="5.25"/>
<rect x="140.88" y="42" width="5.25" height="5.25"/>
<rect x="146.12" y="36.75" width="5.25" height="17.5"/>
<rect x="151.38" y="49" width="11.38" height="5.25"/>
<rect x="157.5" y="43.75" width="5.25" height="5.25"/>
<polygon class="st4" points="133.88,23.62 133.88,18.38 128.62,18.38 128.62,23.62 128.62,28.88 133.88,28.88 139.12,28.88 
	139.12,23.62 "/>
<rect x="133.88" y="18.38" width="5.25" height="5.25"/>
<polygon class="st4" points="109.38,23.62 109.38,18.38 104.12,18.38 104.12,23.62 104.12,28.88 109.38,28.88 114.62,28.88 
	114.62,23.62 "/>
<rect x="109.38" y="18.38" width="5.25" height="5.25"/>
<g>
	<rect x="119" y="32.76" width="5.25" height="5.25"/>
	<rect x="120.75" y="38.01" width="1.75" height="1.75"/>
	<rect x="118.12" y="39.76" width="2.62" height="4.38"/>
	<rect x="115.5" y="44.14" width="2.62" height="2.24"/>
	<rect x="122.5" y="39.76" width="2.62" height="4.38"/>
	<rect x="125.12" y="44.14" width="2.62" height="2.24"/>
</g>
<rect x="40.25" y="50.75" width="5.25" height="5.25"/>
<rect x="40.25" y="63" width="5.25" height="5.25"/>
<rect x="35" y="50.75" width="5.25" height="17.5"/>
<g>
	<path class="st0" d="M69.12,107.22h1.65v1.65h-1.65V107.22z M71.33,101.72h1.65v1.65h-1.65V101.72z M71.33,103.92h1.65v1.65h-1.65
		V103.92z M71.33,106.13h1.65v1.65h-1.65V106.13z M71.33,108.32h1.65v1.65h-1.65V108.32z M71.33,110.52h1.65v1.65h-1.65V110.52z
		 M71.33,112.72h1.65v1.65h-1.65V112.72z M73.53,100.63h1.65v1.65h-1.65V100.63z M73.53,113.82h1.65v1.65h-1.65V113.82z
		 M75.72,100.63h1.65v1.65h-1.65V100.63z M75.72,113.82h1.65v1.65h-1.65V113.82z"/>
	<path class="st0" d="M80.12,100.63h1.65v1.65h-1.65V100.63z M82.33,100.63h1.65v1.65h-1.65V100.63z M84.53,100.63h1.65v1.65h-1.65
		V100.63z M84.53,102.82h1.65v1.65h-1.65V102.82z M84.53,105.02h1.65v1.65h-1.65V105.02z M84.53,107.22h1.65v1.65h-1.65V107.22z
		 M84.53,109.42h1.65v1.65h-1.65V109.42z M84.53,111.63h1.65v1.65h-1.65V111.63z M84.53,113.82h1.65v1.65h-1.65V113.82z
		 M86.72,100.63h1.65v1.65h-1.65V100.63z M88.92,100.63h1.65v1.65h-1.65V100.63z"/>
	<path class="st0" d="M93.33,100.63h1.65v1.65h-1.65V100.63z M95.53,100.63h1.65v1.65h-1.65V100.63z M97.73,100.63h1.65v1.65h-1.65
		V100.63z M97.73,102.82h1.65v1.65h-1.65V102.82z M97.73,105.02h1.65v1.65h-1.65V105.02z M97.73,107.22h1.65v1.65h-1.65V107.22z
		 M97.73,109.42h1.65v1.65h-1.65V109.42z M97.73,111.63h1.65v1.65h-1.65V111.63z M97.73,113.82h1.65v1.65h-1.65V113.82z
		 M99.92,100.63h1.65v1.65h-1.65V100.63z M102.12,100.63h1.65v1.65h-1.65V100.63z"/>
	<path class="st0" d="M106.53,105.02h1.65v1.65h-1.65V105.02z M106.53,118.22h1.65v1.65h-1.65V118.22z M108.73,100.63h1.65v1.65
		h-1.65V100.63z M108.73,105.02h1.65v1.65h-1.65V105.02z M108.73,118.22h1.65v1.65h-1.65V118.22z M110.93,105.02h1.65v1.65h-1.65
		V105.02z M110.93,107.22h1.65v1.65h-1.65V107.22z M110.93,109.42h1.65v1.65h-1.65V109.42z M110.93,111.63h1.65v1.65h-1.65V111.63z
		 M110.93,113.82h1.65v1.65h-1.65V113.82z M110.93,116.02h1.65v1.65h-1.65V116.02z"/>
	<path class="st0" d="M115.33,106.13h1.65v1.65h-1.65V106.13z M115.33,108.32h1.65v1.65h-1.65V108.32z M115.33,110.52h1.65v1.65
		h-1.65V110.52z M115.33,112.72h1.65v1.65h-1.65V112.72z M117.53,105.02h1.65v1.65h-1.65V105.02z M117.53,113.82h1.65v1.65h-1.65
		V113.82z M119.73,105.02h1.65v1.65h-1.65V105.02z M119.73,113.82h1.65v1.65h-1.65V113.82z M121.92,105.02h1.65v1.65h-1.65V105.02z
		 M121.92,107.22h1.65v1.65h-1.65V107.22z M121.92,109.42h1.65v1.65h-1.65V109.42z M121.92,111.63h1.65v1.65h-1.65V111.63z
		 M121.92,113.82h1.65v1.65h-1.65V113.82z M121.92,116.02h1.65v1.65h-1.65V116.02z M121.92,118.22h1.65v1.65h-1.65V118.22z"/>
	<path class="st0" d="M126.33,105.02h1.65v1.65h-1.65V105.02z M126.33,107.22h1.65v1.65h-1.65V107.22z M126.33,109.42h1.65v1.65
		h-1.65V109.42z M126.33,111.63h1.65v1.65h-1.65V111.63z M128.53,113.82h1.65v1.65h-1.65V113.82z M130.73,113.82h1.65v1.65h-1.65
		V113.82z M132.92,105.02h1.65v1.65h-1.65V105.02z M132.92,107.22h1.65v1.65h-1.65V107.22z M132.92,109.42h1.65v1.65h-1.65V109.42z
		 M132.92,111.63h1.65v1.65h-1.65V111.63z"/>
	<path class="st0" d="M137.33,106.13h1.65v1.65h-1.65V106.13z M137.33,108.32h1.65v1.65h-1.65V108.32z M137.33,110.52h1.65v1.65
		h-1.65V110.52z M137.33,112.72h1.65v1.65h-1.65V112.72z M139.53,105.02h1.65v1.65h-1.65V105.02z M139.53,109.42h1.65v1.65h-1.65
		V109.42z M139.53,113.82h1.65v1.65h-1.65V113.82z M141.73,105.02h1.65v1.65h-1.65V105.02z M141.73,109.42h1.65v1.65h-1.65V109.42z
		 M141.73,113.82h1.65v1.65h-1.65V113.82z M143.92,106.13h1.65v1.65h-1.65V106.13z M143.92,108.32h1.65v1.65h-1.65V108.32z
		 M143.92,112.72h1.65v1.65h-1.65V112.72z"/>
	<path class="st0" d="M148.33,105.02h1.65v1.65h-1.65V105.02z M148.33,107.22h1.65v1.65h-1.65V107.22z M148.33,109.42h1.65v1.65
		h-1.65V109.42z M148.33,111.63h1.65v1.65h-1.65V111.63z M148.33,113.82h1.65v1.65h-1.65V113.82z M150.53,106.13h1.65v1.65h-1.65
		V106.13z M152.73,105.02h1.65v1.65h-1.65V105.02z M154.92,106.13h1.65v1.65h-1.65V106.13z"/>
	<path class="st0" d="M159.33,105.02h1.65v1.65h-1.65V105.02z M159.33,107.22h1.65v1.65h-1.65V107.22z M159.33,109.42h1.65v1.65
		h-1.65V109.42z M159.33,111.63h1.65v1.65h-1.65V111.63z M161.53,113.82h1.65v1.65h-1.65V113.82z M161.53,118.22h1.65v1.65h-1.65
		V118.22z M163.73,113.82h1.65v1.65h-1.65V113.82z M163.73,118.22h1.65v1.65h-1.65V118.22z M165.92,105.02h1.65v1.65h-1.65V105.02z
		 M165.92,107.22h1.65v1.65h-1.65V107.22z M165.92,109.42h1.65v1.65h-1.65V109.42z M165.92,111.63h1.65v1.65h-1.65V111.63z
		 M165.92,113.82h1.65v1.65h-1.65V113.82z M165.92,116.02h1.65v1.65h-1.65V116.02z"/>
	<path class="st0" d="M183.53,101.72h1.65v1.65h-1.65V101.72z M183.53,103.92h1.65v1.65h-1.65V103.92z M183.53,106.13h1.65v1.65
		h-1.65V106.13z M183.53,108.32h1.65v1.65h-1.65V108.32z M183.53,110.52h1.65v1.65h-1.65V110.52z M183.53,112.72h1.65v1.65h-1.65
		V112.72z M185.73,100.63h1.65v1.65h-1.65V100.63z M185.73,113.82h1.65v1.65h-1.65V113.82z M187.93,100.63h1.65v1.65h-1.65V100.63z
		 M187.93,113.82h1.65v1.65h-1.65V113.82z"/>
	<path class="st0" d="M192.33,105.02h1.65v1.65h-1.65V105.02z M192.33,107.22h1.65v1.65h-1.65V107.22z M192.33,109.42h1.65v1.65
		h-1.65V109.42z M192.33,111.63h1.65v1.65h-1.65V111.63z M194.53,113.82h1.65v1.65h-1.65V113.82z M196.73,108.32h1.65v1.65h-1.65
		V108.32z M196.73,110.52h1.65v1.65h-1.65V110.52z M196.73,112.72h1.65v1.65h-1.65V112.72z M198.92,113.82h1.65v1.65h-1.65V113.82z
		 M201.12,105.02h1.65v1.65h-1.65V105.02z M201.12,107.22h1.65v1.65h-1.65V107.22z M201.12,109.42h1.65v1.65h-1.65V109.42z
		 M201.12,111.63h1.65v1.65h-1.65V111.63z"/>
	<path class="st0" d="M205.53,105.02h1.65v1.65h-1.65V105.02z M205.53,113.82h1.65v1.65h-1.65V113.82z M207.73,100.63h1.65v1.65
		h-1.65V100.63z M207.73,105.02h1.65v1.65h-1.65V105.02z M207.73,107.22h1.65v1.65h-1.65V107.22z M207.73,109.42h1.65v1.65h-1.65
		V109.42z M207.73,111.63h1.65v1.65h-1.65V111.63z M207.73,113.82h1.65v1.65h-1.65V113.82z M209.93,113.82h1.65v1.65h-1.65V113.82z"
		/>
	<path class="st0" d="M214.33,105.02h1.65v1.65h-1.65V105.02z M214.33,107.22h1.65v1.65h-1.65V107.22z M214.33,109.42h1.65v1.65
		h-1.65V109.42z M214.33,111.63h1.65v1.65h-1.65V111.63z M214.33,113.82h1.65v1.65h-1.65V113.82z M216.53,106.13h1.65v1.65h-1.65
		V106.13z M218.73,105.02h1.65v1.65h-1.65V105.02z M220.92,107.22h1.65v1.65h-1.65V107.22z M220.92,109.42h1.65v1.65h-1.65V109.42z
		 M220.92,111.63h1.65v1.65h-1.65V111.63z M220.92,113.82h1.65v1.65h-1.65V113.82z"/>
	<path class="st0" d="M225.33,106.13h1.65v1.65h-1.65V106.13z M225.33,108.32h1.65v1.65h-1.65V108.32z M225.33,110.52h1.65v1.65
		h-1.65V110.52z M225.33,112.72h1.65v1.65h-1.65V112.72z M227.53,105.02h1.65v1.65h-1.65V105.02z M227.53,113.82h1.65v1.65h-1.65
		V113.82z M229.73,105.02h1.65v1.65h-1.65V105.02z M229.73,113.82h1.65v1.65h-1.65V113.82z M231.92,100.63h1.65v1.65h-1.65V100.63z
		 M231.92,102.82h1.65v1.65h-1.65V102.82z M231.92,105.02h1.65v1.65h-1.65V105.02z M231.92,107.22h1.65v1.65h-1.65V107.22z
		 M231.92,109.42h1.65v1.65h-1.65V109.42z M231.92,111.63h1.65v1.65h-1.65V111.63z M231.92,113.82h1.65v1.65h-1.65V113.82z"/>
	<path class="st0" d="M236.33,106.13h1.65v1.65h-1.65V106.13z M236.33,108.32h1.65v1.65h-1.65V108.32z M236.33,110.52h1.65v1.65
		h-1.65V110.52z M236.33,112.72h1.65v1.65h-1.65V112.72z M238.53,105.02h1.65v1.65h-1.65V105.02z M238.53,113.82h1.65v1.65h-1.65
		V113.82z M240.73,105.02h1.65v1.65h-1.65V105.02z M240.73,113.82h1.65v1.65h-1.65V113.82z M242.92,106.13h1.65v1.65h-1.65V106.13z
		 M242.92,108.32h1.65v1.65h-1.65V108.32z M242.92,110.52h1.65v1.65h-1.65V110.52z M242.92,112.72h1.65v1.65h-1.65V112.72z"/>
	<path class="st0" d="M247.33,105.02h1.65v1.65h-1.65V105.02z M247.33,107.22h1.65v1.65h-1.65V107.22z M247.33,109.42h1.65v1.65
		h-1.65V109.42z M247.33,111.63h1.65v1.65h-1.65V111.63z M249.53,113.82h1.65v1.65h-1.65V113.82z M251.73,108.32h1.65v1.65h-1.65
		V108.32z M251.73,110.52h1.65v1.65h-1.65V110.52z M251.73,112.72h1.65v1.65h-1.65V112.72z M253.92,113.82h1.65v1.65h-1.65V113.82z
		 M256.12,105.02h1.65v1.65h-1.65V105.02z M256.12,107.22h1.65v1.65h-1.65V107.22z M256.12,109.42h1.65v1.65h-1.65V109.42z
		 M256.12,111.63h1.65v1.65h-1.65V111.63z"/>
	<path class="st0" d="M260.53,100.63h1.65v1.65h-1.65V100.63z M260.53,113.82h1.65v1.65h-1.65V113.82z M262.73,100.63h1.65v1.65
		h-1.65V100.63z M262.73,113.82h1.65v1.65h-1.65V113.82z M264.93,101.72h1.65v1.65h-1.65V101.72z M264.93,103.92h1.65v1.65h-1.65
		V103.92z M264.93,106.13h1.65v1.65h-1.65V106.13z M264.93,108.32h1.65v1.65h-1.65V108.32z M264.93,110.52h1.65v1.65h-1.65V110.52z
		 M264.93,112.72h1.65v1.65h-1.65V112.72z"/>
	<path class="st0" d="M269.33,113.82h1.65v1.65h-1.65V113.82z"/>
</g>
<g>
	<rect x="35" y="43.75" class="st0" width="5.25" height="5.25"/>
	<rect x="24.5" y="39.38" class="st0" width="5.25" height="5.25"/>
	<rect x="20.12" y="48.13" class="st0" width="5.25" height="5.25"/>
	<rect x="8.75" y="46.38" class="st0" width="5.25" height="5.25"/>
	<rect x="9.62" y="58.63" class="st0" width="5.25" height="5.25"/>
	<rect x="26.25" y="56.88" class="st0" width="5.25" height="5.25"/>
	<rect x="25.38" y="69.13" class="st0" width="5.25" height="5.25"/>
	<rect x="15.75" y="67.38" class="st0" width="5.25" height="5.25"/>
	<rect x="7" y="70.88" class="st0" width="5.25" height="5.25"/>
	<rect x="10.5" y="81.38" class="st0" width="5.25" height="5.25"/>
	<rect x="20.12" y="78.75" class="st0" width="5.25" height="5.25"/>
	<rect x="30.62" y="84" class="st0" width="5.25" height="5.25"/>
	<rect x="21" y="91.88" class="st0" width="5.25" height="5.25"/>
	<rect x="32.38" y="96.25" class="st0" width="5.25" height="5.25"/>
	<rect x="41.12" y="107.63" class="st0" width="3.5" height="3.5"/>
	<rect x="44.62" y="96.25" class="st0" width="3.5" height="3.5"/>
</g>
<rect x="250.25" y="23.62" width="4.38" height="13.12"/>
<rect x="259" y="23.62" width="4.38" height="13.12"/>
<rect x="266.88" y="23.62" width="4.38" height="13.12"/>
<rect x="101.5" y="39.38" width="5.25" height="13.12"/>
<rect x="79.62" y="17.5" width="5.25" height="28"/>
<rect x="84.88" y="45.5" width="6.12" height="5.25"/>
<rect x="91" y="39.38" width="5.25" height="6.12"/>
<rect x="96.25" y="34.12" width="5.25" height="5.25"/>
</svg>
