<?xml version="1.0" encoding="utf-8"?>
<svg version="1.1" id="Layer_1" xmlns="http://www.w3.org/2000/svg" xmlns:xlink="http://www.w3.org/1999/xlink" x="0px" y="0px"
	 viewBox="0 0 420 98" style="enable-background:new 0 0 420 98;" xml:space="preserve">
<style type="text/css">
	.st0{fill:#FFFFFF;}
	.st1{fill:#00A6DE;}
</style>
<title>Zeichenfläche 1</title>
<polygon class="st0" points="0,0 0,98 28,70 420,70 420,0 "/>
<g>
	<rect x="22.9" y="46.3" class="st1" width="4" height="4"/>
	<rect x="22.9" y="41" class="st1" width="4" height="4"/>
	<rect x="22.9" y="22.4" class="st1" width="4" height="4"/>
	<rect x="22.9" y="17" class="st1" width="4" height="4"/>
	<rect x="28.2" y="49" class="st1" width="4" height="4"/>
	<rect x="28.2" y="17" class="st1" width="4" height="4"/>
	<rect x="33.5" y="49" class="st1" width="4" height="4"/>
	<rect x="33.5" y="17" class="st1" width="4" height="4"/>
	<rect x="38.8" y="49" class="st1" width="4" height="4"/>
	<rect x="38.8" y="17" class="st1" width="4" height="4"/>
	<rect x="44.1" y="46.3" class="st1" width="4" height="4"/>
	<rect x="44.1" y="41" class="st1" width="4" height="4"/>
	<rect x="44.1" y="35.7" class="st1" width="4" height="4"/>
	<rect x="44.1" y="30.3" class="st1" width="4" height="4"/>
	<rect x="44.1" y="25" class="st1" width="4" height="4"/>
	<rect x="44.1" y="19.7" class="st1" width="4" height="4"/>
	<rect x="54.6" y="43.7" class="st1" width="4" height="4"/>
	<rect x="54.6" y="38.3" class="st1" width="4" height="4"/>
	<rect x="54.6" y="33" class="st1" width="4" height="4"/>
	<rect x="54.6" y="27.7" class="st1" width="4" height="4"/>
	<rect x="54.6" y="22.4" class="st1" width="4" height="4"/>
	<rect x="54.6" y="17" class="st1" width="4" height="4"/>
	<rect x="59.9" y="49" class="st1" width="4" height="4"/>
	<rect x="65.2" y="49" class="st1" width="4" height="4"/>
	<rect x="70.5" y="49" class="st1" width="4" height="4"/>
	<rect x="75.8" y="43.7" class="st1" width="4" height="4"/>
	<rect x="75.8" y="38.3" class="st1" width="4" height="4"/>
	<rect x="75.8" y="33" class="st1" width="4" height="4"/>
	<rect x="75.8" y="27.7" class="st1" width="4" height="4"/>
	<rect x="75.8" y="22.4" class="st1" width="4" height="4"/>
	<rect x="75.8" y="17" class="st1" width="4" height="4"/>
	<rect x="86.4" y="46.3" class="st1" width="4" height="4"/>
	<rect x="86.4" y="41" class="st1" width="4" height="4"/>
	<rect x="86.4" y="35.7" class="st1" width="4" height="4"/>
	<rect x="86.4" y="30.3" class="st1" width="4" height="4"/>
	<rect x="86.4" y="25" class="st1" width="4" height="4"/>
	<rect x="86.4" y="19.7" class="st1" width="4" height="4"/>
	<rect x="91.7" y="49" class="st1" width="4" height="4"/>
	<rect x="91.7" y="17" class="st1" width="4" height="4"/>
	<rect x="96.9" y="49" class="st1" width="4" height="4"/>
	<rect x="96.9" y="35.7" class="st1" width="4" height="4"/>
	<rect x="96.9" y="17" class="st1" width="4" height="4"/>
	<rect x="102.2" y="49" class="st1" width="4" height="4"/>
	<rect x="102.2" y="35.7" class="st1" width="4" height="4"/>
	<rect x="102.2" y="17" class="st1" width="4" height="4"/>
	<rect x="107.5" y="46.3" class="st1" width="4" height="4"/>
	<rect x="107.5" y="41" class="st1" width="4" height="4"/>
	<rect x="107.5" y="35.7" class="st1" width="4" height="4"/>
	<rect x="107.5" y="19.7" class="st1" width="4" height="4"/>
	<rect x="118.1" y="46.3" class="st1" width="4" height="4"/>
	<rect x="118.1" y="41" class="st1" width="4" height="4"/>
	<rect x="118.1" y="35.7" class="st1" width="4" height="4"/>
	<rect x="118.1" y="30.3" class="st1" width="4" height="4"/>
	<rect x="118.1" y="25" class="st1" width="4" height="4"/>
	<rect x="118.1" y="19.7" class="st1" width="4" height="4"/>
	<rect x="123.4" y="49" class="st1" width="4" height="4"/>
	<rect x="123.4" y="33" class="st1" width="4" height="4"/>
	<rect x="123.4" y="17" class="st1" width="4" height="4"/>
	<rect x="128.7" y="49" class="st1" width="4" height="4"/>
	<rect x="128.7" y="33" class="st1" width="4" height="4"/>
	<rect x="128.7" y="17" class="st1" width="4" height="4"/>
	<rect x="134" y="49" class="st1" width="4" height="4"/>
	<rect x="134" y="33" class="st1" width="4" height="4"/>
	<rect x="134" y="17" class="st1" width="4" height="4"/>
	<rect x="139.3" y="49" class="st1" width="4" height="4"/>
	<rect x="139.3" y="17" class="st1" width="4" height="4"/>
	<rect x="149.8" y="49" class="st1" width="4" height="4"/>
	<rect x="149.8" y="43.7" class="st1" width="4" height="4"/>
	<rect x="149.8" y="38.3" class="st1" width="4" height="4"/>
	<rect x="149.8" y="33" class="st1" width="4" height="4"/>
	<rect x="149.8" y="27.7" class="st1" width="4" height="4"/>
	<rect x="149.8" y="22.4" class="st1" width="4" height="4"/>
	<rect x="149.8" y="17" class="st1" width="4" height="4"/>
	<rect x="155.1" y="27.7" class="st1" width="4" height="4"/>
	<rect x="160.4" y="33" class="st1" width="4" height="4"/>
	<rect x="165.7" y="38.3" class="st1" width="4" height="4"/>
	<rect x="171" y="49" class="st1" width="4" height="4"/>
	<rect x="171" y="43.7" class="st1" width="4" height="4"/>
	<rect x="171" y="38.3" class="st1" width="4" height="4"/>
	<rect x="171" y="33" class="st1" width="4" height="4"/>
	<rect x="171" y="27.7" class="st1" width="4" height="4"/>
	<rect x="171" y="22.4" class="st1" width="4" height="4"/>
	<rect x="171" y="17" class="st1" width="4" height="4"/>
	<rect x="181.6" y="49" class="st1" width="4" height="4"/>
	<rect x="181.6" y="43.7" class="st1" width="4" height="4"/>
	<rect x="181.6" y="38.3" class="st1" width="4" height="4"/>
	<rect x="181.6" y="33" class="st1" width="4" height="4"/>
	<rect x="181.6" y="27.7" class="st1" width="4" height="4"/>
	<rect x="181.6" y="22.4" class="st1" width="4" height="4"/>
	<rect x="181.6" y="17" class="st1" width="4" height="4"/>
	<rect x="186.9" y="49" class="st1" width="4" height="4"/>
	<rect x="186.9" y="17" class="st1" width="4" height="4"/>
	<rect x="192.1" y="49" class="st1" width="4" height="4"/>
	<rect x="192.1" y="17" class="st1" width="4" height="4"/>
	<rect x="197.4" y="49" class="st1" width="4" height="4"/>
	<rect x="197.4" y="17" class="st1" width="4" height="4"/>
	<rect x="202.7" y="46.3" class="st1" width="4" height="4"/>
	<rect x="202.7" y="41" class="st1" width="4" height="4"/>
	<rect x="202.7" y="35.7" class="st1" width="4" height="4"/>
	<rect x="202.7" y="30.3" class="st1" width="4" height="4"/>
	<rect x="202.7" y="25" class="st1" width="4" height="4"/>
	<rect x="202.7" y="19.7" class="st1" width="4" height="4"/>
	<rect x="245" y="49" class="st1" width="4" height="4"/>
	<rect x="245" y="43.7" class="st1" width="4" height="4"/>
	<rect x="245" y="38.3" class="st1" width="4" height="4"/>
	<rect x="245" y="33" class="st1" width="4" height="4"/>
	<rect x="245" y="27.7" class="st1" width="4" height="4"/>
	<rect x="245" y="22.4" class="st1" width="4" height="4"/>
	<rect x="245" y="17" class="st1" width="4" height="4"/>
	<rect x="250.3" y="33" class="st1" width="4" height="4"/>
	<rect x="255.6" y="33" class="st1" width="4" height="4"/>
	<rect x="260.9" y="33" class="st1" width="4" height="4"/>
	<rect x="266.2" y="49" class="st1" width="4" height="4"/>
	<rect x="266.2" y="43.7" class="st1" width="4" height="4"/>
	<rect x="266.2" y="38.3" class="st1" width="4" height="4"/>
	<rect x="266.2" y="33" class="st1" width="4" height="4"/>
	<rect x="266.2" y="27.7" class="st1" width="4" height="4"/>
	<rect x="266.2" y="22.4" class="st1" width="4" height="4"/>
	<rect x="266.2" y="17" class="st1" width="4" height="4"/>
	<rect x="276.8" y="49" class="st1" width="4" height="4"/>
	<rect x="276.8" y="43.7" class="st1" width="4" height="4"/>
	<rect x="276.8" y="38.3" class="st1" width="4" height="4"/>
	<rect x="276.8" y="33" class="st1" width="4" height="4"/>
	<rect x="276.8" y="27.7" class="st1" width="4" height="4"/>
	<rect x="276.8" y="22.4" class="st1" width="4" height="4"/>
	<rect x="282.1" y="35.7" class="st1" width="4" height="4"/>
	<rect x="282.1" y="18.4" class="st1" width="4" height="4"/>
	<rect x="287.4" y="35.7" class="st1" width="4" height="4"/>
	<rect x="287.4" y="17" class="st1" width="4" height="4"/>
	<rect x="292.6" y="35.7" class="st1" width="4" height="4"/>
	<rect x="292.6" y="18.4" class="st1" width="4" height="4"/>
	<rect x="297.9" y="49" class="st1" width="4" height="4"/>
	<rect x="297.9" y="43.7" class="st1" width="4" height="4"/>
	<rect x="297.9" y="38.3" class="st1" width="4" height="4"/>
	<rect x="297.9" y="33" class="st1" width="4" height="4"/>
	<rect x="297.9" y="27.7" class="st1" width="4" height="4"/>
	<rect x="297.9" y="22.4" class="st1" width="4" height="4"/>
	<rect x="308.5" y="46.3" class="st1" width="4" height="4"/>
	<rect x="308.5" y="41" class="st1" width="4" height="4"/>
	<rect x="308.5" y="35.7" class="st1" width="4" height="4"/>
	<rect x="308.5" y="30.3" class="st1" width="4" height="4"/>
	<rect x="308.5" y="25" class="st1" width="4" height="4"/>
	<rect x="308.5" y="19.7" class="st1" width="4" height="4"/>
	<rect x="313.8" y="49" class="st1" width="4" height="4"/>
	<rect x="313.8" y="17" class="st1" width="4" height="4"/>
	<rect x="319.1" y="49" class="st1" width="4" height="4"/>
	<rect x="319.1" y="17" class="st1" width="4" height="4"/>
	<rect x="324.4" y="49" class="st1" width="4" height="4"/>
	<rect x="324.4" y="17" class="st1" width="4" height="4"/>
	<rect x="329.7" y="46.3" class="st1" width="4" height="4"/>
	<rect x="329.7" y="19.7" class="st1" width="4" height="4"/>
	<rect x="340.2" y="49" class="st1" width="4" height="4"/>
	<rect x="340.2" y="43.7" class="st1" width="4" height="4"/>
	<rect x="340.2" y="38.3" class="st1" width="4" height="4"/>
	<rect x="340.2" y="33" class="st1" width="4" height="4"/>
	<rect x="340.2" y="27.7" class="st1" width="4" height="4"/>
	<rect x="340.2" y="22.4" class="st1" width="4" height="4"/>
	<rect x="340.2" y="17" class="st1" width="4" height="4"/>
	<rect x="345.5" y="33" class="st1" width="4" height="4"/>
	<rect x="350.8" y="38.3" class="st1" width="4" height="4"/>
	<rect x="350.8" y="27.7" class="st1" width="4" height="4"/>
	<rect x="356.1" y="43.7" class="st1" width="4" height="4"/>
	<rect x="356.1" y="22.4" class="st1" width="4" height="4"/>
	<rect x="361.4" y="49" class="st1" width="4" height="4"/>
	<rect x="361.4" y="17" class="st1" width="4" height="4"/>
	<rect x="372" y="17" class="st1" width="4" height="4"/>
	<rect x="377.3" y="17" class="st1" width="4" height="4"/>
	<rect x="382.5" y="49" class="st1" width="4" height="4"/>
	<rect x="382.5" y="43.7" class="st1" width="4" height="4"/>
	<rect x="382.5" y="38.3" class="st1" width="4" height="4"/>
	<rect x="382.5" y="33" class="st1" width="4" height="4"/>
	<rect x="382.5" y="27.7" class="st1" width="4" height="4"/>
	<rect x="382.5" y="22.4" class="st1" width="4" height="4"/>
	<rect x="382.5" y="17" class="st1" width="4" height="4"/>
	<rect x="387.8" y="17" class="st1" width="4" height="4"/>
	<rect x="393.1" y="17" class="st1" width="4" height="4"/>
</g>
</svg>
