<svg xmlns="http://www.w3.org/2000/svg" xmlns:xlink="http://www.w3.org/1999/xlink" x="0px" y="0px" viewBox="0 0 558 458" style="enable-background:new 0 0 558 458;" xml:space="preserve">
    <style type="text/css">
	.st0{fill:#4C2582;}
	.st1{fill:#FFFFFF;}
	.st2{fill:#00A6DE;}
	.st3{fill:#E95197;}
	.st4{fill-rule:evenodd;clip-rule:evenodd;}
	.st5{fill-rule:evenodd;clip-rule:evenodd;fill:#DEDEDE;}
	.st6{filter:url(#Adobe_OpacityMaskFilter);}
	.st7{fill-rule:evenodd;clip-rule:evenodd;fill:#FFFFFF;}
	.st8{mask:url(#mask-2_1_);fill-rule:evenodd;clip-rule:evenodd;fill:#F3971B;}
	.st9{fill-rule:evenodd;clip-rule:evenodd;fill:#1A1919;}
	.st10{fill-rule:evenodd;clip-rule:evenodd;fill:#FFFFFE;}
	.st11{fill-rule:evenodd;clip-rule:evenodd;fill:#FFD003;}
	.st12{fill:#F3971B;}
	.st13{fill:#ACAFB2;}
	.st14{fill:#D1D6DA;}
	.st15{fill:#FFD003;}
	.st16{fill:#5DEA48;}
	.st17{fill:#00498c;}
	.st18{fill:#FFCF00;}
	.st19{fill:#1D1D1B;}
	.st20{fill:#FFE713;}
    </style>
    <title>Menü Hintergrund illustrationen</title>
    <g transform="translate(-70.000000, 113.000000)">
	<g>
	    <g transform="translate(288.000000, 0.000000)">
		<path d="M22.5,102H30V90.5h-7.5V102z M0,90.5h7.5v-191.9H0V90.5z M22.5-101.5H30V-113h-7.5V-101.5z"/>
		<polygon class="st0" points="30,-113 30,-101.5 7,-101.5 7,90.5 30,90.5 30,102 91.1,102 91.1,90.5 114,90.5 114,-101.5      91.1,-101.5 91.1,-113    "/>
		<polygon class="st1" points="76,-87.3 68.5,-87.3 68.5,-93 61,-93 53.5,-93 53.5,-87.3 46,-87.3 46,-29.8 53.5,-29.8 53.5,-24      61,-24 68.5,-24 68.5,-29.8 76,-29.8    "/>
		<path d="M75.2-28.6h-7.6v5.8H52.4v-5.8h-7.6v-57.8h7.6v-5.7h15.2v5.8h7.6V-28.6L75.2-28.6z M79-24.8v-65.4h-7.6V-96H48.6v5.8H41     v65.4h7.6v5.8h22.8v-5.8H79L79-24.8z"/>
		<rect x="56" y="-83" class="st2" width="11" height="46"/>
		<rect x="56" y="-64" width="11" height="11"/>
		<rect x="62" y="-61" class="st1" width="3" height="3"/>
		<path d="M23,19.9h74V1H23V19.9z M97,50.1H23V69h74V50.1z"/>
		<path class="st3" d="M24.8-0.2h73.4V-6H24.8V-0.2z M24.8-0.2H19v19.3h5.8V-0.2z M98.2,19.1H24.8v5.8h73.4V19.1z M98.2,19.1h5.8     V-0.2h-5.8V19.1z M24.8,49.9h73.4v-5.8H24.8V49.9z M24.8,49.9H19v19.3h5.8V49.9z M98.2,69.2H24.8V75h73.4V69.2z M104,49.9h-5.8     v19.3h5.8V49.9z"/>
		<path class="st1" d="M28,4.8h9.7V1H28V4.8z M28,19.9h9.7v-3.8H28V19.9z M28,53.9h9.7v-3.8H28V53.9z M28,69h9.7v-3.8H28V69z      M42.1,4.8h9.7V1h-9.7V4.8z M42.1,19.9h9.7v-3.8h-9.7V19.9z M42.1,53.9h9.7v-3.8h-9.7V53.9z M42.1,69h9.7v-3.8h-9.7V69z      M56.1,4.8h9.7V1h-9.7V4.8z M56.1,19.9h9.7v-3.8h-9.7V19.9z M56.1,53.9h9.7v-3.8h-9.7V53.9z M56.1,69h9.7v-3.8h-9.7V69z      M70.2,4.8h9.7V1h-9.7V4.8z M70.2,19.9h9.7v-3.8h-9.7V19.9z M70.2,53.9h9.7v-3.8h-9.7V53.9z M70.2,69h9.7v-3.8h-9.7V69z      M84.3,4.8H94V1h-9.7V4.8z M84.3,19.9H94v-3.8h-9.7V19.9z M84.3,53.9H94v-3.8h-9.7V53.9z M94,65.2h-9.7V69H94V65.2z"/>
	    </g>
	    <g transform="translate(385.000000, 364.000000)">
		<g>
		    <g transform="translate(86.721190, 36.153846)">
			<polygon id="Fill-1" class="st4" points="65,-107.6 65,-101 65,-94.9 65,-88.9 65,-82.8 65,-76.8 65,-71.4 70.5,-71.4        70.5,-107.6      "/>
			<polygon id="Fill-2" class="st4" points="58.8,-72.3 52.9,-72.3 47,-72.3 41.1,-72.3 35.2,-72.3 29.2,-72.3 23.3,-72.3        17.4,-72.3 11.5,-72.3 6.3,-72.3 6.3,-65.1 11.5,-65.1 17.4,-65.1 23.3,-65.1 29.2,-65.1 35.2,-65.1 41.1,-65.1 47,-65.1        52.9,-65.1 58.8,-65.1 65,-65.1 65,-72.3      "/>
			<polygon id="Fill-3" class="st4" points="6.3,-113 6.3,-106.7 11.5,-106.7 17.4,-106.7 23.3,-106.7 29.2,-106.7 35.2,-106.7        41.1,-106.7 47,-106.7 52.9,-106.7 58.8,-106.7 65,-106.7 65,-113      "/>
			<polygon id="Fill-4" class="st4" points="0,-107.6 0,-101 0,-94.9 0,-88.9 0,-82.8 0,-76.8 0,-71.4 7.2,-71.4 7.2,-76.8        7.2,-82.8 7.2,-88.9 7.2,-94.9 7.2,-101 7.2,-107.6      "/>
			<polygon id="Fill-5" class="st5" points="58.8,-107.6 52.9,-107.6 47,-107.6 41.1,-107.6 35.2,-107.6 29.2,-107.6 23.3,-107.6        17.4,-107.6 11.5,-107.6 6.3,-107.6 6.3,-101 6.3,-94.9 6.3,-88.9 6.3,-82.8 6.3,-76.8 6.3,-71.4 11.5,-71.4 17.4,-71.4        23.3,-71.4 29.2,-71.4 35.2,-71.4 41.1,-71.4 47,-71.4 52.9,-71.4 58.8,-71.4 65,-71.4 65,-76.8 65,-82.8 65,-88.9 65,-94.9        65,-101 65,-107.6      "/>
		    </g>
		    <g id="Group-6">
			<g id="JH-Illustration-Teddy-Right-4C">
			    <g id="Group-3">
				<g id="Clip-2">
				</g>
				<defs>
				    <filter id="Adobe_OpacityMaskFilter" filterUnits="userSpaceOnUse" x="0" y="-112.8" width="92" height="93.8">
					<feColorMatrix type="matrix" values="1 0 0 0 0  0 1 0 0 0  0 0 1 0 0  0 0 0 1 0"/>
				    </filter>
				</defs>
				<mask maskUnits="userSpaceOnUse" x="0" y="-112.8" width="92" height="93.8" id="mask-2_1_">
				    <g class="st6">
					<polygon id="path-1_1_" class="st7" points="0,-112.8 92,-112.8 92,-19 0,-19          "/>
				    </g>
				</mask>
				<polyline class="st8" points="10.8,-112.8 10.8,-107.4 5.4,-107.4 5.4,-102.1 0,-102.1 0,-91.4 5.4,-91.4 5.4,-86 21.6,-86          21.6,-69.9 27,-69.9 27,-64.6 29.8,-64.6 29.8,-21.7 32.5,-21.7 32.5,-19 39.2,-19 39.2,-21.7 41.9,-21.7 41.9,-27 47.3,-27          47.3,-21.7 50,-21.7 50,-19 56.8,-19 56.8,-21.7 59.5,-21.7 59.5,-48.5 86.5,-48.5 86.5,-51.2 89.3,-51.2 89.3,-56.5          86.5,-56.5 86.5,-59.2 59.5,-59.2 59.5,-64.6 67.6,-64.6 67.6,-69.9 73,-69.9 73,-86 86.5,-86 86.5,-91.4 92,-91.4          92,-102.1 86.5,-102.1 86.5,-107.4 81.1,-107.4 81.1,-112.8 10.8,-112.8        "/>
			    </g>
			    <path class="st9" d="M25.7-94h4.1v-8h-4.1V-94z M37.9-98.1v-4h4.1v4H50v-4h4.1v8H37.9V-98.1z M54.1-94h8.1V-78h-4.1V-90h-4.1        V-94z M47.3-91.4H50v4h-2.7v4h-4.1v-4h-2.7v-4H47.3z M54.1-73.9h4.1v-4h-4.1V-73.9z M33.8-73.9h4.1v-4h-4.1V-73.9z M33.8-90        V-78h-4.1V-94h8.1v4H33.8z M37.9-69.9h16.2v-4H37.9V-69.9z M62.2-94h4.1v-8h-4.1V-94z M54.1-102.1h8.1v-4h-8.1V-102.1z         M29.8-102.1h8.1v-4h-8.1V-102.1z M54.1-48.5h5.4v16.1h-5.4v-5.4h-5.4v-10.7H54.1L54.1-48.5z"/>
			    <path class="st10" d="M6.8-94v-4h4.1v-4h4.1v4h4.1v4h-4.1v4h-4.1v-4H6.8z M29.8-94h8.1v-8h-8.1V-94z M43.3-76.6h4.1v-4h-4.1        V-76.6z M54.1-94h8.1v-8h-8.1V-94z M77.1-94H73v-4h4.1v-4h4.1v4h4.1v4h-4.1v4h-4.1V-94L77.1-94z"/>
			</g>
			<rect x="32.5" y="-96.7" class="st4" width="3.6" height="3.6"/>
			<rect x="56" y="-96.7" class="st4" width="3.6" height="3.6"/>
		    </g>
		    <polyline class="st11" points="232.2,-112.8 232.2,-107.4 237.6,-107.4 237.6,-102.1 243,-102.1 243,-91.4 237.6,-91.4       237.6,-86 221.4,-86 221.4,-69.9 216,-69.9 216,-64.6 213.2,-64.6 213.2,-21.7 210.5,-21.7 210.5,-19 203.8,-19 203.8,-21.7       201.1,-21.7 201.1,-27 195.7,-27 195.7,-21.7 193,-21.7 193,-19 186.2,-19 186.2,-21.7 183.5,-21.7 183.5,-48.5 156.5,-48.5       156.5,-51.2 153.7,-51.2 153.7,-56.5 156.5,-56.5 156.5,-59.2 183.5,-59.2 183.5,-64.6 175.4,-64.6 175.4,-69.9 170,-69.9       170,-86 156.5,-86 156.5,-91.4 151,-91.4 151,-102.1 156.5,-102.1 156.5,-107.4 161.9,-107.4 161.9,-112.8 232.2,-112.8     "/>
		</g>

		<g transform="translate(197.000000, 47.000000) scale(-1, 1) translate(-197.000000, -47.000000) translate(151.000000, 0.000000)">
		    <path class="st9" d="M25.7-94h4.1v-8h-4.1V-94z M37.8-98.1v-4h4.1v4H50v-4H54v8H37.8V-98.1z M54-94h8.1V-78h-4.1V-90H54V-94z       M47.3-91.4H50v4h-2.7v4h-4.1v-4h-2.7v-4H47.3z M54-73.9h4.1v-4H54V-73.9z M33.8-73.9h4.1v-4h-4.1V-73.9z M33.8-90V-78h-4.1V-94      h8.1v4H33.8z M37.8-69.9H54v-4H37.8V-69.9z M62.1-94h4.1v-8h-4.1V-94z M54-102.1h8.1v-4H54V-102.1z M29.7-102.1h8.1v-4h-8.1      V-102.1z M54-48.5h5.4v16.1H54v-5.4h-5.4v-10.7H54L54-48.5z"/>
		    <path class="st10" d="M6.8-94v-4h4.1v-4h4.1v4h4.1v4h-4.1v4h-4.1v-4H6.8z M29.7-94h8.1v-8h-8.1V-94z M43.2-76.6h4.1v-4h-4.1      V-76.6z M54-94h8.1v-8H54V-94z M77-94h-4.1v-4H77v-4H81v4h4.1v4H81v4H77V-94L77-94z"/>
		</g>
		<rect x="207" y="-97" class="st4" width="4" height="4"/>
		<rect x="183" y="-97" class="st4" width="4" height="4"/>
	    </g>
	    <g transform="translate(65.000000, 330.000000)">
		<polygon class="st12" points="28,-106 49,-106 49,-92 42,-92 42,-85 14,-85 14,-92 21,-92 21,-99 28,-99    "/>
		<rect x="28" y="-113" width="21" height="7"/>
		<rect x="49" y="-106" width="42" height="7"/>
		<rect x="91" y="-99" width="7" height="7"/>
		<polygon points="98,-92 105,-92 105,-71 98,-78    "/>
		<polygon points="91,-78 98,-78 98,-71    "/>
		<polygon points="84,-78 91,-78 91,-71    "/>
		<polygon points="77,-78 84,-78 84,-71    "/>
		<polygon points="70,-78 77,-78 77,-71    "/>
		<polygon points="63,-78 70,-78 70,-71    "/>
		<polygon points="56,-78 63,-78 63,-71    "/>
		<polygon points="49,-78 56,-78 56,-71    "/>
		<polygon points="42,-78 49,-78 49,-71    "/>
		<rect y="-85" width="42" height="7"/>
		<rect x="42" y="-92" width="7" height="14"/>
		<rect x="21" y="-106" width="7" height="7"/>
		<rect x="14" y="-99" width="7" height="7"/>
		<rect x="7" y="-92" width="7" height="7"/>
		<rect x="28.1" y="-91.8" width="4.2" height="4.2"/>
		<rect x="49" y="-106" width="7" height="14"/>
		<polygon class="st13" points="56,-99 91,-99 91,-92 98,-92 98,-85 49,-85 49,-92 56,-92    "/>
		<rect x="49" y="-85" class="st14" width="49" height="7"/>
	    </g>
	    <g id="Group-34" transform="translate(79.000000, 395.000000)">
		<polygon class="st0" points="63,-106 84.1,-106 84,-71 77,-71 77,-64 70,-64 70,-71 63,-71    "/>
		<rect x="7" y="-95.5" class="st3" width="49" height="7"/>
		<rect x="63" y="-78" width="7" height="7"/>
		<rect x="7" y="-102.5" width="49" height="7"/>
		<rect x="7" y="-88.5" width="49" height="7"/>
		<rect x="70" y="-71" width="7" height="7"/>
		<rect x="77" y="-78" width="7" height="7"/>
		<rect x="84" y="-106" width="7" height="28"/>
		<rect x="56" y="-106" width="7" height="28"/>
		<rect y="-95.5" width="7" height="7"/>
		<rect x="63" y="-113" width="21.1" height="7"/>
	    </g>
	</g>
    </g>
    <g>
	<g>
	    <rect x="162.6" y="34.5" class="st2" width="4.1" height="4.1"/>
	    <rect x="170.9" y="31.1" class="st2" width="4.1" height="4.1"/>
	    <rect x="174.4" y="38" class="st2" width="4.1" height="4.1"/>
	    <rect x="183.4" y="36.6" class="st2" width="4.1" height="4.1"/>
	    <rect x="182.7" y="46.3" class="st2" width="4.1" height="4.1"/>
	    <rect x="169.6" y="44.9" class="st2" width="4.1" height="4.1"/>
	    <rect x="170.2" y="54.6" class="st2" width="4.1" height="4.1"/>
	    <rect x="177.9" y="53.2" class="st2" width="4.1" height="4.1"/>
	    <rect x="184.8" y="56" class="st2" width="4.1" height="4.1"/>
	    <rect x="182" y="64.3" class="st2" width="4.1" height="4.1"/>
	    <rect x="174.4" y="62.2" class="st2" width="4.1" height="4.1"/>
	    <rect x="166.1" y="66.3" class="st2" width="4.1" height="4.1"/>
	    <rect x="173.7" y="72.6" class="st2" width="4.1" height="4.1"/>
	    <rect x="164.7" y="76" class="st2" width="4.1" height="4.1"/>
	    <rect x="159.2" y="85" class="st2" width="2.8" height="2.8"/>
	    <rect x="156.4" y="76" class="st2" width="2.8" height="2.8"/>
	</g>
	<polygon class="st15" points="169.6,4.1 169.6,8.3 165.4,8.3 165.4,12.4 161.3,12.4 161.3,16.6 119.1,16.6 119.1,12.4 115,12.4    115,8.3 110.8,8.3 110.8,4.1 106.7,4.1 106.7,8.3 102.5,8.3 102.5,12.4 87.3,12.4 87.3,8.3 83.2,8.3 83.2,4.1 79,4.1 79,8.3    74.9,8.3 74.9,12.4 70.8,12.4 70.8,33.2 74.9,33.2 74.9,37.3 79,37.3 79,41.5 83.2,41.5 83.2,45.6 99.8,45.6 99.8,59.4 106,59.4    106,51.1 119.8,51.1 119.8,59.4 126,59.4 126,51.1 148.8,51.1 148.8,59.4 155,59.4 155,51.1 163.3,51.1 163.3,44.2 155,44.2    155,26.3 165.4,26.3 165.4,22.1 169.6,22.1 169.6,18 173.7,18 173.7,13.8 177.9,13.8 177.9,4.1  "/>
	<rect x="80" y="21.1" width="3.2" height="3.9"/>
	<rect x="80" y="25.1" width="3.2" height="3.2"/>
	<rect x="106.9" y="25.1" class="st16" width="3.9" height="3.2"/>
	<rect x="70.8" y="8.3" width="4.1" height="4.1"/>
	<rect x="83.2" y="4.1" width="4.1" height="4.1"/>
	<rect x="74.9" y="4.1" width="4.1" height="4.1"/>
	<rect x="87.3" y="8.3" width="15.2" height="4.1"/>
	<rect x="79" width="4.1" height="4.1"/>
	<polyline points="66.6,33.2 70.8,33.2 70.8,27.4 70.8,12.4 66.6,12.4  "/>
	<rect x="70.8" y="33.2" width="4.1" height="4.1"/>
	<rect x="74.9" y="37.3" width="4.1" height="4.1"/>
	<rect x="92.2" y="40.1" class="st17" width="4.1" height="4.1"/>
	<polygon class="st3" points="55.6,12.4 55.6,8.3 47.3,8.3 47.3,4.1 10.6,4.1 10.6,8.3 2.3,8.3 2.3,12.4 -1.8,12.4 -1.8,16.6    -37,16.6 -37,12.4 -41.2,12.4 -41.2,8.3 -48.8,8.3 -48.8,14.5 -44.6,14.5 -44.6,21.4 -40.5,21.4 -40.5,25.6 -28.7,25.6 -28.7,44.2    -37,44.2 -37,49.7 -28.7,49.7 -28.7,57.3 -23.2,57.3 -23.2,49.7 1.7,49.7 1.7,57.3 7.2,57.3 7.2,49.7 19.6,49.7 19.6,57.3    25.2,57.3 25.2,41.5 38.3,41.5 38.3,37.3 42.4,37.3 42.4,33.2 46.6,33.2 46.6,29 50.7,29 50.7,38.7 55.6,38.7 55.6,34.5 59.7,34.5    59.7,12.4  "/>
	<rect x="115.7" y="51.1" width="4.1" height="12.4"/>
	<g>
	    <polygon points="110.1,51.1 106,51.1 106,55.3 106,59.4 99.8,59.4 99.8,49.7 99.8,45.6 83.2,45.6 83.2,41.5 79,41.5 79,45.6     79,49.7 95.6,49.7 95.6,59.4 95.6,63.6 106,63.6 110.1,63.6 110.1,59.4 110.1,55.3 119.8,55.3 119.8,51.1   "/>
	    <path d="M159.9,40.1v-9.7h5.5v-4.1H155v1.4v2.8v20.7v4.1v4.1h-6.2v-4.1v-4.1l0,0H126l0,0v4.1v4.1h-10.4v4.1H126h4.2v-4.1v-4.1    h14.5v4.1v4.1h4.1h6.2h4.1h0.7v-8.3h3.4h1.4h2.8V44.2v-1.4v-2.8H159.9z M163.3,51.1h-3.5v-6.9h3.5V51.1z"/>
	</g>
	<rect x="165.4" y="22.1" width="4.1" height="4.1"/>
	<rect x="169.6" y="18" width="4.1" height="4.1"/>
	<rect x="173.7" y="13.8" width="4.1" height="4.1"/>
	<rect x="177.9" y="4.1" width="4.1" height="9.7"/>
	<rect x="169.4" width="8.5" height="4.1"/>
	<rect x="165.4" y="4.1" width="4.1" height="4.1"/>
	<rect x="161.3" y="8.3" width="4.1" height="4.1"/>
	<rect x="102.5" y="4.1" width="4.1" height="4.1"/>
	<rect x="106.7" width="4.1" height="4.1"/>
	<rect x="110.8" y="4.1" width="4.1" height="4.1"/>
	<rect x="115" y="8.3" width="4.1" height="4.1"/>
	<polygon points="161.3,12.4 123.3,12.4 121.9,12.4 119.1,12.4 119.1,33.2 123.3,33.2 123.3,16.6 161.3,16.6  "/>
	<polygon points="106.7,24.9 106.7,20.7 102.5,20.7 102.5,24.9 102.5,29 110.8,29 110.8,24.9  "/>
	<rect x="106.7" y="20.7" class="st1" width="4.1" height="4.1"/>
	<rect x="79" y="20.7" width="4.1" height="4.1"/>
	<rect x="79" y="24.9" width="8.3" height="4.1"/>
	<rect x="83.2" y="20.7" class="st1" width="4.1" height="4.1"/>
	<rect x="115.7" y="33.2" width="3.5" height="3.5"/>
	<rect x="112.2" y="36.6" width="3.5" height="4.1"/>
	<rect x="108.8" y="40.8" width="3.5" height="4.1"/>
	<rect x="92.2" y="31.1" width="4.1" height="4.1"/>
	<rect x="93.6" y="35.2" width="1.4" height="1.4"/>
	<rect x="91.5" y="36.6" width="2.1" height="3.5"/>
	<rect x="89.4" y="40.1" width="2.1" height="1.8"/>
	<rect x="94.9" y="36.6" width="2.1" height="3.5"/>
	<rect x="97" y="40.1" width="2.1" height="1.8"/>
	<polyline points="59.7,34.5 63.8,34.5 63.8,28.4 63.8,12.4 59.7,12.4  "/>
	<rect x="55.6" y="8.3" width="4.1" height="4.1"/>
	<rect x="47.3" y="4.1" width="8.3" height="4.1"/>
	<rect x="10.6" width="36.6" height="4.1"/>
	<rect x="2.3" y="4.1" width="8.3" height="4.1"/>
	<rect x="-1.8" y="8.3" width="4.1" height="4.1"/>
	<rect x="-37" y="12.4" width="35.2" height="4.1"/>
	<rect x="-41.2" y="8.3" width="4.1" height="4.1"/>
	<rect x="-48.8" y="4.1" width="7.6" height="4.1"/>
	<polyline points="-52.9,14.5 -48.8,14.5 -48.8,12.8 -48.8,8.3 -52.9,8.3  "/>
	<rect x="-48.8" y="14.5" width="4.1" height="6.9"/>
	<rect x="-44.6" y="21.4" width="4.1" height="4.1"/>
	<rect x="-40.5" y="25.6" width="11.7" height="4.1"/>
	<rect x="-32.9" y="29.7" width="4.1" height="27.6"/>
	<rect x="-32.9" y="57.3" width="13.8" height="4.1"/>
	<rect x="-23.2" y="49.7" width="4.1" height="7.6"/>
	<rect x="-20.4" y="49.7" width="22.1" height="4.1"/>
	<rect x="-2.5" y="49.7" width="4.1" height="7.6"/>
	<rect x="7.2" y="49.7" width="4.1" height="7.6"/>
	<rect x="15.5" y="49.7" width="4.1" height="7.6"/>
	<rect x="25.2" y="41.5" width="4.1" height="15.9"/>
	<rect x="15.5" y="57.3" width="13.8" height="4.1"/>
	<rect x="-2.5" y="57.3" width="13.8" height="4.1"/>
	<rect x="7.2" y="49.7" width="11.1" height="4.1"/>
	<rect x="15.5" y="41.5" width="22.8" height="4.1"/>
	<rect x="38.3" y="37.3" width="4.1" height="4.1"/>
	<rect x="42.4" y="33.2" width="4.1" height="4.1"/>
	<rect x="46.6" y="29" width="4.1" height="13.8"/>
	<rect x="50.7" y="38.7" width="9" height="4.1"/>
	<rect x="55.6" y="34.5" width="4.1" height="4.1"/>
	<polygon class="st1" points="36.9,18.7 36.9,14.5 32.7,14.5 32.7,18.7 32.7,22.8 36.9,22.8 41,22.8 41,18.7  "/>
	<rect x="36.9" y="14.5" width="4.1" height="4.1"/>
	<polygon class="st1" points="17.6,18.7 17.6,14.5 13.4,14.5 13.4,18.7 13.4,22.8 17.6,22.8 21.7,22.8 21.7,18.7  "/>
	<rect x="17.6" y="14.5" width="4.1" height="4.1"/>
	<g>
	    <rect x="25.2" y="25.9" width="4.1" height="4.1"/>
	    <rect x="26.5" y="30" width="1.4" height="1.4"/>
	    <rect x="24.5" y="31.4" width="2.1" height="3.5"/>
	    <rect x="22.4" y="34.9" width="2.1" height="1.8"/>
	    <rect x="27.9" y="31.4" width="2.1" height="3.5"/>
	    <rect x="30" y="34.9" width="2.1" height="1.8"/>
	</g>
	<rect x="-37" y="40.1" width="4.1" height="4.1"/>
	<rect x="-37" y="49.7" width="4.1" height="4.1"/>
	<rect x="-41.2" y="40.1" width="4.1" height="13.8"/>
	<g>
	    <path class="st2" d="M-14.2,84.7h1.3V86h-1.3V84.7z M-12.5,80.3h1.3v1.3h-1.3V80.3z M-12.5,82.1h1.3v1.3h-1.3V82.1z M-12.5,83.8    h1.3v1.3h-1.3V83.8z M-12.5,85.5h1.3v1.3h-1.3V85.5z M-12.5,87.3h1.3v1.3h-1.3V87.3z M-12.5,89h1.3v1.3h-1.3V89z M-10.8,79.5h1.3    v1.3h-1.3V79.5z M-10.8,89.9h1.3v1.3h-1.3V89.9z M-9,79.5h1.3v1.3H-9V79.5z M-9,89.9h1.3v1.3H-9V89.9z"/>
	    <path class="st2" d="M-5.5,79.5h1.3v1.3h-1.3V79.5z M-3.8,79.5h1.3v1.3h-1.3V79.5z M-2.1,79.5h1.3v1.3h-1.3V79.5z M-2.1,81.2h1.3    v1.3h-1.3V81.2z M-2.1,82.9h1.3v1.3h-1.3V82.9z M-2.1,84.7h1.3V86h-1.3V84.7z M-2.1,86.4h1.3v1.3h-1.3V86.4z M-2.1,88.1h1.3v1.3    h-1.3V88.1z M-2.1,89.9h1.3v1.3h-1.3V89.9z M-0.3,79.5H1v1.3h-1.3V79.5z M1.4,79.5h1.3v1.3H1.4V79.5z"/>
	    <path class="st2" d="M4.9,79.5h1.3v1.3H4.9V79.5z M6.6,79.5h1.3v1.3H6.6V79.5z M8.4,79.5h1.3v1.3H8.4V79.5z M8.4,81.2h1.3v1.3H8.4    V81.2z M8.4,82.9h1.3v1.3H8.4V82.9z M8.4,84.7h1.3V86H8.4V84.7z M8.4,86.4h1.3v1.3H8.4V86.4z M8.4,88.1h1.3v1.3H8.4V88.1z     M8.4,89.9h1.3v1.3H8.4V89.9z M10.1,79.5h1.3v1.3h-1.3V79.5z M11.8,79.5h1.3v1.3h-1.3V79.5z"/>
	    <path class="st2" d="M15.3,82.9h1.3v1.3h-1.3V82.9z M15.3,93.4h1.3v1.3h-1.3V93.4z M17,79.5h1.3v1.3H17V79.5z M17,82.9h1.3v1.3H17    V82.9z M17,93.4h1.3v1.3H17V93.4z M18.8,82.9h1.3v1.3h-1.3V82.9z M18.8,84.7h1.3V86h-1.3V84.7z M18.8,86.4h1.3v1.3h-1.3V86.4z     M18.8,88.1h1.3v1.3h-1.3V88.1z M18.8,89.9h1.3v1.3h-1.3V89.9z M18.8,91.6h1.3v1.3h-1.3V91.6z"/>
	    <path class="st2" d="M22.3,83.8h1.3v1.3h-1.3V83.8z M22.3,85.5h1.3v1.3h-1.3V85.5z M22.3,87.3h1.3v1.3h-1.3V87.3z M22.3,89h1.3    v1.3h-1.3V89z M24,82.9h1.3v1.3H24V82.9z M24,89.9h1.3v1.3H24V89.9z M25.7,82.9H27v1.3h-1.3V82.9z M25.7,89.9H27v1.3h-1.3V89.9z     M27.5,82.9h1.3v1.3h-1.3V82.9z M27.5,84.7h1.3V86h-1.3V84.7z M27.5,86.4h1.3v1.3h-1.3V86.4z M27.5,88.1h1.3v1.3h-1.3V88.1z     M27.5,89.9h1.3v1.3h-1.3V89.9z M27.5,91.6h1.3v1.3h-1.3V91.6z M27.5,93.4h1.3v1.3h-1.3V93.4z"/>
	    <path class="st2" d="M30.9,82.9h1.3v1.3h-1.3V82.9z M30.9,84.7h1.3V86h-1.3V84.7z M30.9,86.4h1.3v1.3h-1.3V86.4z M30.9,88.1h1.3    v1.3h-1.3V88.1z M32.7,89.9H34v1.3h-1.3V89.9z M34.4,89.9h1.3v1.3h-1.3V89.9z M36.1,82.9h1.3v1.3h-1.3V82.9z M36.1,84.7h1.3V86    h-1.3V84.7z M36.1,86.4h1.3v1.3h-1.3V86.4z M36.1,88.1h1.3v1.3h-1.3V88.1z"/>
	    <path class="st2" d="M39.6,83.8h1.3v1.3h-1.3V83.8z M39.6,85.5h1.3v1.3h-1.3V85.5z M39.6,87.3h1.3v1.3h-1.3V87.3z M39.6,89h1.3    v1.3h-1.3V89z M41.4,82.9h1.3v1.3h-1.3V82.9z M41.4,86.4h1.3v1.3h-1.3V86.4z M41.4,89.9h1.3v1.3h-1.3V89.9z M43.1,82.9h1.3v1.3    h-1.3V82.9z M43.1,86.4h1.3v1.3h-1.3V86.4z M43.1,89.9h1.3v1.3h-1.3V89.9z M44.8,83.8h1.3v1.3h-1.3V83.8z M44.8,85.5h1.3v1.3h-1.3    V85.5z M44.8,89h1.3v1.3h-1.3V89z"/>
	    <path class="st2" d="M48.3,82.9h1.3v1.3h-1.3V82.9z M48.3,84.7h1.3V86h-1.3V84.7z M48.3,86.4h1.3v1.3h-1.3V86.4z M48.3,88.1h1.3    v1.3h-1.3V88.1z M48.3,89.9h1.3v1.3h-1.3V89.9z M50.1,83.8h1.3v1.3h-1.3V83.8z M51.8,82.9h1.3v1.3h-1.3V82.9z M53.5,83.8h1.3v1.3    h-1.3V83.8z"/>
	    <path class="st2" d="M57,82.9h1.3v1.3H57V82.9z M57,84.7h1.3V86H57V84.7z M57,86.4h1.3v1.3H57V86.4z M57,88.1h1.3v1.3H57V88.1z     M58.7,89.9H60v1.3h-1.3V89.9z M58.7,93.4H60v1.3h-1.3V93.4z M60.5,89.9h1.3v1.3h-1.3V89.9z M60.5,93.4h1.3v1.3h-1.3V93.4z     M62.2,82.9h1.3v1.3h-1.3V82.9z M62.2,84.7h1.3V86h-1.3V84.7z M62.2,86.4h1.3v1.3h-1.3V86.4z M62.2,88.1h1.3v1.3h-1.3V88.1z     M62.2,89.9h1.3v1.3h-1.3V89.9z M62.2,91.6h1.3v1.3h-1.3V91.6z"/>
	    <path class="st2" d="M76.1,80.3h1.3v1.3h-1.3V80.3z M76.1,82.1h1.3v1.3h-1.3V82.1z M76.1,83.8h1.3v1.3h-1.3V83.8z M76.1,85.5h1.3    v1.3h-1.3V85.5z M76.1,87.3h1.3v1.3h-1.3V87.3z M76.1,89h1.3v1.3h-1.3V89z M77.8,79.5h1.3v1.3h-1.3V79.5z M77.8,89.9h1.3v1.3h-1.3    V89.9z M79.6,79.5h1.3v1.3h-1.3V79.5z M79.6,89.9h1.3v1.3h-1.3V89.9z"/>
	    <path class="st2" d="M83.1,82.9h1.3v1.3h-1.3V82.9z M83.1,84.7h1.3V86h-1.3V84.7z M83.1,86.4h1.3v1.3h-1.3V86.4z M83.1,88.1h1.3    v1.3h-1.3V88.1z M84.8,89.9h1.3v1.3h-1.3V89.9z M86.5,85.5h1.3v1.3h-1.3V85.5z M86.5,87.3h1.3v1.3h-1.3V87.3z M86.5,89h1.3v1.3    h-1.3V89z M88.3,89.9h1.3v1.3h-1.3V89.9z M90,82.9h1.3v1.3H90V82.9z M90,84.7h1.3V86H90V84.7z M90,86.4h1.3v1.3H90V86.4z M90,88.1    h1.3v1.3H90V88.1z"/>
	    <path class="st2" d="M93.5,82.9h1.3v1.3h-1.3V82.9z M93.5,89.9h1.3v1.3h-1.3V89.9z M95.2,79.5h1.3v1.3h-1.3V79.5z M95.2,82.9h1.3    v1.3h-1.3V82.9z M95.2,84.7h1.3V86h-1.3V84.7z M95.2,86.4h1.3v1.3h-1.3V86.4z M95.2,88.1h1.3v1.3h-1.3V88.1z M95.2,89.9h1.3v1.3    h-1.3V89.9z M97,89.9h1.3v1.3H97V89.9z"/>
	    <path class="st2" d="M100.4,82.9h1.3v1.3h-1.3V82.9z M100.4,84.7h1.3V86h-1.3V84.7z M100.4,86.4h1.3v1.3h-1.3V86.4z M100.4,88.1    h1.3v1.3h-1.3V88.1z M100.4,89.9h1.3v1.3h-1.3V89.9z M102.2,83.8h1.3v1.3h-1.3V83.8z M103.9,82.9h1.3v1.3h-1.3V82.9z M105.6,84.7    h1.3V86h-1.3V84.7z M105.6,86.4h1.3v1.3h-1.3V86.4z M105.6,88.1h1.3v1.3h-1.3V88.1z M105.6,89.9h1.3v1.3h-1.3V89.9z"/>
	    <path class="st2" d="M109.1,83.8h1.3v1.3h-1.3V83.8z M109.1,85.5h1.3v1.3h-1.3V85.5z M109.1,87.3h1.3v1.3h-1.3V87.3z M109.1,89    h1.3v1.3h-1.3V89z M110.9,82.9h1.3v1.3h-1.3V82.9z M110.9,89.9h1.3v1.3h-1.3V89.9z M112.6,82.9h1.3v1.3h-1.3V82.9z M112.6,89.9    h1.3v1.3h-1.3V89.9z M114.3,79.5h1.3v1.3h-1.3V79.5z M114.3,81.2h1.3v1.3h-1.3V81.2z M114.3,82.9h1.3v1.3h-1.3V82.9z M114.3,84.7    h1.3V86h-1.3V84.7z M114.3,86.4h1.3v1.3h-1.3V86.4z M114.3,88.1h1.3v1.3h-1.3V88.1z M114.3,89.9h1.3v1.3h-1.3V89.9z"/>
	    <path class="st2" d="M117.8,83.8h1.3v1.3h-1.3V83.8z M117.8,85.5h1.3v1.3h-1.3V85.5z M117.8,87.3h1.3v1.3h-1.3V87.3z M117.8,89    h1.3v1.3h-1.3V89z M119.5,82.9h1.3v1.3h-1.3V82.9z M119.5,89.9h1.3v1.3h-1.3V89.9z M121.3,82.9h1.3v1.3h-1.3V82.9z M121.3,89.9    h1.3v1.3h-1.3V89.9z M123,83.8h1.3v1.3H123V83.8z M123,85.5h1.3v1.3H123V85.5z M123,87.3h1.3v1.3H123V87.3z M123,89h1.3v1.3H123    V89z"/>
	    <path class="st2" d="M126.5,82.9h1.3v1.3h-1.3V82.9z M126.5,84.7h1.3V86h-1.3V84.7z M126.5,86.4h1.3v1.3h-1.3V86.4z M126.5,88.1    h1.3v1.3h-1.3V88.1z M128.2,89.9h1.3v1.3h-1.3V89.9z M130,85.5h1.3v1.3H130V85.5z M130,87.3h1.3v1.3H130V87.3z M130,89h1.3v1.3    H130V89z M131.7,89.9h1.3v1.3h-1.3V89.9z M133.4,82.9h1.3v1.3h-1.3V82.9z M133.4,84.7h1.3V86h-1.3V84.7z M133.4,86.4h1.3v1.3h-1.3    V86.4z M133.4,88.1h1.3v1.3h-1.3V88.1z"/>
	    <path class="st2" d="M136.9,79.5h1.3v1.3h-1.3V79.5z M136.9,89.9h1.3v1.3h-1.3V89.9z M138.6,79.5h1.3v1.3h-1.3V79.5z M138.6,89.9    h1.3v1.3h-1.3V89.9z M140.4,80.3h1.3v1.3h-1.3V80.3z M140.4,82.1h1.3v1.3h-1.3V82.1z M140.4,83.8h1.3v1.3h-1.3V83.8z M140.4,85.5    h1.3v1.3h-1.3V85.5z M140.4,87.3h1.3v1.3h-1.3V87.3z M140.4,89h1.3v1.3h-1.3V89z"/>
	    <path class="st2" d="M143.9,89.9h1.3v1.3h-1.3V89.9z"/>
	</g>
	<g>
	    <rect x="-41.2" y="34.5" class="st2" width="4.1" height="4.1"/>
	    <rect x="-49.5" y="31.1" class="st2" width="4.1" height="4.1"/>
	    <rect x="-52.9" y="38" class="st2" width="4.1" height="4.1"/>
	    <rect x="-61.9" y="36.6" class="st2" width="4.1" height="4.1"/>
	    <rect x="-61.2" y="46.3" class="st2" width="4.1" height="4.1"/>
	    <rect x="-48.1" y="44.9" class="st2" width="4.1" height="4.1"/>
	    <rect x="-48.8" y="54.6" class="st2" width="4.1" height="4.1"/>
	    <rect x="-56.4" y="53.2" class="st2" width="4.1" height="4.1"/>
	    <rect x="-63.3" y="56" class="st2" width="4.1" height="4.1"/>
	    <rect x="-60.5" y="64.3" class="st2" width="4.1" height="4.1"/>
	    <rect x="-52.9" y="62.2" class="st2" width="4.1" height="4.1"/>
	    <rect x="-44.6" y="66.3" class="st2" width="4.1" height="4.1"/>
	    <rect x="-52.2" y="72.6" class="st2" width="4.1" height="4.1"/>
	    <rect x="-43.2" y="76" class="st2" width="4.1" height="4.1"/>
	    <rect x="-36.3" y="85" class="st2" width="2.8" height="2.8"/>
	    <rect x="-33.6" y="76" class="st2" width="2.8" height="2.8"/>
	</g>
	<rect x="128.8" y="18.7" width="3.5" height="10.4"/>
	<rect x="135.7" y="18.7" width="3.5" height="10.4"/>
	<rect x="141.9" y="18.7" width="3.5" height="10.4"/>
	<rect x="11.3" y="31.1" width="4.1" height="10.4"/>
	<rect x="-5.9" y="13.8" width="4.1" height="22.1"/>
	<rect x="-1.8" y="35.9" width="4.8" height="4.1"/>
	<rect x="3" y="31.1" width="4.1" height="4.8"/>
	<rect x="7.2" y="26.9" width="4.1" height="4.1"/>
    </g>
    <g>
	<polygon class="st14" points="389.4,286.5 389.4,258.5 326.4,258.5 326.4,286.5 333.4,286.5 333.4,293.5 340.4,293.5 340.4,300.5    375.4,300.5 375.4,293.5 382.4,293.5 382.4,286.5  "/>
	<polygon class="st14" points="487.4,286.5 487.4,258.5 424.4,258.5 424.4,286.5 431.4,286.5 431.4,293.5 438.4,293.5 438.4,300.5    473.4,300.5 473.4,293.5 480.4,293.5 480.4,286.5  "/>
	<path d="M326.4,258.5h63v28h-7v7h-7v7h-35v-7h-7v-7h-7V258.5z M424.4,258.5h63v28h-7v7h-7v7h-35v-7h-7v-7h-7V258.5z M417.4,244.5   v14h-21v-14h-84v21h7v28h7v7h7v7h49v-7h7v-7h7v-14h7v-7h7v7h7v14h7v7h7v7h49v-7h7v-7h7v-28h7v-21H417.4z"/>
	<polygon class="st2" points="350.9,279.5 350.9,269 347.4,269 340.4,269 340.4,272.5 340.4,279.5 347.4,279.5  "/>
	<polygon class="st1" points="361.4,279.5 361.4,269 357.9,269 350.9,269 350.9,272.5 350.9,279.5 357.9,279.5  "/>
	<polygon class="st2" points="448.9,279.5 448.9,269 445.4,269 438.4,269 438.4,272.5 438.4,279.5 445.4,279.5  "/>
	<polygon class="st1" points="459.4,279.5 459.4,269 455.9,269 448.9,269 448.9,272.5 448.9,279.5 455.9,279.5  "/>
    </g>
    <g>
	<rect x="159.2" y="334.1" class="st18" width="73.6" height="4.9"/>
	<rect x="178.8" y="329.2" class="st15" width="73.6" height="14.7"/>
	<rect x="159.2" y="319.4" class="st15" width="88.3" height="14.7"/>
	<rect x="169" y="270.3" width="73.6" height="4.9"/>
	<rect x="164.1" y="275.3" width="4.9" height="44.1"/>
	<rect x="169.1" y="314.3" width="73.5" height="5.1"/>
	<rect x="242.6" y="275.3" width="4.9" height="44.1"/>
	<rect x="169" y="275.2" class="st2" width="73.6" height="39.3"/>
	<rect x="159.2" y="319.4" width="4.9" height="9.8"/>
	<rect x="169.1" y="324.3" width="4.9" height="4.9"/>
	<rect x="178.9" y="324.3" width="4.9" height="4.9"/>
	<rect x="188.9" y="324.3" width="4.6" height="5"/>
	<rect x="198.5" y="324.3" width="4.9" height="4.9"/>
	<rect x="208.3" y="324.3" width="4.9" height="4.9"/>
	<rect x="218.1" y="324.3" width="4.9" height="4.9"/>
	<rect x="227.9" y="324.3" width="4.9" height="4.9"/>
	<rect x="154.3" y="329.2" width="4.9" height="9.8"/>
	<rect x="164.1" y="334.1" width="4.9" height="4.9"/>
	<rect x="173.9" y="334.1" width="4.9" height="4.9"/>
	<rect x="183.7" y="334.1" width="44.2" height="4.9"/>
	<rect x="232.8" y="334.1" class="st19" width="4.7" height="4.9"/>
	<rect x="233.1" y="334.1" width="4.6" height="4.9"/>
	<rect x="247.5" y="319.4" width="4.9" height="9.8"/>
	<rect x="252.4" y="329.2" width="4.9" height="19.5"/>
	<rect x="178.8" y="344" width="73.6" height="4.8"/>
	<rect x="178.8" y="343.9" class="st19" width="4.9" height="4.9"/>
	<rect x="169" y="339" width="4.9" height="29.4"/>
	<rect x="159.2" y="339" width="4.9" height="29.4"/>
	<rect x="149.4" y="339" width="4.9" height="29.4"/>
	<rect x="139.6" y="353.7" width="4.9" height="34.3"/>
	<rect x="144.5" y="388.1" width="4.9" height="14.7"/>
	<rect x="149.4" y="402.8" width="4.9" height="24.5"/>
	<rect x="178.8" y="407.7" width="4.9" height="19.6"/>
	<rect x="154.3" y="422.4" width="24.5" height="4.9"/>
	<rect x="183.7" y="397.9" width="4.9" height="9.8"/>
	<rect x="188.6" y="388.1" width="4.9" height="9.8"/>
	<rect x="193.5" y="378.3" width="4.9" height="9.8"/>
	<rect x="188.6" y="373.4" width="4.9" height="4.9"/>
	<rect x="183.7" y="378.3" width="4.9" height="4.9"/>
	<rect x="178.8" y="339" width="4.9" height="49.1"/>
	<rect x="218.1" y="353.7" width="4.9" height="4.9"/>
	<rect x="223" y="358.6" width="4.9" height="4.9"/>
	<rect x="213.2" y="358.6" width="4.9" height="9.8"/>
	<rect x="227.9" y="363.6" width="4.9" height="24.5"/>
	<rect x="237.7" y="368.5" width="4.9" height="19.6"/>
	<rect x="247.5" y="368.5" width="4.9" height="19.6"/>
	<rect x="232.8" y="368.5" width="24.5" height="4.9"/>
	<rect x="257.3" y="373.4" width="4.9" height="19.6"/>
	<rect x="262.2" y="393" width="4.9" height="24.5"/>
	<rect x="267.1" y="417.5" width="4.9" height="4.9"/>
	<rect x="272.1" y="422.4" width="4.9" height="4.9"/>
	<rect x="277" y="427.3" width="4.9" height="4.9"/>
	<rect x="272.1" y="432.2" width="4.9" height="4.9"/>
	<rect x="267.1" y="437.2" width="4.9" height="4.9"/>
	<rect x="262.2" y="442.1" width="4.9" height="4.9"/>
	<rect x="247.5" y="447" width="14.7" height="4.9"/>
	<rect x="242.6" y="442.1" width="4.9" height="4.9"/>
	<rect x="237.7" y="432.2" width="4.9" height="9.8"/>
	<rect x="232.8" y="427.3" width="4.9" height="4.9"/>
	<rect x="223" y="422.4" width="9.8" height="4.9"/>
	<rect x="218.1" y="417.5" width="4.9" height="4.9"/>
	<rect x="213.2" y="407.7" width="4.9" height="14.7"/>
	<rect x="208.3" y="397.9" width="4.9" height="9.8"/>
	<rect x="203.4" y="388.1" width="4.9" height="9.8"/>
	<rect x="208.3" y="383.2" width="4.9" height="4.9"/>
	<rect x="213.2" y="388.1" width="4.9" height="4.9"/>
	<rect x="218.1" y="368.5" width="4.9" height="29.4"/>
	<rect x="242.6" y="334.1" width="4.6" height="4.9"/>
	<rect x="237.7" y="324.3" width="4.9" height="4.9"/>
	<rect x="144.5" y="353.7" width="4.9" height="4.9"/>
	<polygon class="st1" points="188.6,378.3 188.6,383.2 183.7,383.2 183.7,388.1 178.8,388.1 178.8,339 173.9,339 173.9,368.5    169,368.5 169,339 164.1,339 164.1,368.5 159.2,368.5 159.2,339 154.3,339 154.3,368.5 149.4,368.5 149.4,358.6 144.5,358.6    144.5,388.1 149.4,388.1 149.4,402.8 154.3,402.8 154.3,422.4 159.2,422.4 164.1,422.4 169,422.4 173.9,422.4 178.8,422.4    178.8,407.7 183.7,407.7 183.7,397.9 188.6,397.9 188.6,388.1 193.5,388.1 193.5,378.3  "/>
	<polygon class="st1" points="272.1,427.3 272.1,422.4 267.1,422.4 267.1,417.5 262.2,417.5 262.2,393 257.3,393 257.3,373.4    252.4,373.4 252.4,388.1 247.5,388.1 247.5,373.4 242.6,373.4 242.6,388.1 237.7,388.1 237.7,373.4 232.8,373.4 232.8,388.1    227.9,388.1 227.9,363.6 223,363.6 223,358.6 218.1,358.6 218.1,368.5 223,368.5 223,397.9 218.1,397.9 218.1,393 213.2,393    213.2,388.1 208.3,388.1 208.3,397.9 213.2,397.9 213.2,407.7 218.1,407.7 218.1,417.5 223,417.5 223,422.4 227.9,422.4    232.8,422.4 232.8,427.3 237.7,427.3 237.7,432.2 242.6,432.2 242.6,442.1 247.5,442.1 247.5,447 252.4,447 257.3,447 262.2,447    262.2,442.1 267.1,442.1 267.1,437.2 272.1,437.2 272.1,432.2 277,432.2 277,427.3  "/>
    </g>
    <g>
	<polygon class="st1" points="37.1,255.5 37.1,255.5 37.1,255.5 37.1,242 23.5,242 23.5,228.4 10,228.4 10,187.9 23.5,187.9    23.5,174.3 118.2,174.3 118.2,187.9 131.7,187.9 131.7,228.4 118.2,228.4 118.2,242 104.7,242 104.7,255.5  "/>
	<g>
	    <rect x="23.5" y="201.4" width="13.5" height="13.5"/>
	    <rect x="104.7" y="201.4" width="13.5" height="13.5"/>
	    <polygon points="77.6,228.4 64.1,228.4 64.1,214.9 50.6,214.9 50.6,242 91.2,242 91.2,214.9 77.6,214.9   "/>
	</g>
	<path class="st20" d="M131.7,133.8v-13.5h-27v13.5H91.2v13.5H50.6v-13.5H37.1v-13.5H10v13.5H-3.5V242H10v13.5h13.5V269h94.7v-13.5   h13.5V242h13.5V133.8H131.7z M131.7,228.4h-13.5V242h-13.5v13.5H37.1V242H23.5v-13.5H10v-40.6h13.5v-13.5h94.7v13.5h13.5V228.4z"/>
    </g>
    <g>
	<g>
	    <rect x="418" y="117.4" class="st17" width="6.2" height="6.2"/>
	    <rect x="411.8" y="123.6" class="st17" width="6.2" height="6.2"/>
	    <rect x="424.2" y="123.6" class="st17" width="6.2" height="6.2"/>
	    <rect x="418" y="129.8" class="st17" width="6.2" height="6.2"/>
	    <rect x="411.8" y="136" class="st17" width="6.2" height="6.2"/>
	    <rect x="418" y="142.2" class="st17" width="6.2" height="6.2"/>
	    <rect x="405.6" y="142.2" class="st17" width="6.2" height="6.2"/>
	    <rect x="424.2" y="136" class="st17" width="6.2" height="6.2"/>
	    <polygon class="st17" points="436.6,142.2 430.4,142.2 430.4,148.4 436.6,148.4 442.8,148.4 442.8,142.2   "/>
	    <rect x="442.8" y="136" class="st17" width="6.2" height="6.2"/>
	    <rect x="449" y="142.2" class="st17" width="6.2" height="6.2"/>
	    <rect x="455.3" y="136" class="st17" width="6.2" height="6.2"/>
	    <rect x="461.5" y="142.2" class="st17" width="6.2" height="6.2"/>
	    <rect x="455.3" y="148.4" class="st17" width="6.2" height="6.2"/>
	    <rect x="442.8" y="148.4" class="st17" width="6.2" height="6.2"/>
	    <rect x="424.2" y="148.4" class="st17" width="6.2" height="6.2"/>
	    <rect x="411.8" y="148.4" class="st17" width="6.2" height="6.2"/>
	    <rect x="405.6" y="154.6" class="st17" width="6.2" height="6.2"/>
	    <rect x="418" y="154.6" class="st17" width="6.2" height="6.2"/>
	    <polygon class="st17" points="430.4,154.6 430.4,160.9 436.6,160.9 442.8,160.9 442.8,154.6 436.6,154.6   "/>
	    <rect x="449" y="154.6" class="st17" width="6.2" height="6.2"/>
	    <rect x="461.5" y="154.6" class="st17" width="6.2" height="6.2"/>
	    <rect x="467.7" y="148.4" class="st17" width="6.2" height="6.2"/>
	    <rect x="399.4" y="148.4" class="st17" width="6.2" height="6.2"/>
	    <rect x="393.1" y="142.2" class="st17" width="6.2" height="6.2"/>
	    <rect x="386.9" y="136" class="st17" width="6.2" height="6.2"/>
	    <rect x="380.7" y="129.8" class="st17" width="6.2" height="6.2"/>
	    <rect x="473.9" y="142.2" class="st17" width="6.2" height="6.2"/>
	    <rect x="480.1" y="136" class="st17" width="6.2" height="6.2"/>
	    <rect x="486.3" y="129.8" class="st17" width="6.2" height="6.2"/>
	    <rect x="442.8" y="123.6" class="st17" width="6.2" height="6.2"/>
	    <rect x="455.3" y="123.6" class="st17" width="6.2" height="6.2"/>
	    <rect x="449" y="129.8" class="st17" width="6.2" height="6.2"/>
	    <rect x="449" y="117.4" class="st17" width="6.2" height="6.2"/>
	    <polygon class="st17" points="492.5,49 492.5,42.8 486.3,42.8 486.3,36.6 480.1,36.6 480.1,30.4 473.9,30.4 473.9,24.2     467.7,24.2 467.7,18 461.5,18 461.5,11.8 455.3,11.8 449,11.8 449,11.8 449,11.8 442.8,11.8 442.8,18 449,18 449,24.2 455.3,24.2     455.3,30.4 461.5,30.4 461.5,36.6 467.7,36.6 467.7,42.8 461.5,42.8 461.5,36.6 455.3,36.6 455.3,30.4 449,30.4 449,24.2     442.8,24.2 442.8,18 436.6,18 430.4,18 430.4,24.2 424.2,24.2 424.2,30.4 418,30.4 418,36.6 411.8,36.6 411.8,42.8 405.6,42.8     405.6,36.6 411.8,36.6 411.8,30.4 418,30.4 418,24.2 424.2,24.2 424.2,18 430.4,18 430.4,11.8 424.2,11.8 418,11.8 418,11.8     411.8,11.8 411.8,18 405.6,18 405.6,24.2 399.4,24.2 399.4,30.4 393.1,30.4 393.1,36.6 386.9,36.6 386.9,42.8 380.7,42.8     380.7,49 374.5,49 374.5,55.2 374.5,61.5 374.5,61.5 374.5,67.7 374.5,73.9 374.5,80.1 380.7,80.1 380.7,86.3 386.9,86.3     393.1,86.3 393.1,92.5 393.1,98.7 399.4,98.7 399.4,104.9 405.6,104.9 411.8,104.9 411.8,111.2 411.8,117.4 418,117.4 418,111.2     424.2,111.2 424.2,117.4 430.4,117.4 430.4,123.6 436.6,123.6 442.8,123.6 442.8,117.4 449,117.4 449,111.2 455.3,111.2     455.3,117.4 461.5,117.4 461.5,111.2 461.5,104.9 467.7,104.9 473.9,104.9 473.9,98.7 480.1,98.7 480.1,92.5 480.1,86.3     486.3,86.3 492.5,86.3 492.5,80.1 498.8,80.1 498.8,73.9 498.8,67.7 498.8,61.5 498.8,61.5 498.8,55.2 498.8,49   "/>
	    <polygon class="st17" points="436.6,136 442.8,136 442.8,129.8 436.6,129.8 430.4,129.8 430.4,136   "/>
	</g>
	<g>
	    <rect x="445.9" y="58.3" width="3.1" height="3.1"/>
	    <rect x="402.5" y="58.3" width="3.1" height="3.1"/>
	    <rect x="449" y="55.2" width="18.6" height="3.1"/>
	    <rect x="405.6" y="55.2" width="18.6" height="3.1"/>
	    <rect x="467.7" y="58.3" width="3.1" height="3.1"/>
	    <rect x="424.2" y="58.3" width="3.1" height="3.1"/>
	    <polygon class="st1" points="467.7,67.7 461.5,67.7 455.3,67.7 449,67.7 449,72.3 445.9,72.3 445.9,75.4 449,75.4 449,80.1     455.3,80.1 461.5,80.1 467.7,80.1 467.7,75.4 470.8,75.4 470.8,72.3 467.7,72.3   "/>
	    <polygon class="st1" points="424.2,67.7 418,67.7 411.8,67.7 405.6,67.7 405.6,72.3 402.5,72.3 402.5,75.4 405.6,75.4 405.6,80.1     411.8,80.1 418,80.1 424.2,80.1 424.2,75.4 427.3,75.4 427.3,72.3 424.2,72.3   "/>
	</g>
	<g>
	    <polygon class="st1" points="436.6,11.8 430.4,11.8 430.4,17.8 424.2,17.8 424.2,24.1 430.4,24.1 430.4,18 436.6,18 442.8,18     442.8,11.8   "/>
	    <polygon class="st1" points="442.8,98.7 442.8,92.5 436.6,92.5 430.4,92.5 430.4,98.7 436.6,98.7   "/>
	    <rect x="442.8" y="18" class="st1" width="6.2" height="6.2"/>
	    <rect x="418" y="24.1" class="st1" width="6.2" height="6.2"/>
	    <rect x="411.8" y="30.3" class="st1" width="6.2" height="6.2"/>
	    <rect x="405.6" y="36.5" class="st1" width="6.2" height="6.2"/>
	    <rect x="449" y="24.2" class="st1" width="6.2" height="6.2"/>
	    <rect x="455.3" y="30.4" class="st1" width="6.2" height="6.2"/>
	    <rect x="461.5" y="36.6" class="st1" width="6.2" height="6.2"/>
	</g>
    </g>
    <rect x="417.8" y="72.1" width="3.1" height="3.1"/>
    <rect x="461.5" y="72.1" width="3.1" height="3.1"/>
    <g>
	<path d="M415.6,421.3h2.8v2.8h-2.8V421.3z M419.4,417.5h2.9v2.8h-2.9V417.5z M419.4,425.1h2.9v2.9h-2.9V425.1z M423.2,413.7h2.9   v2.8h-2.9V413.7z M423.2,428.9h2.9v2.9h-2.9V428.9z"/>
	<path d="M430.8,419.4h2.8v2.9h-2.8V419.4z M430.8,427h2.8v2.8h-2.8V427z M430.8,430.8h2.8v2.8h-2.8V430.8z M434.6,417.5h2.9v2.8   h-2.9V417.5z M434.6,425.1h2.9v2.9h-2.9V425.1z M434.6,432.7h2.9v2.8h-2.9V432.7z M438.4,417.5h2.9v2.8h-2.9V417.5z M438.4,425.1   h2.9v2.9h-2.9V425.1z M438.4,432.7h2.9v2.8h-2.9V432.7z M442.2,419.4h2.8v2.9h-2.8V419.4z M442.2,423.2h2.8v2.8h-2.8V423.2z    M442.2,427h2.8v2.8h-2.8V427z M442.2,430.8h2.8v2.8h-2.8V430.8z"/>
	<path d="M449.8,413.7h2.8v2.8h-2.8V413.7z M449.8,428.9h2.8v2.9h-2.8V428.9z M453.6,417.5h2.9v2.8h-2.9V417.5z M453.6,425.1h2.9   v2.9h-2.9V425.1z M457.4,421.3h2.9v2.8h-2.9V421.3z"/>
    </g>
</svg>
