<svg width="17px" height="17px" viewBox="0 0 17 17" xmlns="http://www.w3.org/2000/svg" xmlns:xlink="http://www.w3.org/1999/xlink">
    <title>Suche</title>
    <defs>
        <polygon id="path-1" points="0 0 17 0 17 17 0 17"></polygon>
    </defs>
    <g stroke="none" stroke-width="1" fill="none" fill-rule="evenodd">
        <g transform="translate(-800.000000, -48.000000)">
            <g transform="translate(800.000000, 48.000000)">
                <mask id="mask-2" fill="white">
                    <use xlink:href="#path-1"></use>
                </mask>
                <g></g>
                <path d="M2.99837549,7.41073779 C2.99837549,4.96343742 5.00681365,2.97249294 7.47542353,2.97249294 C9.94403342,2.97249294 11.9524716,4.96343742 11.9524716,7.41073779 C11.9524716,9.8581946 9.94403342,11.8491391 7.47542353,11.8491391 C5.00681365,11.8491391 2.99837549,9.8581946 2.99837549,7.41073779 L2.99837549,7.41073779 Z M17,14.8979782 L13.6523927,11.5794245 C14.471107,10.3907402 14.9508471,8.95533898 14.9508471,7.41073779 C14.9508471,3.32449868 11.5974008,0 7.47542353,0 C3.35344628,0 0,3.32449868 0,7.41073779 C0,11.4971333 3.35344628,14.821632 7.47542353,14.821632 C8.95693664,14.821632 10.3379253,14.3903076 11.5009793,13.6504698 L14.8798329,17 L17,14.8979782 Z" fill="#ffffff" mask="url(#mask-2)"></path>
            </g>
        </g>
    </g>
</svg>
