<?xml version="1.0" encoding="utf-8"?>
<svg version="1.1" id="Layer_1" xmlns="http://www.w3.org/2000/svg" xmlns:xlink="http://www.w3.org/1999/xlink" x="0px" y="0px"
	 viewBox="0 0 534 68" style="enable-background:new 0 0 534 68;" xml:space="preserve">
<style type="text/css">
	.st0{fill-rule:evenodd;clip-rule:evenodd;fill:#EA6800;}
	.st1{enable-background:new    ;}
	.st2{fill:#FFFFFF;}
</style>
<title>Unterwegs mit</title>
<g id="Über-uns-_x2714_">
	<g id="Über-Jugend-hackt-1200" transform="translate(-53.000000, -2722.000000)">
		<g id="Video" transform="translate(0.000000, 2015.000000)">
			<g id="Group-24" transform="translate(53.000000, 707.000000)">
				<polygon id="Rectangle" class="st0" points="0,68 534,68 534,28.2 28.3,28.2 0,0 0,28.2 				"/>
				<g class="st1">
					<path class="st2" d="M20.4,37.4h2.4v2.4h-2.4V37.4z M20.4,40.6h2.4V43h-2.4V40.6z M20.4,43.8h2.4v2.4h-2.4V43.8z M20.4,47h2.4
						v2.4h-2.4V47z M20.4,50.2h2.4v2.4h-2.4V50.2z M20.4,53.4h2.4v2.4h-2.4V53.4z M23.6,56.6H26V59h-2.4V56.6z M26.8,56.6h2.4V59
						h-2.4V56.6z M30,56.6h2.4V59H30V56.6z M33.2,37.4h2.4v2.4h-2.4V37.4z M33.2,40.6h2.4V43h-2.4V40.6z M33.2,43.8h2.4v2.4h-2.4
						V43.8z M33.2,47h2.4v2.4h-2.4V47z M33.2,50.2h2.4v2.4h-2.4V50.2z M33.2,53.4h2.4v2.4h-2.4V53.4z"/>
					<path class="st2" d="M39.6,37.4H42v2.4h-2.4V37.4z M39.6,40.6H42V43h-2.4V40.6z M39.6,43.8H42v2.4h-2.4V43.8z M39.6,47H42v2.4
						h-2.4V47z M39.6,50.2H42v2.4h-2.4V50.2z M39.6,53.4H42v2.4h-2.4V53.4z M39.6,56.6H42V59h-2.4V56.6z M42.8,43.8h2.4v2.4h-2.4
						V43.8z M46,47h2.4v2.4H46V47z M49.2,50.2h2.4v2.4h-2.4V50.2z M52.4,37.4h2.4v2.4h-2.4V37.4z M52.4,40.6h2.4V43h-2.4V40.6z
						 M52.4,43.8h2.4v2.4h-2.4V43.8z M52.4,47h2.4v2.4h-2.4V47z M52.4,50.2h2.4v2.4h-2.4V50.2z M52.4,53.4h2.4v2.4h-2.4V53.4z
						 M52.4,56.6h2.4V59h-2.4V56.6z"/>
					<path class="st2" d="M58.8,37.4h2.4v2.4h-2.4V37.4z M62,37.4h2.4v2.4H62V37.4z M65.2,37.4h2.4v2.4h-2.4V37.4z M65.2,40.6h2.4
						V43h-2.4V40.6z M65.2,43.8h2.4v2.4h-2.4V43.8z M65.2,47h2.4v2.4h-2.4V47z M65.2,50.2h2.4v2.4h-2.4V50.2z M65.2,53.4h2.4v2.4
						h-2.4V53.4z M65.2,56.6h2.4V59h-2.4V56.6z M68.4,37.4h2.4v2.4h-2.4V37.4z M71.6,37.4H74v2.4h-2.4V37.4z"/>
					<path class="st2" d="M78,39h2.4v2.4H78V39z M78,42.2h2.4v2.4H78V42.2z M78,45.4h2.4v2.4H78V45.4z M78,48.6h2.4V51H78V48.6z
						 M78,51.8h2.4v2.4H78V51.8z M78,55h2.4v2.4H78V55z M81.2,37.4h2.4v2.4h-2.4V37.4z M81.2,47h2.4v2.4h-2.4V47z M81.2,56.6h2.4V59
						h-2.4V56.6z M84.4,37.4h2.4v2.4h-2.4V37.4z M84.4,47h2.4v2.4h-2.4V47z M84.4,56.6h2.4V59h-2.4V56.6z M87.6,37.4H90v2.4h-2.4
						V37.4z M87.6,47H90v2.4h-2.4V47z M87.6,56.6H90V59h-2.4V56.6z M90.8,37.4h2.4v2.4h-2.4V37.4z M90.8,56.6h2.4V59h-2.4V56.6z"/>
					<path class="st2" d="M97.2,37.4h2.4v2.4h-2.4V37.4z M97.2,40.6h2.4V43h-2.4V40.6z M97.2,43.8h2.4v2.4h-2.4V43.8z M97.2,47h2.4
						v2.4h-2.4V47z M97.2,50.2h2.4v2.4h-2.4V50.2z M97.2,53.4h2.4v2.4h-2.4V53.4z M97.2,56.6h2.4V59h-2.4V56.6z M100.4,37.4h2.4v2.4
						h-2.4V37.4z M100.4,47h2.4v2.4h-2.4V47z M103.6,37.4h2.4v2.4h-2.4V37.4z M103.6,47h2.4v2.4h-2.4V47z M103.6,50.2h2.4v2.4h-2.4
						V50.2z M106.8,37.4h2.4v2.4h-2.4V37.4z M106.8,47h2.4v2.4h-2.4V47z M106.8,53.4h2.4v2.4h-2.4V53.4z M110,39h2.4v2.4H110V39z
						 M110,42.2h2.4v2.4H110V42.2z M110,45.4h2.4v2.4H110V45.4z M110,56.6h2.4V59H110V56.6z"/>
					<path class="st2" d="M116.4,37.4h2.4v2.4h-2.4V37.4z M116.4,40.6h2.4V43h-2.4V40.6z M116.4,43.8h2.4v2.4h-2.4V43.8z M116.4,47
						h2.4v2.4h-2.4V47z M116.4,50.2h2.4v2.4h-2.4V50.2z M116.4,53.4h2.4v2.4h-2.4V53.4z M119.6,56.6h2.4V59h-2.4V56.6z M122.8,46.2
						h2.4v2.4h-2.4V46.2z M122.8,49.4h2.4v2.4h-2.4V49.4z M122.8,52.6h2.4V55h-2.4V52.6z M122.8,55.8h2.4v2.4h-2.4V55.8z M126,56.6
						h2.4V59H126V56.6z M129.2,37.4h2.4v2.4h-2.4V37.4z M129.2,40.6h2.4V43h-2.4V40.6z M129.2,43.8h2.4v2.4h-2.4V43.8z M129.2,47
						h2.4v2.4h-2.4V47z M129.2,50.2h2.4v2.4h-2.4V50.2z M129.2,53.4h2.4v2.4h-2.4V53.4z"/>
					<path class="st2" d="M135.6,39h2.4v2.4h-2.4V39z M135.6,42.2h2.4v2.4h-2.4V42.2z M135.6,45.4h2.4v2.4h-2.4V45.4z M135.6,48.6
						h2.4V51h-2.4V48.6z M135.6,51.8h2.4v2.4h-2.4V51.8z M135.6,55h2.4v2.4h-2.4V55z M138.8,37.4h2.4v2.4h-2.4V37.4z M138.8,47h2.4
						v2.4h-2.4V47z M138.8,56.6h2.4V59h-2.4V56.6z M142,37.4h2.4v2.4H142V37.4z M142,47h2.4v2.4H142V47z M142,56.6h2.4V59H142V56.6z
						 M145.2,37.4h2.4v2.4h-2.4V37.4z M145.2,47h2.4v2.4h-2.4V47z M145.2,56.6h2.4V59h-2.4V56.6z M148.4,37.4h2.4v2.4h-2.4V37.4z
						 M148.4,56.6h2.4V59h-2.4V56.6z"/>
					<path class="st2" d="M154.8,39h2.4v2.4h-2.4V39z M154.8,42.2h2.4v2.4h-2.4V42.2z M154.8,45.4h2.4v2.4h-2.4V45.4z M154.8,48.6
						h2.4V51h-2.4V48.6z M154.8,51.8h2.4v2.4h-2.4V51.8z M154.8,55h2.4v2.4h-2.4V55z M158,37.4h2.4v2.4H158V37.4z M158,56.6h2.4V59
						H158V56.6z M161.2,37.4h2.4v2.4h-2.4V37.4z M161.2,48.6h2.4V51h-2.4V48.6z M161.2,56.6h2.4V59h-2.4V56.6z M164.4,37.4h2.4v2.4
						h-2.4V37.4z M164.4,48.6h2.4V51h-2.4V48.6z M164.4,56.6h2.4V59h-2.4V56.6z M167.6,39h2.4v2.4h-2.4V39z M167.6,48.6h2.4V51h-2.4
						V48.6z M167.6,51.8h2.4v2.4h-2.4V51.8z M167.6,55h2.4v2.4h-2.4V55z"/>
					<path class="st2" d="M174,39h2.4v2.4H174V39z M174,42.2h2.4v2.4H174V42.2z M174,45.4h2.4v2.4H174V45.4z M174,55h2.4v2.4H174V55
						z M177.2,37.4h2.4v2.4h-2.4V37.4z M177.2,47h2.4v2.4h-2.4V47z M177.2,56.6h2.4V59h-2.4V56.6z M180.4,37.4h2.4v2.4h-2.4V37.4z
						 M180.4,47h2.4v2.4h-2.4V47z M180.4,56.6h2.4V59h-2.4V56.6z M183.6,37.4h2.4v2.4h-2.4V37.4z M183.6,47h2.4v2.4h-2.4V47z
						 M183.6,56.6h2.4V59h-2.4V56.6z M186.8,39h2.4v2.4h-2.4V39z M186.8,48.6h2.4V51h-2.4V48.6z M186.8,51.8h2.4v2.4h-2.4V51.8z
						 M186.8,55h2.4v2.4h-2.4V55z"/>
					<path class="st2" d="M212.4,37.4h2.4v2.4h-2.4V37.4z M212.4,40.6h2.4V43h-2.4V40.6z M212.4,43.8h2.4v2.4h-2.4V43.8z M212.4,47
						h2.4v2.4h-2.4V47z M212.4,50.2h2.4v2.4h-2.4V50.2z M212.4,53.4h2.4v2.4h-2.4V53.4z M212.4,56.6h2.4V59h-2.4V56.6z M215.6,43.8
						h2.4v2.4h-2.4V43.8z M218.8,47h2.4v2.4h-2.4V47z M222,43.8h2.4v2.4H222V43.8z M225.2,37.4h2.4v2.4h-2.4V37.4z M225.2,40.6h2.4
						V43h-2.4V40.6z M225.2,43.8h2.4v2.4h-2.4V43.8z M225.2,47h2.4v2.4h-2.4V47z M225.2,50.2h2.4v2.4h-2.4V50.2z M225.2,53.4h2.4
						v2.4h-2.4V53.4z M225.2,56.6h2.4V59h-2.4V56.6z"/>
					<path class="st2" d="M231.6,37.4h2.4v2.4h-2.4V37.4z M231.6,56.6h2.4V59h-2.4V56.6z M234.8,37.4h2.4v2.4h-2.4V37.4z
						 M234.8,56.6h2.4V59h-2.4V56.6z M238,37.4h2.4v2.4H238V37.4z M238,40.6h2.4V43H238V40.6z M238,43.8h2.4v2.4H238V43.8z M238,47
						h2.4v2.4H238V47z M238,50.2h2.4v2.4H238V50.2z M238,53.4h2.4v2.4H238V53.4z M238,56.6h2.4V59H238V56.6z M241.2,37.4h2.4v2.4
						h-2.4V37.4z M241.2,56.6h2.4V59h-2.4V56.6z M244.4,37.4h2.4v2.4h-2.4V37.4z M244.4,56.6h2.4V59h-2.4V56.6z"/>
					<path class="st2" d="M250.8,37.4h2.4v2.4h-2.4V37.4z M254,37.4h2.4v2.4H254V37.4z M257.2,37.4h2.4v2.4h-2.4V37.4z M257.2,40.6
						h2.4V43h-2.4V40.6z M257.2,43.8h2.4v2.4h-2.4V43.8z M257.2,47h2.4v2.4h-2.4V47z M257.2,50.2h2.4v2.4h-2.4V50.2z M257.2,53.4
						h2.4v2.4h-2.4V53.4z M257.2,56.6h2.4V59h-2.4V56.6z M260.4,37.4h2.4v2.4h-2.4V37.4z M263.6,37.4h2.4v2.4h-2.4V37.4z"/>
					<path class="st2" d="M289.2,37.4h2.4v2.4h-2.4V37.4z M289.2,40.6h2.4V43h-2.4V40.6z M289.2,51.8h2.4v2.4h-2.4V51.8z M289.2,55
						h2.4v2.4h-2.4V55z M292.4,37.4h2.4v2.4h-2.4V37.4z M292.4,56.6h2.4V59h-2.4V56.6z M295.6,37.4h2.4v2.4h-2.4V37.4z M295.6,56.6
						h2.4V59h-2.4V56.6z M298.8,37.4h2.4v2.4h-2.4V37.4z M298.8,56.6h2.4V59h-2.4V56.6z M302,39h2.4v2.4H302V39z M302,42.2h2.4v2.4
						H302V42.2z M302,45.4h2.4v2.4H302V45.4z M302,48.6h2.4V51H302V48.6z M302,51.8h2.4v2.4H302V51.8z M302,55h2.4v2.4H302V55z"/>
					<path class="st2" d="M308.4,37.4h2.4v2.4h-2.4V37.4z M308.4,40.6h2.4V43h-2.4V40.6z M308.4,43.8h2.4v2.4h-2.4V43.8z M308.4,47
						h2.4v2.4h-2.4V47z M308.4,50.2h2.4v2.4h-2.4V50.2z M308.4,53.4h2.4v2.4h-2.4V53.4z M311.6,56.6h2.4V59h-2.4V56.6z M314.8,56.6
						h2.4V59h-2.4V56.6z M318,56.6h2.4V59H318V56.6z M321.2,37.4h2.4v2.4h-2.4V37.4z M321.2,40.6h2.4V43h-2.4V40.6z M321.2,43.8h2.4
						v2.4h-2.4V43.8z M321.2,47h2.4v2.4h-2.4V47z M321.2,50.2h2.4v2.4h-2.4V50.2z M321.2,53.4h2.4v2.4h-2.4V53.4z"/>
					<path class="st2" d="M327.6,39h2.4v2.4h-2.4V39z M327.6,42.2h2.4v2.4h-2.4V42.2z M327.6,45.4h2.4v2.4h-2.4V45.4z M327.6,48.6
						h2.4V51h-2.4V48.6z M327.6,51.8h2.4v2.4h-2.4V51.8z M327.6,55h2.4v2.4h-2.4V55z M330.8,37.4h2.4v2.4h-2.4V37.4z M330.8,56.6
						h2.4V59h-2.4V56.6z M334,37.4h2.4v2.4H334V37.4z M334,48.6h2.4V51H334V48.6z M334,56.6h2.4V59H334V56.6z M337.2,37.4h2.4v2.4
						h-2.4V37.4z M337.2,48.6h2.4V51h-2.4V48.6z M337.2,56.6h2.4V59h-2.4V56.6z M340.4,39h2.4v2.4h-2.4V39z M340.4,48.6h2.4V51h-2.4
						V48.6z M340.4,51.8h2.4v2.4h-2.4V51.8z M340.4,55h2.4v2.4h-2.4V55z"/>
					<path class="st2" d="M346.8,39h2.4v2.4h-2.4V39z M346.8,42.2h2.4v2.4h-2.4V42.2z M346.8,45.4h2.4v2.4h-2.4V45.4z M346.8,48.6
						h2.4V51h-2.4V48.6z M346.8,51.8h2.4v2.4h-2.4V51.8z M346.8,55h2.4v2.4h-2.4V55z M350,37.4h2.4v2.4H350V37.4z M350,47h2.4v2.4
						H350V47z M350,56.6h2.4V59H350V56.6z M353.2,37.4h2.4v2.4h-2.4V37.4z M353.2,47h2.4v2.4h-2.4V47z M353.2,56.6h2.4V59h-2.4V56.6
						z M356.4,37.4h2.4v2.4h-2.4V37.4z M356.4,47h2.4v2.4h-2.4V47z M356.4,56.6h2.4V59h-2.4V56.6z M359.6,37.4h2.4v2.4h-2.4V37.4z
						 M359.6,56.6h2.4V59h-2.4V56.6z"/>
					<path class="st2" d="M366,37.4h2.4v2.4H366V37.4z M366,40.6h2.4V43H366V40.6z M366,43.8h2.4v2.4H366V43.8z M366,47h2.4v2.4H366
						V47z M366,50.2h2.4v2.4H366V50.2z M366,53.4h2.4v2.4H366V53.4z M366,56.6h2.4V59H366V56.6z M369.2,43.8h2.4v2.4h-2.4V43.8z
						 M372.4,47h2.4v2.4h-2.4V47z M375.6,50.2h2.4v2.4h-2.4V50.2z M378.8,37.4h2.4v2.4h-2.4V37.4z M378.8,40.6h2.4V43h-2.4V40.6z
						 M378.8,43.8h2.4v2.4h-2.4V43.8z M378.8,47h2.4v2.4h-2.4V47z M378.8,50.2h2.4v2.4h-2.4V50.2z M378.8,53.4h2.4v2.4h-2.4V53.4z
						 M378.8,56.6h2.4V59h-2.4V56.6z"/>
					<path class="st2" d="M385.2,37.4h2.4v2.4h-2.4V37.4z M385.2,40.6h2.4V43h-2.4V40.6z M385.2,43.8h2.4v2.4h-2.4V43.8z M385.2,47
						h2.4v2.4h-2.4V47z M385.2,50.2h2.4v2.4h-2.4V50.2z M385.2,53.4h2.4v2.4h-2.4V53.4z M385.2,56.6h2.4V59h-2.4V56.6z M388.4,37.4
						h2.4v2.4h-2.4V37.4z M388.4,56.6h2.4V59h-2.4V56.6z M391.6,37.4h2.4v2.4h-2.4V37.4z M391.6,56.6h2.4V59h-2.4V56.6z M394.8,37.4
						h2.4v2.4h-2.4V37.4z M394.8,56.6h2.4V59h-2.4V56.6z M398,39h2.4v2.4H398V39z M398,42.2h2.4v2.4H398V42.2z M398,45.4h2.4v2.4
						H398V45.4z M398,48.6h2.4V51H398V48.6z M398,51.8h2.4v2.4H398V51.8z M398,55h2.4v2.4H398V55z"/>
					<path class="st2" d="M423.6,37.4h2.4v2.4h-2.4V37.4z M423.6,40.6h2.4V43h-2.4V40.6z M423.6,43.8h2.4v2.4h-2.4V43.8z M423.6,47
						h2.4v2.4h-2.4V47z M423.6,50.2h2.4v2.4h-2.4V50.2z M423.6,53.4h2.4v2.4h-2.4V53.4z M423.6,56.6h2.4V59h-2.4V56.6z M426.8,47
						h2.4v2.4h-2.4V47z M430,47h2.4v2.4H430V47z M433.2,47h2.4v2.4h-2.4V47z M436.4,37.4h2.4v2.4h-2.4V37.4z M436.4,40.6h2.4V43
						h-2.4V40.6z M436.4,43.8h2.4v2.4h-2.4V43.8z M436.4,47h2.4v2.4h-2.4V47z M436.4,50.2h2.4v2.4h-2.4V50.2z M436.4,53.4h2.4v2.4
						h-2.4V53.4z M436.4,56.6h2.4V59h-2.4V56.6z"/>
					<path class="st2" d="M442.8,40.6h2.4V43h-2.4V40.6z M442.8,43.8h2.4v2.4h-2.4V43.8z M442.8,47h2.4v2.4h-2.4V47z M442.8,50.2
						h2.4v2.4h-2.4V50.2z M442.8,53.4h2.4v2.4h-2.4V53.4z M442.8,56.6h2.4V59h-2.4V56.6z M446,38.2h2.4v2.4H446V38.2z M446,48.6h2.4
						V51H446V48.6z M449.2,37.4h2.4v2.4h-2.4V37.4z M449.2,48.6h2.4V51h-2.4V48.6z M452.4,38.2h2.4v2.4h-2.4V38.2z M452.4,48.6h2.4
						V51h-2.4V48.6z M455.6,40.6h2.4V43h-2.4V40.6z M455.6,43.8h2.4v2.4h-2.4V43.8z M455.6,47h2.4v2.4h-2.4V47z M455.6,50.2h2.4v2.4
						h-2.4V50.2z M455.6,53.4h2.4v2.4h-2.4V53.4z M455.6,56.6h2.4V59h-2.4V56.6z"/>
					<path class="st2" d="M462,39h2.4v2.4H462V39z M462,42.2h2.4v2.4H462V42.2z M462,45.4h2.4v2.4H462V45.4z M462,48.6h2.4V51H462
						V48.6z M462,51.8h2.4v2.4H462V51.8z M462,55h2.4v2.4H462V55z M465.2,37.4h2.4v2.4h-2.4V37.4z M465.2,56.6h2.4V59h-2.4V56.6z
						 M468.4,37.4h2.4v2.4h-2.4V37.4z M468.4,56.6h2.4V59h-2.4V56.6z M471.6,37.4h2.4v2.4h-2.4V37.4z M471.6,56.6h2.4V59h-2.4V56.6z
						 M474.8,39h2.4v2.4h-2.4V39z M474.8,55h2.4v2.4h-2.4V55z"/>
					<path class="st2" d="M481.2,37.4h2.4v2.4h-2.4V37.4z M481.2,40.6h2.4V43h-2.4V40.6z M481.2,43.8h2.4v2.4h-2.4V43.8z M481.2,47
						h2.4v2.4h-2.4V47z M481.2,50.2h2.4v2.4h-2.4V50.2z M481.2,53.4h2.4v2.4h-2.4V53.4z M481.2,56.6h2.4V59h-2.4V56.6z M484.4,47
						h2.4v2.4h-2.4V47z M487.6,43.8h2.4v2.4h-2.4V43.8z M487.6,50.2h2.4v2.4h-2.4V50.2z M490.8,40.6h2.4V43h-2.4V40.6z M490.8,53.4
						h2.4v2.4h-2.4V53.4z M494,37.4h2.4v2.4H494V37.4z M494,56.6h2.4V59H494V56.6z"/>
					<path class="st2" d="M500.4,37.4h2.4v2.4h-2.4V37.4z M503.6,37.4h2.4v2.4h-2.4V37.4z M506.8,37.4h2.4v2.4h-2.4V37.4z
						 M506.8,40.6h2.4V43h-2.4V40.6z M506.8,43.8h2.4v2.4h-2.4V43.8z M506.8,47h2.4v2.4h-2.4V47z M506.8,50.2h2.4v2.4h-2.4V50.2z
						 M506.8,53.4h2.4v2.4h-2.4V53.4z M506.8,56.6h2.4V59h-2.4V56.6z M510,37.4h2.4v2.4H510V37.4z M513.2,37.4h2.4v2.4h-2.4V37.4z"
						/>
				</g>
			</g>
		</g>
	</g>
</g>
</svg>
