<svg  xmlns="http://www.w3.org/2000/svg" xmlns:xlink="http://www.w3.org/1999/xlink" x="0px" y="0px" viewBox="0 0 492.5 79.5" style="enable-background:new 0 0 492.5 79.5;" xml:space="preserve">
    <style type="text/css">
	.changecolor{fill: var(--event-single-color);}
    </style>
    <defs>
    <filter id="shadow">
      <feDropShadow dx="1" dy="1" stdDeviation="1.6"/>
    </filter>
  </defs>
    <title>Anmelden</title>
    <g transform="translate(0.000000, 2510.000000)">
        <g>
	    <polygon class="changecolor" points="57.9,-2501.3 480.6,-2501.3 480.6,-2441.3 57.9,-2441.3"/>
	    <g>
		<path fill="#FFFFFF" d="M98.9-2484.6h3.1v3.1h-3.1V-2484.6z M98.9-2480.4h3.1v3.2h-3.1V-2480.4z M98.9-2465.7h3.1v3.2h-3.1V-2465.7z M98.9-2461.5h3.1v3.2h-3.1V-2461.5z M103.1-2484.6h3.1v3.1h-3.1V-2484.6z M103.1-2459.4h3.1v3.2h-3.1V-2459.4z M107.3-2484.6 h3.1v3.1h-3.1V-2484.6z M107.3-2459.4h3.1v3.2h-3.1V-2459.4z M111.5-2484.6h3.1v3.1h-3.1V-2484.6z M111.5-2459.4h3.1v3.2h-3.1 V-2459.4z M115.7-2482.5h3.2v3.2h-3.2V-2482.5z M115.7-2478.3h3.2v3.1h-3.2V-2478.3z M115.7-2474.1h3.2v3.1h-3.2V-2474.1z M115.7-2469.9h3.2v3.2h-3.2V-2469.9z M115.7-2465.7h3.2v3.2h-3.2V-2465.7z M115.7-2461.5h3.2v3.2h-3.2V-2461.5z"/>
		<path fill="#FFFFFF" d="M124.1-2482.5h3.1v3.2h-3.1V-2482.5z M124.1-2478.3h3.1v3.1h-3.1V-2478.3z M124.1-2474.1h3.1v3.1h-3.1 V-2474.1z M124.1-2469.9h3.1v3.2h-3.1V-2469.9z M124.1-2465.7h3.1v3.2h-3.1V-2465.7z M124.1-2461.5h3.1v3.2h-3.1V-2461.5z M128.3-2484.6h3.1v3.1h-3.1V-2484.6z M128.3-2472h3.1v3.2h-3.1V-2472z M128.3-2459.4h3.1v3.2h-3.1V-2459.4z M132.5-2484.6h3.1 v3.1h-3.1V-2484.6z M132.5-2472h3.1v3.2h-3.1V-2472z M132.5-2459.4h3.1v3.2h-3.1V-2459.4z M136.7-2484.6h3.1v3.1h-3.1V-2484.6z M136.7-2472h3.1v3.2h-3.1V-2472z M136.7-2459.4h3.1v3.2h-3.1V-2459.4z M140.9-2484.6h3.2v3.1h-3.2V-2484.6z M140.9-2459.4h3.2 v3.2h-3.2V-2459.4z"/>
		<path fill="#FFFFFF" d="M149.3-2484.6h3.1v3.1h-3.1V-2484.6z M153.5-2484.6h3.1v3.1h-3.1V-2484.6z M157.7-2484.6h3.1v3.1h-3.1 V-2484.6z M157.7-2480.4h3.1v3.2h-3.1V-2480.4z M157.7-2476.2h3.1v3.2h-3.1V-2476.2z M157.7-2472h3.1v3.2h-3.1V-2472z M157.7-2467.8h3.1v3.1h-3.1V-2467.8z M157.7-2463.6h3.1v3.1h-3.1V-2463.6z M157.7-2459.4h3.1v3.2h-3.1V-2459.4z M161.9-2484.6 h3.1v3.1h-3.1V-2484.6z M166.1-2484.6h3.2v3.1h-3.2V-2484.6z"/>
		<path fill="#FFFFFF" d="M174.5-2484.6h3.1v3.1h-3.1V-2484.6z M174.5-2463.6h3.1v3.1h-3.1V-2463.6z M174.5-2459.4h3.1v3.2h-3.1 V-2459.4z M178.7-2484.6h3.1v3.1h-3.1V-2484.6z M178.7-2467.8h3.1v3.1h-3.1V-2467.8z M178.7-2459.4h3.1v3.2h-3.1V-2459.4z M182.9-2484.6h3.1v3.1h-3.1V-2484.6z M182.9-2472h3.1v3.2h-3.1V-2472z M182.9-2459.4h3.1v3.2h-3.1V-2459.4z M187.1-2484.6h3.1 v3.1h-3.1V-2484.6z M187.1-2476.2h3.1v3.2h-3.1V-2476.2z M187.1-2459.4h3.1v3.2h-3.1V-2459.4z M191.3-2484.6h3.2v3.1h-3.2 V-2484.6z M191.3-2480.4h3.2v3.2h-3.2V-2480.4z M191.3-2459.4h3.2v3.2h-3.2V-2459.4z"/>
		<path fill="#FFFFFF" d="M199.7-2484.6h3.1v3.1h-3.1V-2484.6z M203.9-2484.6h3.1v3.1h-3.1V-2484.6z M208.1-2484.6h3.1v3.1h-3.1 V-2484.6z M208.1-2480.4h3.1v3.2h-3.1V-2480.4z M208.1-2476.2h3.1v3.2h-3.1V-2476.2z M208.1-2472h3.1v3.2h-3.1V-2472z M208.1-2467.8h3.1v3.1h-3.1V-2467.8z M208.1-2463.6h3.1v3.1h-3.1V-2463.6z M208.1-2459.4h3.1v3.2h-3.1V-2459.4z M212.3-2484.6 h3.1v3.1h-3.1V-2484.6z M216.5-2484.6h3.2v3.1h-3.2V-2484.6z"/>
		<path fill="#FFFFFF" d="M250.1-2480.4h3.1v3.2h-3.1V-2480.4z M250.1-2476.2h3.1v3.2h-3.1V-2476.2z M250.1-2472h3.1v3.2h-3.1V-2472z M250.1-2467.8h3.1v3.1h-3.1V-2467.8z M250.1-2463.6h3.1v3.1h-3.1V-2463.6z M250.1-2459.4h3.1v3.2h-3.1V-2459.4z M254.3-2483.6 h3.1v3.1h-3.1V-2483.6z M254.3-2469.9h3.1v3.2h-3.1V-2469.9z M258.5-2484.6h3.1v3.1h-3.1V-2484.6z M258.5-2469.9h3.1v3.2h-3.1 V-2469.9z M262.7-2483.6h3.1v3.1h-3.1V-2483.6z M262.7-2469.9h3.1v3.2h-3.1V-2469.9z M266.9-2480.4h3.2v3.2h-3.2V-2480.4z M266.9-2476.2h3.2v3.2h-3.2V-2476.2z M266.9-2472h3.2v3.2h-3.2V-2472z M266.9-2467.8h3.2v3.1h-3.2V-2467.8z M266.9-2463.6h3.2 v3.1h-3.2V-2463.6z M266.9-2459.4h3.2v3.2h-3.2V-2459.4z"/>
		<path fill="#FFFFFF" d="M275.3-2484.6h3.1v3.1h-3.1V-2484.6z M275.3-2480.4h3.1v3.2h-3.1V-2480.4z M275.3-2476.2h3.1v3.2h-3.1 V-2476.2z M275.3-2472h3.1v3.2h-3.1V-2472z M275.3-2467.8h3.1v3.1h-3.1V-2467.8z M275.3-2463.6h3.1v3.1h-3.1V-2463.6z M275.3-2459.4h3.1v3.2h-3.1V-2459.4z M279.5-2476.2h3.1v3.2h-3.1V-2476.2z M283.7-2472h3.2v3.2h-3.2V-2472z M287.9-2467.8h3.2 v3.1h-3.2V-2467.8z M292.1-2484.6h3.2v3.1h-3.2V-2484.6z M292.1-2480.4h3.2v3.2h-3.2V-2480.4z M292.1-2476.2h3.2v3.2h-3.2 V-2476.2z M292.1-2472h3.2v3.2h-3.2V-2472z M292.1-2467.8h3.2v3.1h-3.2V-2467.8z M292.1-2463.6h3.2v3.1h-3.2V-2463.6z M292.1-2459.4h3.2v3.2h-3.2V-2459.4z"/>
		<path fill="#FFFFFF" d="M300.5-2484.6h3.1v3.1h-3.1V-2484.6z M300.5-2480.4h3.1v3.2h-3.1V-2480.4z M300.5-2476.2h3.1v3.2h-3.1 V-2476.2z M300.5-2472h3.1v3.2h-3.1V-2472z M300.5-2467.8h3.1v3.1h-3.1V-2467.8z M300.5-2463.6h3.1v3.1h-3.1V-2463.6z M300.5-2459.4h3.1v3.2h-3.1V-2459.4z M304.7-2476.2h3.1v3.2h-3.1V-2476.2z M308.9-2472h3.2v3.2h-3.2V-2472z M313.1-2476.2h3.2 v3.2h-3.2V-2476.2z M317.3-2484.6h3.2v3.1h-3.2V-2484.6z M317.3-2480.4h3.2v3.2h-3.2V-2480.4z M317.3-2476.2h3.2v3.2h-3.2 V-2476.2z M317.3-2472h3.2v3.2h-3.2V-2472z M317.3-2467.8h3.2v3.1h-3.2V-2467.8z M317.3-2463.6h3.2v3.1h-3.2V-2463.6z M317.3-2459.4h3.2v3.2h-3.2V-2459.4z"/>
		<path fill="#FFFFFF" d="M325.7-2482.5h3.2v3.2h-3.2V-2482.5z M325.7-2478.3h3.2v3.1h-3.2V-2478.3z M325.7-2474.1h3.2v3.1h-3.2 V-2474.1z M325.7-2469.9h3.2v3.2h-3.2V-2469.9z M325.7-2465.7h3.2v3.2h-3.2V-2465.7z M325.7-2461.5h3.2v3.2h-3.2V-2461.5z M329.9-2484.6h3.2v3.1h-3.2V-2484.6z M329.9-2472h3.2v3.2h-3.2V-2472z M329.9-2459.4h3.2v3.2h-3.2V-2459.4z M334.1-2484.6h3.1 v3.1h-3.1V-2484.6z M334.1-2472h3.1v3.2h-3.1V-2472z M334.1-2459.4h3.1v3.2h-3.1V-2459.4z M338.3-2484.6h3.1v3.1h-3.1V-2484.6z M338.3-2472h3.1v3.2h-3.1V-2472z M338.3-2459.4h3.1v3.2h-3.1V-2459.4z M342.5-2484.6h3.2v3.1h-3.2V-2484.6z M342.5-2459.4h3.2 v3.2h-3.2V-2459.4z"/>
		<path fill="#FFFFFF" d="M350.9-2484.6h3.2v3.1h-3.2V-2484.6z M350.9-2480.4h3.2v3.2h-3.2V-2480.4z M350.9-2476.2h3.2v3.2h-3.2 V-2476.2z M350.9-2472h3.2v3.2h-3.2V-2472z M350.9-2467.8h3.2v3.1h-3.2V-2467.8z M350.9-2463.6h3.2v3.1h-3.2V-2463.6z M350.9-2459.4h3.2v3.2h-3.2V-2459.4z M355.1-2459.4h3.2v3.2h-3.2V-2459.4z M359.3-2459.4h3.1v3.2h-3.1V-2459.4z M363.5-2459.4 h3.1v3.2h-3.1V-2459.4z M367.7-2459.4h3.2v3.2h-3.2V-2459.4z"/>
		<path fill="#FFFFFF" d="M376.1-2484.6h3.1v3.1h-3.1V-2484.6z M376.1-2480.4h3.1v3.2h-3.1V-2480.4z M376.1-2476.2h3.1v3.2h-3.1 V-2476.2z M376.1-2472h3.1v3.2h-3.1V-2472z M376.1-2467.8h3.1v3.1h-3.1V-2467.8z M376.1-2463.6h3.1v3.1h-3.1V-2463.6z M376.1-2459.4h3.1v3.2h-3.1V-2459.4z M380.3-2484.6h3.1v3.1h-3.1V-2484.6z M380.3-2459.4h3.1v3.2h-3.1V-2459.4z M384.5-2484.6 h3.2v3.1h-3.2V-2484.6z M384.5-2459.4h3.2v3.2h-3.2V-2459.4z M388.7-2484.6h3.2v3.1h-3.2V-2484.6z M388.7-2459.4h3.2v3.2h-3.2 V-2459.4z M392.9-2482.5h3.2v3.2h-3.2V-2482.5z M392.9-2478.3h3.2v3.1h-3.2V-2478.3z M392.9-2474.1h3.2v3.1h-3.2V-2474.1z M392.9-2469.9h3.2v3.2h-3.2V-2469.9z M392.9-2465.7h3.2v3.2h-3.2V-2465.7z M392.9-2461.5h3.2v3.2h-3.2V-2461.5z"/>
		<path fill="#FFFFFF" d="M401.3-2482.5h3.1v3.2h-3.1V-2482.5z M401.3-2478.3h3.1v3.1h-3.1V-2478.3z M401.3-2474.1h3.1v3.1h-3.1 V-2474.1z M401.3-2469.9h3.1v3.2h-3.1V-2469.9z M401.3-2465.7h3.1v3.2h-3.1V-2465.7z M401.3-2461.5h3.1v3.2h-3.1V-2461.5z M405.5-2484.6h3.1v3.1h-3.1V-2484.6z M405.5-2472h3.1v3.2h-3.1V-2472z M405.5-2459.4h3.1v3.2h-3.1V-2459.4z M409.7-2484.6h3.2 v3.1h-3.2V-2484.6z M409.7-2472h3.2v3.2h-3.2V-2472z M409.7-2459.4h3.2v3.2h-3.2V-2459.4z M413.9-2484.6h3.2v3.1h-3.2V-2484.6z M413.9-2472h3.2v3.2h-3.2V-2472z M413.9-2459.4h3.2v3.2h-3.2V-2459.4z M418.1-2484.6h3.2v3.1h-3.2V-2484.6z M418.1-2459.4h3.2 v3.2h-3.2V-2459.4z"/>
		<path fill="#FFFFFF" d="M426.5-2484.6h3.2v3.1h-3.2V-2484.6z M426.5-2480.4h3.2v3.2h-3.2V-2480.4z M426.5-2476.2h3.2v3.2h-3.2 V-2476.2z M426.5-2472h3.2v3.2h-3.2V-2472z M426.5-2467.8h3.2v3.1h-3.2V-2467.8z M426.5-2463.6h3.2v3.1h-3.2V-2463.6z M426.5-2459.4h3.2v3.2h-3.2V-2459.4z M430.7-2476.2h3.2v3.2h-3.2V-2476.2z M434.9-2472h3.1v3.2h-3.1V-2472z M439.1-2467.8h3.1 v3.1h-3.1V-2467.8z M443.3-2484.6h3.2v3.1h-3.2V-2484.6z M443.3-2480.4h3.2v3.2h-3.2V-2480.4z M443.3-2476.2h3.2v3.2h-3.2 V-2476.2z M443.3-2472h3.2v3.2h-3.2V-2472z M443.3-2467.8h3.2v3.1h-3.2V-2467.8z M443.3-2463.6h3.2v3.1h-3.2V-2463.6z M443.3-2459.4h3.2v3.2h-3.2V-2459.4z"/>
	    </g>
	</g>
    </g>
    <g>
        <path style="filter:url(#shadow);" class="changecolor" d="M63.3,14.3V8.8H52.4v5.5H47v5.5H30.6v-5.5h-5.5V8.8H14.2v5.5H8.8v43.6h5.5v5.5h5.5v5.5h38.2 v-5.5h5.5v-5.5h5.5V14.3H63.3z M63.3,52.5h-5.5v5.5h-5.5v5.5H25.1v-5.5h-5.5v-5.5h-5.5V36.1h5.5v-5.5h38.2v5.5h5.5V52.5z"/>
	<polygon fill="#FFFFFF" points="25.1,63.4 25.1,63.4 25.1,63.4 25.1,57.9 19.7,57.9 19.7,52.5 14.2,52.5 14.2,36.1 19.7,36.1 19.7,30.6 57.9,30.6 57.9,36.1 63.3,36.1 63.3,52.5 57.9,52.5 57.9,57.9 52.4,57.9 52.4,63.4 "/>
	<g>
	    <rect x="19.7" y="41.5" width="5.5" height="5.5"/>
	    <rect x="52.4" y="41.5" width="5.5" height="5.5"/>
	    <polygon points="41.5,52.5 36.1,52.5 36.1,47 30.6,47 30.6,57.9 47,57.9 47,47 41.5,47"/>
	</g>


    </g>
</svg>
