<?xml version="1.0" encoding="utf-8"?>
<svg version="1.1" id="Layer_1" xmlns="http://www.w3.org/2000/svg" xmlns:xlink="http://www.w3.org/1999/xlink" x="0px" y="0px"
	 viewBox="0 0 654.1 79.5" style="enable-background:new 0 0 654.1 79.5;" xml:space="preserve">
<style type="text/css">
	.st0{fill-rule:evenodd;clip-rule:evenodd;fill:#00B48D;}
	.st1{fill:#FFFFFF;}
	.changecolor{fill:#00B48D;}
</style>
<title>Group 2</title>
<g id="Group-39" transform="translate(0.000000, 2510.000000)">
	<g id="Group-2">
		<polygon id="Rectangle" class="st0" points="57.9,-2501.3 655,-2501.3 655,-2441.3 57.9,-2441.3 		"/>
	</g>
</g>
<g>
	<g>
		<g>
			<polygon id="White_12_" class="st1" points="25.1,63.4 25.1,63.4 25.1,63.4 25.1,57.9 19.7,57.9 19.7,52.5 14.2,52.5 14.2,36.1 
				19.7,36.1 19.7,30.6 57.9,30.6 57.9,36.1 63.3,36.1 63.3,52.5 57.9,52.5 57.9,57.9 52.4,57.9 52.4,63.4 			"/>
			<g id="Eyes_9_">
				<rect x="19.7" y="41.5" width="5.5" height="5.5"/>
				<rect x="52.4" y="41.5" width="5.5" height="5.5"/>
				<polygon points="41.5,52.5 36.1,52.5 36.1,47 30.6,47 30.6,57.9 47,57.9 47,47 41.5,47 				"/>
			</g>
			<path id="Body_12_" class="changecolor" d="M63.3,14.3V8.8H52.4v5.5H47v5.5H30.6v-5.5h-5.5V8.8H14.2v5.5H8.8v43.6h5.5v5.5h5.5v5.5H58
				v-5.5h5.5v-5.5H69V14.3H63.3z M63.3,52.5h-5.5V58h-5.5v5.5H25.1V58h-5.5v-5.5h-5.5V36.1h5.5v-5.5h38.2v5.5h5.5
				C63.3,36.1,63.3,52.5,63.3,52.5z"/>
		</g>
	</g>
</g>
<g>
	<path class="st1" d="M98.6,29.6h3.1v3.1h-3.1V29.6z M98.6,33.8h3.1v3.2h-3.1V33.8z M98.6,38h3.1v3.2h-3.1V38z M98.6,42.2h3.1v3.2
		h-3.1V42.2z M98.6,46.4h3.1v3.1h-3.1V46.4z M98.6,50.6h3.1v3.1h-3.1V50.6z M102.8,26.4h3.1v3.1h-3.1V26.4z M102.8,40.1h3.1v3.1
		h-3.1V40.1z M107,25.4h3.1v3.1H107V25.4z M107,40.1h3.1v3.1H107V40.1z M111.2,26.4h3.1v3.1h-3.1V26.4z M111.2,40.1h3.1v3.1h-3.1
		V40.1z M115.4,29.6h3.2v3.1h-3.2V29.6z M115.4,33.8h3.2v3.2h-3.2V33.8z M115.4,38h3.2v3.2h-3.2V38z M115.4,42.2h3.2v3.2h-3.2V42.2z
		 M115.4,46.4h3.2v3.1h-3.2V46.4z M115.4,50.6h3.2v3.1h-3.2V50.6z"/>
	<path class="st1" d="M123.8,25.4h3.1v3.1h-3.1V25.4z M123.8,29.6h3.1v3.1h-3.1V29.6z M123.8,33.8h3.1v3.2h-3.1V33.8z M123.8,38h3.1
		v3.2h-3.1V38z M123.8,42.2h3.1v3.2h-3.1V42.2z M123.8,46.4h3.1v3.1h-3.1V46.4z M123.8,50.6h3.1v3.1h-3.1V50.6z M128,33.8h3.1v3.2
		H128V33.8z M132.2,38h3.1v3.2h-3.1V38z M136.4,42.2h3.1v3.2h-3.1V42.2z M140.6,25.4h3.2v3.1h-3.2V25.4z M140.6,29.6h3.2v3.1h-3.2
		V29.6z M140.6,33.8h3.2v3.2h-3.2V33.8z M140.6,38h3.2v3.2h-3.2V38z M140.6,42.2h3.2v3.2h-3.2V42.2z M140.6,46.4h3.2v3.1h-3.2V46.4z
		 M140.6,50.6h3.2v3.1h-3.2V50.6z"/>
	<path class="st1" d="M149,25.4h3.1v3.1H149V25.4z M149,29.6h3.1v3.1H149V29.6z M149,33.8h3.1v3.2H149V33.8z M149,38h3.1v3.2H149V38
		z M149,42.2h3.1v3.2H149V42.2z M149,46.4h3.1v3.1H149V46.4z M149,50.6h3.1v3.1H149V50.6z M153.2,33.8h3.1v3.2h-3.1V33.8z M157.4,38
		h3.1v3.2h-3.1V38z M161.6,33.8h3.1v3.2h-3.1V33.8z M165.8,25.4h3.2v3.1h-3.2V25.4z M165.8,29.6h3.2v3.1h-3.2V29.6z M165.8,33.8h3.2
		v3.2h-3.2V33.8z M165.8,38h3.2v3.2h-3.2V38z M165.8,42.2h3.2v3.2h-3.2V42.2z M165.8,46.4h3.2v3.1h-3.2V46.4z M165.8,50.6h3.2v3.1
		h-3.2V50.6z"/>
	<path class="st1" d="M174.2,27.5h3.1v3.1h-3.1V27.5z M174.2,31.7h3.1v3.1h-3.1V31.7z M174.2,35.9h3.1V39h-3.1V35.9z M174.2,40.1
		h3.1v3.1h-3.1V40.1z M174.2,44.3h3.1v3.2h-3.1V44.3z M174.2,48.5h3.1v3.2h-3.1V48.5z M178.4,25.4h3.1v3.1h-3.1V25.4z M178.4,38h3.1
		v3.2h-3.1V38z M178.4,50.6h3.1v3.1h-3.1V50.6z M182.6,25.4h3.1v3.1h-3.1V25.4z M182.6,38h3.1v3.2h-3.1V38z M182.6,50.6h3.1v3.1
		h-3.1V50.6z M186.8,25.4h3.1v3.1h-3.1V25.4z M186.8,38h3.1v3.2h-3.1V38z M186.8,50.6h3.1v3.1h-3.1V50.6z M191,25.4h3.2v3.1H191
		V25.4z M191,50.6h3.2v3.1H191V50.6z"/>
	<path class="st1" d="M199.4,25.4h3.1v3.1h-3.1V25.4z M199.4,29.6h3.1v3.1h-3.1V29.6z M199.4,33.8h3.1v3.2h-3.1V33.8z M199.4,38h3.1
		v3.2h-3.1V38z M199.4,42.2h3.1v3.2h-3.1V42.2z M199.4,46.4h3.1v3.1h-3.1V46.4z M199.4,50.6h3.1v3.1h-3.1V50.6z M203.6,50.6h3.1v3.1
		h-3.1V50.6z M207.8,50.6h3.1v3.1h-3.1V50.6z M212,50.6h3.1v3.1H212V50.6z M216.2,50.6h3.2v3.1h-3.2V50.6z"/>
	<path class="st1" d="M224.6,25.4h3.1v3.1h-3.1V25.4z M224.6,29.6h3.1v3.1h-3.1V29.6z M224.6,33.8h3.1v3.2h-3.1V33.8z M224.6,38h3.1
		v3.2h-3.1V38z M224.6,42.2h3.1v3.2h-3.1V42.2z M224.6,46.4h3.1v3.1h-3.1V46.4z M224.6,50.6h3.1v3.1h-3.1V50.6z M228.8,25.4h3.1v3.1
		h-3.1V25.4z M228.8,50.6h3.1v3.1h-3.1V50.6z M233,25.4h3.1v3.1H233V25.4z M233,50.6h3.1v3.1H233V50.6z M237.2,25.4h3.1v3.1h-3.1
		V25.4z M237.2,50.6h3.1v3.1h-3.1V50.6z M241.4,27.5h3.2v3.1h-3.2V27.5z M241.4,31.7h3.2v3.1h-3.2V31.7z M241.4,35.9h3.2V39h-3.2
		V35.9z M241.4,40.1h3.2v3.1h-3.2V40.1z M241.4,44.3h3.2v3.2h-3.2V44.3z M241.4,48.5h3.2v3.2h-3.2V48.5z"/>
	<path class="st1" d="M249.8,25.4h3.2v3.1h-3.2V25.4z M249.8,29.6h3.2v3.1h-3.2V29.6z M249.8,33.8h3.2v3.2h-3.2V33.8z M249.8,38h3.2
		v3.2h-3.2V38z M249.8,42.2h3.2v3.2h-3.2V42.2z M249.8,46.4h3.2v3.1h-3.2V46.4z M254,50.6h3.2v3.1H254V50.6z M258.2,50.6h3.1v3.1
		h-3.1V50.6z M262.4,50.6h3.2v3.1h-3.2V50.6z M266.6,25.4h3.2v3.1h-3.2V25.4z M266.6,29.6h3.2v3.1h-3.2V29.6z M266.6,33.8h3.2v3.2
		h-3.2V33.8z M266.6,38h3.2v3.2h-3.2V38z M266.6,42.2h3.2v3.2h-3.2V42.2z M266.6,46.4h3.2v3.1h-3.2V46.4z"/>
	<path class="st1" d="M275,25.4h3.2v3.1H275V25.4z M275,29.6h3.2v3.1H275V29.6z M275,33.8h3.2v3.2H275V33.8z M275,38h3.2v3.2H275V38
		z M275,42.2h3.2v3.2H275V42.2z M275,46.4h3.2v3.1H275V46.4z M275,50.6h3.2v3.1H275V50.6z M279.2,33.8h3.1v3.2h-3.1V33.8z M283.4,38
		h3.1v3.2h-3.1V38z M287.6,42.2h3.2v3.2h-3.2V42.2z M291.8,25.4h3.2v3.1h-3.2V25.4z M291.8,29.6h3.2v3.1h-3.2V29.6z M291.8,33.8h3.2
		v3.2h-3.2V33.8z M291.8,38h3.2v3.2h-3.2V38z M291.8,42.2h3.2v3.2h-3.2V42.2z M291.8,46.4h3.2v3.1h-3.2V46.4z M291.8,50.6h3.2v3.1
		h-3.2V50.6z"/>
	<path class="st1" d="M300.2,27.5h3.2v3.1h-3.2V27.5z M300.2,31.7h3.2v3.1h-3.2V31.7z M300.2,35.9h3.2V39h-3.2V35.9z M300.2,40.1
		h3.2v3.1h-3.2V40.1z M300.2,44.3h3.2v3.2h-3.2V44.3z M300.2,48.5h3.2v3.2h-3.2V48.5z M304.4,25.4h3.1v3.1h-3.1V25.4z M304.4,50.6
		h3.1v3.1h-3.1V50.6z M308.6,25.4h3.1v3.1h-3.1V25.4z M308.6,40.1h3.1v3.1h-3.1V40.1z M308.6,50.6h3.1v3.1h-3.1V50.6z M312.8,25.4
		h3.2v3.1h-3.2V25.4z M312.8,40.1h3.2v3.1h-3.2V40.1z M312.8,50.6h3.2v3.1h-3.2V50.6z M317,27.5h3.2v3.1H317V27.5z M317,40.1h3.2
		v3.1H317V40.1z M317,44.3h3.2v3.2H317V44.3z M317,48.5h3.2v3.2H317V48.5z"/>
	<path class="st1" d="M350.6,27.5h3.2v3.1h-3.2V27.5z M350.6,31.7h3.2v3.1h-3.2V31.7z M350.6,35.9h3.2V39h-3.2V35.9z M350.6,40.1
		h3.2v3.1h-3.2V40.1z M350.6,44.3h3.2v3.2h-3.2V44.3z M350.6,48.5h3.2v3.2h-3.2V48.5z M354.8,25.4h3.1v3.1h-3.1V25.4z M354.8,50.6
		h3.1v3.1h-3.1V50.6z M359,25.4h3.1v3.1H359V25.4z M359,40.1h3.1v3.1H359V40.1z M359,50.6h3.1v3.1H359V50.6z M363.2,25.4h3.2v3.1
		h-3.2V25.4z M363.2,40.1h3.2v3.1h-3.2V40.1z M363.2,50.6h3.2v3.1h-3.2V50.6z M367.4,27.5h3.2v3.1h-3.2V27.5z M367.4,40.1h3.2v3.1
		h-3.2V40.1z M367.4,44.3h3.2v3.2h-3.2V44.3z M367.4,48.5h3.2v3.2h-3.2V48.5z"/>
	<path class="st1" d="M375.8,27.5h3.2v3.1h-3.2V27.5z M375.8,31.7h3.2v3.1h-3.2V31.7z M375.8,35.9h3.2V39h-3.2V35.9z M375.8,40.1
		h3.2v3.1h-3.2V40.1z M375.8,44.3h3.2v3.2h-3.2V44.3z M375.8,48.5h3.2v3.2h-3.2V48.5z M380,25.4h3.1v3.1H380V25.4z M380,38h3.1v3.2
		H380V38z M380,50.6h3.1v3.1H380V50.6z M384.2,25.4h3.1v3.1h-3.1V25.4z M384.2,38h3.1v3.2h-3.1V38z M384.2,50.6h3.1v3.1h-3.1V50.6z
		 M388.4,25.4h3.2v3.1h-3.2V25.4z M388.4,38h3.2v3.2h-3.2V38z M388.4,50.6h3.2v3.1h-3.2V50.6z M392.6,25.4h3.2v3.1h-3.2V25.4z
		 M392.6,50.6h3.2v3.1h-3.2V50.6z"/>
	<path class="st1" d="M401,27.5h3.2v3.1H401V27.5z M401,31.7h3.2v3.1H401V31.7z M401,35.9h3.2V39H401V35.9z M401,48.5h3.2v3.2H401
		V48.5z M405.2,25.4h3.1v3.1h-3.1V25.4z M405.2,38h3.1v3.2h-3.1V38z M405.2,50.6h3.1v3.1h-3.1V50.6z M409.4,25.4h3.1v3.1h-3.1V25.4z
		 M409.4,38h3.1v3.2h-3.1V38z M409.4,50.6h3.1v3.1h-3.1V50.6z M413.6,25.4h3.2v3.1h-3.2V25.4z M413.6,38h3.2v3.2h-3.2V38z
		 M413.6,50.6h3.2v3.1h-3.2V50.6z M417.8,27.5h3.2v3.1h-3.2V27.5z M417.8,40.1h3.2v3.1h-3.2V40.1z M417.8,44.3h3.2v3.2h-3.2V44.3z
		 M417.8,48.5h3.2v3.2h-3.2V48.5z"/>
	<path class="st1" d="M426.2,27.5h3.2v3.1h-3.2V27.5z M426.2,31.7h3.2v3.1h-3.2V31.7z M426.2,35.9h3.2V39h-3.2V35.9z M426.2,40.1
		h3.2v3.1h-3.2V40.1z M426.2,44.3h3.2v3.2h-3.2V44.3z M426.2,48.5h3.2v3.2h-3.2V48.5z M430.4,25.4h3.1v3.1h-3.1V25.4z M430.4,50.6
		h3.1v3.1h-3.1V50.6z M434.6,25.4h3.1v3.1h-3.1V25.4z M434.6,50.6h3.1v3.1h-3.1V50.6z M438.8,25.4h3.2v3.1h-3.2V25.4z M438.8,50.6
		h3.2v3.1h-3.2V50.6z M443,27.5h3.2v3.1H443V27.5z M443,48.5h3.2v3.2H443V48.5z"/>
	<path class="st1" d="M451.4,25.4h3.2v3.1h-3.2V25.4z M451.4,29.6h3.2v3.1h-3.2V29.6z M451.4,33.8h3.2v3.2h-3.2V33.8z M451.4,38h3.2
		v3.2h-3.2V38z M451.4,42.2h3.2v3.2h-3.2V42.2z M451.4,46.4h3.2v3.1h-3.2V46.4z M451.4,50.6h3.2v3.1h-3.2V50.6z M455.6,38h3.1v3.2
		h-3.1V38z M459.8,38h3.1v3.2h-3.1V38z M464,38h3.2v3.2H464V38z M468.2,25.4h3.2v3.1h-3.2V25.4z M468.2,29.6h3.2v3.1h-3.2V29.6z
		 M468.2,33.8h3.2v3.2h-3.2V33.8z M468.2,38h3.2v3.2h-3.2V38z M468.2,42.2h3.2v3.2h-3.2V42.2z M468.2,46.4h3.2v3.1h-3.2V46.4z
		 M468.2,50.6h3.2v3.1h-3.2V50.6z"/>
	<path class="st1" d="M476.6,25.4h3.2v3.1h-3.2V25.4z M476.6,29.6h3.2v3.1h-3.2V29.6z M476.6,33.8h3.2v3.2h-3.2V33.8z M476.6,38h3.2
		v3.2h-3.2V38z M476.6,42.2h3.2v3.2h-3.2V42.2z M476.6,46.4h3.2v3.1h-3.2V46.4z M476.6,50.6h3.2v3.1h-3.2V50.6z M480.8,50.6h3.1v3.1
		h-3.1V50.6z M485,50.6h3.1v3.1H485V50.6z M489.2,50.6h3.2v3.1h-3.2V50.6z M493.4,50.6h3.2v3.1h-3.2V50.6z"/>
	<path class="st1" d="M501.8,27.5h3.2v3.1h-3.2V27.5z M501.8,31.7h3.2v3.1h-3.2V31.7z M501.8,35.9h3.2V39h-3.2V35.9z M501.8,40.1
		h3.2v3.1h-3.2V40.1z M501.8,44.3h3.2v3.2h-3.2V44.3z M501.8,48.5h3.2v3.2h-3.2V48.5z M506,25.4h3.1v3.1H506V25.4z M506,50.6h3.1
		v3.1H506V50.6z M510.2,25.4h3.1v3.1h-3.1V25.4z M510.2,50.6h3.1v3.1h-3.1V50.6z M514.4,25.4h3.2v3.1h-3.2V25.4z M514.4,50.6h3.2
		v3.1h-3.2V50.6z M518.6,27.5h3.2v3.1h-3.2V27.5z M518.6,31.7h3.2v3.1h-3.2V31.7z M518.6,35.9h3.2V39h-3.2V35.9z M518.6,40.1h3.2
		v3.1h-3.2V40.1z M518.6,44.3h3.2v3.2h-3.2V44.3z M518.6,48.5h3.2v3.2h-3.2V48.5z"/>
	<path class="st1" d="M527,27.5h3.2v3.1H527V27.5z M527,31.7h3.2v3.1H527V31.7z M527,35.9h3.2V39H527V35.9z M527,48.5h3.2v3.2H527
		V48.5z M531.2,25.4h3.1v3.1h-3.1V25.4z M531.2,38h3.1v3.2h-3.1V38z M531.2,50.6h3.1v3.1h-3.1V50.6z M535.4,25.4h3.1v3.1h-3.1V25.4z
		 M535.4,38h3.1v3.2h-3.1V38z M535.4,50.6h3.1v3.1h-3.1V50.6z M539.6,25.4h3.2v3.1h-3.2V25.4z M539.6,38h3.2v3.2h-3.2V38z
		 M539.6,50.6h3.2v3.1h-3.2V50.6z M543.8,27.5h3.2v3.1h-3.2V27.5z M543.8,40.1h3.2v3.1h-3.2V40.1z M543.8,44.3h3.2v3.2h-3.2V44.3z
		 M543.8,48.5h3.2v3.2h-3.2V48.5z"/>
	<path class="st1" d="M552.2,27.5h3.2v3.1h-3.2V27.5z M552.2,31.7h3.2v3.1h-3.2V31.7z M552.2,35.9h3.2V39h-3.2V35.9z M552.2,48.5
		h3.2v3.2h-3.2V48.5z M556.4,25.4h3.1v3.1h-3.1V25.4z M556.4,38h3.1v3.2h-3.1V38z M556.4,50.6h3.1v3.1h-3.1V50.6z M560.6,25.4h3.1
		v3.1h-3.1V25.4z M560.6,38h3.1v3.2h-3.1V38z M560.6,50.6h3.1v3.1h-3.1V50.6z M564.8,25.4h3.2v3.1h-3.2V25.4z M564.8,38h3.2v3.2
		h-3.2V38z M564.8,50.6h3.2v3.1h-3.2V50.6z M569,27.5h3.2v3.1H569V27.5z M569,40.1h3.2v3.1H569V40.1z M569,44.3h3.2v3.2H569V44.3z
		 M569,48.5h3.2v3.2H569V48.5z"/>
	<path class="st1" d="M577.4,27.5h3.2v3.1h-3.2V27.5z M577.4,31.7h3.2v3.1h-3.2V31.7z M577.4,35.9h3.2V39h-3.2V35.9z M577.4,40.1
		h3.2v3.1h-3.2V40.1z M577.4,44.3h3.2v3.2h-3.2V44.3z M577.4,48.5h3.2v3.2h-3.2V48.5z M581.6,25.4h3.1v3.1h-3.1V25.4z M581.6,38h3.1
		v3.2h-3.1V38z M581.6,50.6h3.1v3.1h-3.1V50.6z M585.8,25.4h3.1v3.1h-3.1V25.4z M585.8,38h3.1v3.2h-3.1V38z M585.8,50.6h3.1v3.1
		h-3.1V50.6z M590,25.4h3.2v3.1H590V25.4z M590,38h3.2v3.2H590V38z M590,50.6h3.2v3.1H590V50.6z M594.2,25.4h3.2v3.1h-3.2V25.4z
		 M594.2,50.6h3.2v3.1h-3.2V50.6z"/>
	<path class="st1" d="M602.6,25.4h3.2v3.1h-3.2V25.4z M602.6,29.6h3.2v3.1h-3.2V29.6z M602.6,33.8h3.2v3.2h-3.2V33.8z M602.6,38h3.2
		v3.2h-3.2V38z M602.6,42.2h3.2v3.2h-3.2V42.2z M602.6,46.4h3.2v3.1h-3.2V46.4z M602.6,50.6h3.2v3.1h-3.2V50.6z M606.8,33.8h3.1v3.2
		h-3.1V33.8z M611,38h3.1v3.2H611V38z M615.2,42.2h3.2v3.2h-3.2V42.2z M619.4,25.4h3.2v3.1h-3.2V25.4z M619.4,29.6h3.2v3.1h-3.2
		V29.6z M619.4,33.8h3.2v3.2h-3.2V33.8z M619.4,38h3.2v3.2h-3.2V38z M619.4,42.2h3.2v3.2h-3.2V42.2z M619.4,46.4h3.2v3.1h-3.2V46.4z
		 M619.4,50.6h3.2v3.1h-3.2V50.6z"/>
</g>
</svg>
