<svg width="44px" height="34px" xmlns="http://www.w3.org/2000/svg" xmlns:xlink="http://www.w3.org/1999/xlink" x="0px" y="0px"
     viewBox="0 0 44 34" style="enable-background:new 0 0 44 34;" xml:space="preserve">
     <style type="text/css">
	 .st0{fill-rule:evenodd;clip-rule:evenodd;fill:#FACA37;}
	 .st1{fill-rule:evenodd;clip-rule:evenodd;fill:#FFD003;}
	 .st2{fill-rule:evenodd;clip-rule:evenodd;}
	 .st3{fill-rule:evenodd;clip-rule:evenodd;fill:#00A6DE;}
     </style>
     <title>Laptop</title>
     <g transform="translate(-448.000000, -3120.000000)">
	 <g id="Group-22" transform="translate(58.000000, 2693.000000)">
	     <g id="Group-20" transform="translate(376.000000, 316.000000)">
		 <g id="Group-17" transform="translate(0.000000, 38.000000)">
		     <g id="Group-9" transform="translate(14.000000, 73.000000)">
			 <g id="Group-14" transform="translate(0.000000, 2.000000)">
			     <polygon id="Fill-1" class="st0" points="2,27.4 34.4,27.4 34.4,25.4 2,25.4 						"/>
			     <polygon class="st1" points="40,23.5 40,19 2,19 2,25.6 2,25.6 2,30 42,31 42,23.5 						"/>
			     <rect x="4" class="st2" width="2" height="18.8"/>
			     <rect x="4" y="17" class="st2" width="36" height="2"/>
			     <polygon id="Fill-7" class="st2" points="38,18.8 40,18.8 40,0 38,0 						"/>
			     <polygon id="Fill-8" class="st3" points="6,17 38,17 38,0 6,0 						"/>
			     <polygon id="Fill-9" class="st2" points="2,23.5 4,23.5 4,19 2,19 						"/>
			     <polygon id="Fill-10" class="st2" points="7,23 9,23 9,21 7,21 						"/>
			     <polygon id="Fill-11" class="st2" points="11,23 13,23 13,21 11,21 						"/>
			     <polygon id="Fill-12" class="st2" points="15,23 17,23 17,21 15,21 						"/>
			     <polygon id="Fill-13" class="st2" points="19,23 21,23 21,21 19,21 						"/>
			     <polygon id="Fill-14" class="st2" points="23,23 25,23 25,21 23,21 						"/>
			     <polygon id="Fill-15" class="st2" points="27,23 29,23 29,21 27,21 						"/>
			     <polygon id="Fill-16" class="st2" points="31,23 33,23 33,21 31,21 						"/>
			     <polygon id="Fill-17" class="st2" points="0,32 2,32 2,23.5 0,23.5 						"/>
			     <polygon id="Fill-18" class="st2" points="5,28 7,28 7,26 5,26 						"/>
			     <polygon id="Fill-19" class="st2" points="9,28 11,28 11,26 9,26 						"/>
			     <polygon id="Fill-20" class="st2" points="13,28 31.5,28 31.5,26 13,26 						"/>
			     <polygon id="Fill-22" class="st2" points="33,28 35,28 35,26 33,26 						"/>
			     <polygon id="Fill-23" class="st2" points="40,23.5 42,23.5 42,19 40,19 						"/>
			     <polygon id="Fill-24" class="st2" points="42,32 44,32 44,23.5 42,23.5 						"/>
			     <polygon id="Fill-25" class="st2" points="2,32 42.5,32 42.5,30 2,30 						"/>
			     <polygon id="Fill-68" class="st2" points="37,28 39,28 39,26 37,26 						"/>
			     <polygon id="Fill-69" class="st2" points="35,23 37,23 37,21 35,21 						"/>
			 </g>
			 <polygon id="Fill-4" class="st2" points="6,2 38,2 38,0 6,0 					"/>
		     </g>
		 </g>
	     </g>
	 </g>
     </g>
 </svg>
