<svg width="16px" height="13px" viewBox="0 0 16 13" version="1.1" xmlns="http://www.w3.org/2000/svg" xmlns:xlink="http://www.w3.org/1999/xlink">
    <title>Twitter</title>
    <g stroke="none" stroke-width="1" fill="none" fill-rule="evenodd">
        <g transform="translate(-680.000000, -1376.000000)" fill="#000000" fill-rule="nonzero">
            <g transform="translate(680.000000, 1376.759259)">
                <path d="M15.1851852,1.43731708 C14.6262851,1.6812238 14.0265934,1.84663855 13.3965064,1.92048748 C14.039868,1.54105258 14.5323452,0.939215612 14.7657558,0.22428373 C14.1622678,0.575664833 13.4961283,0.830812624 12.7863438,0.969126626 C12.2179654,0.371957143 11.4095018,0 10.5127804,0 C8.79243509,0 7.39755445,1.37378061 7.39755445,3.06717409 C7.39755445,3.30734194 7.42507144,3.54191369 7.47821968,3.76622186 C4.88963762,3.63817144 2.5942641,2.41673173 1.05800221,0.560709326 C0.789457233,1.0130401 0.636687073,1.54009954 0.636687073,2.10271495 C0.636687073,3.16717072 1.18705169,4.10638633 2.02208936,4.65587903 C1.51157352,4.6390663 1.0314281,4.5007523 0.61108064,4.27084803 L0.61108064,4.30916541 C0.61108064,5.79508789 1.68523575,7.03522199 3.10951912,7.31747052 C2.84856675,7.38662753 2.57339685,7.4249449 2.28872378,7.4249449 C2.08756938,7.4249449 1.89303989,7.40532191 1.7023067,7.36793314 C2.09893347,8.58751564 3.24901463,9.47438697 4.6116391,9.49870189 C3.54601947,10.3211082 2.20237651,10.8098746 0.742983543,10.8098746 C0.49153433,10.8098746 0.243856608,10.7949191 0,10.7678184 C1.37875256,11.6397587 3.01560406,12.1481481 4.7748553,12.1481481 C10.5052375,12.1481481 13.6375592,7.4735503 13.6375592,3.41950824 L13.6271132,3.02233201 C14.2391367,2.59241006 14.7686092,2.05225234 15.1851852,1.43731708 Z" id="Path"></path>
            </g>
        </g>
    </g>
</svg>
