<svg width="14px" height="14px" viewBox="0 0 14 14" version="1.1" xmlns="http://www.w3.org/2000/svg" xmlns:xlink="http://www.w3.org/1999/xlink">
    <title>Instagram</title>
    <g stroke="none" stroke-width="1" fill="none" fill-rule="evenodd">
        <g transform="translate(-707.000000, -1376.000000)" fill-rule="nonzero">
            <g transform="translate(707.333333, 1376.000000)">
                <path d="M9.39583333,0 L4.27083333,0 C1.91247917,0 0,1.91247917 0,4.27083333 L0,9.39583333 C0,11.7541875 1.91247917,13.6666667 4.27083333,13.6666667 L9.39583333,13.6666667 C11.7541875,13.6666667 13.6666667,11.7541875 13.6666667,9.39583333 L13.6666667,4.27083333 C13.6666667,1.91247917 11.7541875,0 9.39583333,0 Z" fill="#000000"></path>
                <path d="M6.83333333,3.41666667 C4.94647917,3.41666667 3.41666667,4.94647917 3.41666667,6.83333333 C3.41666667,8.7201875 4.94647917,10.25 6.83333333,10.25 C8.7201875,10.25 10.25,8.7201875 10.25,6.83333333 C10.25,4.94647917 8.7201875,3.41666667 6.83333333,3.41666667 Z M6.83333333,8.96875 C5.65629167,8.96875 4.69791667,8.010375 4.69791667,6.83333333 C4.69791667,5.6554375 5.65629167,4.69791667 6.83333333,4.69791667 C8.010375,4.69791667 8.96875,5.6554375 8.96875,6.83333333 C8.96875,8.010375 8.010375,8.96875 6.83333333,8.96875 Z" fill="#FFFFFF"></path>
                <circle fill="#FFFFFF" cx="10.5916667" cy="3.075" r="1"></circle>
            </g>
        </g>
    </g>
</svg>
