<svg width="17px" height="14px" viewBox="0 0 17 14" version="1.1" xmlns="http://www.w3.org/2000/svg" xmlns:xlink="http://www.w3.org/1999/xlink">
    <title>Twitter</title>
    <g stroke="none" stroke-width="1" fill="none" fill-rule="evenodd">
        <g transform="translate(-40.000000, -377.000000)" fill="#000000" fill-rule="nonzero">
            <g transform="translate(0.000000, 377.000000)">
                <g transform="translate(40.000000, 0.000000)">
                    <path d="M17,1.65642029 C16.3743045,1.93750792 15.7029423,2.12813833 14.9975523,2.21324472 C15.7178035,1.77596913 16.2691377,1.08238872 16.5304437,0.258473323 C15.8548315,0.663418618 15.1090802,0.95746089 14.3144678,1.11685934 C13.6781612,0.428657927 12.7730764,0 11.7691859,0 C9.84323831,0 8.28165242,1.58319839 8.28165242,3.53473112 C8.28165242,3.81150992 8.31245803,4.08183956 8.37195812,4.34034105 C5.47400894,4.19277075 2.9043103,2.78513595 1.18444638,0.646183308 C0.883807,1.16746694 0.712778942,1.77487081 0.712778942,2.42325077 C0.712778942,3.64997113 1.32891884,4.73235986 2.2637537,5.36561668 C1.69222499,5.34624104 1.15469633,5.18684259 0.684112229,4.92189194 L0.684112229,4.96605038 C0.684112229,6.67848543 1.88664197,8.10766436 3.48114458,8.43293859 C3.18900521,8.51263782 2.88094915,8.55679626 2.56225419,8.55679626 C2.33705937,8.55679626 2.11928124,8.53418196 1.90575311,8.49109368 C2.34978162,9.89658814 3.6373115,10.9186533 5.16278621,10.9466747 C3.96981204,11.8944478 2.46558736,12.4577214 0.831779137,12.4577214 C0.550278677,12.4577214 0.273000446,12.4404861 0,12.4092541 C1.5435303,13.4141121 3.37600552,14 5.34550873,14 C11.7607414,14 15.2674138,8.61281102 15.2674138,3.94077474 L15.2557194,3.48305335 C15.9408872,2.98759452 16.5336381,2.36509568 17,1.65642029 Z"></path>
                </g>
            </g>
        </g>
    </g>
</svg>
