<svg id="Ebene_1" data-name="Ebene 1" xmlns="http://www.w3.org/2000/svg" viewBox="0 0 189 63">
  <defs>
    <style>
      .cls-1 {
        fill: #d1d6da;
      }

      .cls-2 {
        fill: #00a6de;
      }

      .cls-3 {
        fill: #fff;
      }
    </style>
  </defs>
  <title>Zeichenfläche 1</title>
  <polygon class="cls-1" points="77 42 77 14 14 14 14 42 21 42 21 49 28 49 28 56 63 56 63 49 70 49 70 42 77 42"/>
  <polygon class="cls-1" points="175 42 175 14 112 14 112 42 119 42 119 49 126 49 126 56 161 56 161 49 168 49 168 42 175 42"/>
  <path d="M14,14H77V42H70v7H63v7H28V49H21V42H14Zm98,0h63V42h-7v7h-7v7H126V49h-7V42h-7ZM105,0V14H84V0H0V21H7V49h7v7h7v7H70V56h7V49h7V35h7V28h7v7h7V49h7v7h7v7h49V56h7V49h7V21h7V0Z"/>
  <polygon class="cls-2" points="38.5 35 38.5 24.5 35 24.5 28 24.5 28 28 28 35 35 35 38.5 35"/>
  <polygon class="cls-3" points="49 35 49 24.5 45.5 24.5 38.5 24.5 38.5 28 38.5 35 45.5 35 49 35"/>
  <polygon class="cls-2" points="136.5 35 136.5 24.5 133 24.5 126 24.5 126 28 126 35 133 35 136.5 35"/>
  <polygon class="cls-3" points="147 35 147 24.5 143.5 24.5 136.5 24.5 136.5 28 136.5 35 143.5 35 147 35"/>
</svg>
