<svg id="Ebene_1" data-name="Ebene 1" xmlns="http://www.w3.org/2000/svg" viewBox="0 0 140 168">
  <defs>
    <style>
      .cls-1 {
        fill: #00b48d;
      }

      .cls-2 {
        fill: #fff;
      }
    </style>
  </defs>
  <title>Zeichenfläche 1</title>
  <g>
    <rect class="cls-1" x="49" y="119" width="7" height="7"/>
    <rect class="cls-1" x="42" y="126" width="7" height="7"/>
    <rect class="cls-1" x="56" y="126" width="7" height="7"/>
    <rect class="cls-1" x="49" y="133" width="7" height="7"/>
    <rect class="cls-1" x="42" y="140" width="7" height="7"/>
    <rect class="cls-1" x="49" y="147" width="7" height="7"/>
    <rect class="cls-1" x="35" y="147" width="7" height="7"/>
    <rect class="cls-1" x="56" y="140" width="7" height="7"/>
    <polygon class="cls-1" points="70 147 63 147 63 154 70 154 77 154 77 147 70 147"/>
    <rect class="cls-1" x="77" y="140" width="7" height="7"/>
    <rect class="cls-1" x="84" y="147" width="7" height="7"/>
    <rect class="cls-1" x="91" y="140" width="7" height="7"/>
    <rect class="cls-1" x="98" y="147" width="7" height="7"/>
    <rect class="cls-1" x="91" y="154" width="7" height="7"/>
    <rect class="cls-1" x="77" y="154" width="7" height="7"/>
    <rect class="cls-1" x="56" y="154" width="7" height="7"/>
    <rect class="cls-1" x="42" y="154" width="7" height="7"/>
    <rect class="cls-1" x="35" y="161" width="7" height="7"/>
    <rect class="cls-1" x="49" y="161" width="7" height="7"/>
    <polygon class="cls-1" points="63 161 63 168 70 168 77 168 77 161 70 161 63 161"/>
    <rect class="cls-1" x="84" y="161" width="7" height="7"/>
    <rect class="cls-1" x="98" y="161" width="7" height="7"/>
    <rect class="cls-1" x="105" y="154" width="7" height="7"/>
    <rect class="cls-1" x="28" y="154" width="7" height="7"/>
    <rect class="cls-1" x="21" y="147" width="7" height="7"/>
    <rect class="cls-1" x="14" y="140" width="7" height="7"/>
    <rect class="cls-1" x="7" y="133" width="7" height="7"/>
    <rect class="cls-1" x="112" y="147" width="7" height="7"/>
    <rect class="cls-1" x="119" y="140" width="7" height="7"/>
    <rect class="cls-1" x="126" y="133" width="7" height="7"/>
    <rect class="cls-1" x="77" y="126" width="7" height="7"/>
    <rect class="cls-1" x="91" y="126" width="7" height="7"/>
    <rect class="cls-1" x="84" y="133" width="7" height="7"/>
    <rect class="cls-1" x="84" y="119" width="7" height="7"/>
    <polygon class="cls-1" points="133 42 133 35 126 35 126 28 119 28 119 21 112 21 112 14 105 14 105 7 98 7 98 0 91 0 84 0 84 0 84 0 77 0 77 7 84 7 84 14 91 14 91 21 98 21 98 28 105 28 105 35 98 35 98 28 91 28 91 21 84 21 84 14 77 14 77 7 70 7 63 7 63 14 56 14 56 21 49 21 49 28 42 28 42 35 35 35 35 28 42 28 42 21 49 21 49 14 56 14 56 7 63 7 63 0 56 0 49 0 49 0 42 0 42 7 35 7 35 14 28 14 28 21 21 21 21 28 14 28 14 35 7 35 7 42 0 42 0 49 0 56 0 56 0 63 0 70 0 77 7 77 7 84 14 84 21 84 21 91 21 98 28 98 28 105 35 105 42 105 42 112 42 119 49 119 49 112 56 112 56 119 63 119 63 126 70 126 77 126 77 119 84 119 84 112 91 112 91 119 98 119 98 112 98 105 105 105 112 105 112 98 119 98 119 91 119 84 126 84 133 84 133 77 140 77 140 70 140 63 140 56 140 56 140 49 140 42 133 42"/>
    <polygon class="cls-1" points="70 140 77 140 77 133 70 133 63 133 63 140 70 140"/>
  </g>
  <g>
    <rect x="80.5" y="52.5" width="3.5" height="3.5"/>
    <rect x="31.5" y="52.5" width="3.5" height="3.5"/>
    <rect x="84" y="49" width="21" height="3.5"/>
    <rect x="35" y="49" width="21" height="3.5"/>
    <rect x="105" y="52.5" width="3.5" height="3.5"/>
    <rect x="56" y="52.5" width="3.5" height="3.5"/>
    <polygon points="105 63 98 63 91 63 84 63 84 68.25 80.5 68.25 80.5 71.75 84 71.75 84 77 91 77 98 77 105 77 105 71.75 108.5 71.75 108.5 68.25 105 68.25 105 63"/>
    <polygon points="56 63 49 63 42 63 35 63 35 68.25 31.5 68.25 31.5 71.75 35 71.75 35 77 42 77 49 77 56 77 56 71.75 59.5 71.75 59.5 68.25 56 68.25 56 63"/>
  </g>
  <g>
    <polygon class="cls-2" points="70 0 63 0 63 6.87 56 6.87 56 13.87 63 13.87 63 7 70 7 77 7 77 0 70 0"/>
    <polygon class="cls-2" points="77 98 77 91 70 91 63 91 63 98 70 98 77 98"/>
    <rect class="cls-2" x="77" y="7" width="7" height="7"/>
    <rect class="cls-2" x="49" y="13.87" width="7" height="7"/>
    <rect class="cls-2" x="42" y="20.87" width="7" height="7"/>
    <rect class="cls-2" x="35" y="27.87" width="7" height="7"/>
    <rect class="cls-2" x="84" y="14" width="7" height="7"/>
    <rect class="cls-2" x="91" y="21" width="7" height="7"/>
    <rect class="cls-2" x="98" y="28" width="7" height="7"/>
    <rect class="cls-2" x="84" y="112" width="7" height="7"/>
    <rect class="cls-2" x="84" y="126" width="7" height="7"/>
    <polygon class="cls-2" points="70 133 77 133 77 126 70 126 63 126 63 133 70 133"/>
    <polygon class="cls-2" points="63 154 63 161 70 161 77 161 77 154 70 154 63 154"/>
    <polygon class="cls-2" points="70 140 63 140 63 147 70 147 77 147 77 140 70 140"/>
    <rect class="cls-2" x="84" y="140" width="7" height="7"/>
    <rect class="cls-2" x="84" y="154" width="7" height="7"/>
    <rect class="cls-2" x="49" y="112" width="7" height="7"/>
    <rect class="cls-2" x="49" y="126" width="7" height="7"/>
    <rect class="cls-2" x="49" y="140" width="7" height="7"/>
    <rect class="cls-2" x="49" y="154" width="7" height="7"/>
    <rect class="cls-2" x="77" y="119" width="7" height="7"/>
    <rect class="cls-2" x="77" y="133" width="7" height="7"/>
    <rect class="cls-2" x="77" y="147" width="7" height="7"/>
    <rect class="cls-2" x="77" y="161" width="7" height="7"/>
    <rect class="cls-2" x="91" y="161" width="7" height="7"/>
    <rect class="cls-2" x="91" y="147" width="7" height="7"/>
    <rect class="cls-2" x="91" y="133" width="7" height="7"/>
    <rect class="cls-2" x="91" y="119" width="7" height="7"/>
    <rect class="cls-2" x="56" y="119" width="7" height="7"/>
    <rect class="cls-2" x="56" y="133" width="7" height="7"/>
    <rect class="cls-2" x="56" y="147" width="7" height="7"/>
    <rect class="cls-2" x="56" y="161" width="7" height="7"/>
    <rect class="cls-2" x="42" y="161" width="7" height="7"/>
    <rect class="cls-2" x="42" y="147" width="7" height="7"/>
    <rect class="cls-2" x="42" y="133" width="7" height="7"/>
    <rect class="cls-2" x="42" y="119" width="7" height="7"/>
    <rect class="cls-2" x="35" y="154" width="7" height="7"/>
    <rect class="cls-2" x="98" y="154" width="7" height="7"/>
  </g>
</svg>
