<svg version="1.1" id="Layer_1" xmlns="http://www.w3.org/2000/svg" x="0" y="0" viewBox="0 0 2589 684" xml:space="preserve"><style>.sty3{fill:#1d1d1b}.sty4{fill:#ffd003}.sty5{fill:#00a6de}.st5{fill:#d1d6da}</style><path fill="#00b48d" d="M2589.2 515.5v49.6H-.2v-39.7H99v-39.6H69.2V456H-.2v-59.5h198.4v-29.8H228v-29.8h29.7v-29.7h2162.8v-39.7h29.8v-29.8h29.8V208h29.8v-39.7h79.3v282.3h-29.7v64.9z"/><path class="sty3" d="M2559.5 475.8h29.8v39.7h-29.8z"/><path class="sty3" d="M2559.5 446.1h29.8v29.8h-29.8z"/><path class="sty4" d="M2569.5 565.1l-.2 39.7H49.3v-39.7z"/><path class="sty3" d="M2480.1 168.3h29.8V208h-29.8zM2450.3 208h29.8v29.8h-29.8z"/><path class="sty5" d="M2480.1 171.2V208h-29.8v29.7h-29.7v29.8h-258V118.7h317.5z"/><path class="sty3" d="M2420.6 237.7h29.8v29.8h-29.8z"/><path class="sty5" d="M1696.3 118.7h426.6v148.8h-426.6zM1230 118.7h426.6v148.8H1230z"/><path class="sty3" d="M1190.3 118.7h39.8v148.8h-39.8z"/><path class="sty5" d="M1190.3 118.7v149.4l-426.6-.6V118.7z"/><path class="sty3" d="M724 118.7h39.8v148.8H724z"/><path class="sty5" d="M724 118.1v149.4H297.4V118.7z"/><path d="M39.5 79v39.7h218.3v188.5h2162.8v-39.7h-258V118.7H2480v49.6h109.2V78.7h-32.8L39.5 79zm1656.8 188.5V118.7h426.6v148.8h-426.6zM297.4 118.7h1359.2v148.8H297.4V118.7z"/><path class="sty5" d="M257.7 267.5v39.7H228v29.7h-29.8v39.7h-29.8V118.7h89.3z"/><path class="sty3" d="M198.2 336.9H228v29.8h-29.8z"/><path class="sty5" d="M59.3 118.7h69.4v248H59.3z"/><path class="sty3" d="M168.4 366.7h29.8v29.8H-.2v-29.8z"/><path fill="#fff" d="M545.5 39.3V-.4H79.2v39.7H39.5V79l2520.1-.3V39.3z"/><path class="st5" d="M-.2 79h39.7v39.7H-.2zM-.2 485.7V456h69.4v29.8H99v39.6H-.2z"/><path class="sty5" d="M-.2 118.7h19.8v248H-.2z"/><path class="sty4" d="M79.2 257.6h49.6v49.6H79.2z"/><path d="M168.4 118.7v257.9l-39.6-9.9v-248z"/><path class="sty3" d="M59.3 118.7v248H19.6v-248h26.6z"/><path fill="#ffd000" d="M29.6 198h29.8v99.2H29.6z"/><path fill="#ffd400" d="M2380.9 571h23.1v32.8h-23.1z"/><path class="sty3" d="M2341.2 565.1h39.7v39.7h-39.7z"/><path class="sty4" d="M2291.6 565.1v39.7h19.8v29.8h29.8v19.8h39.7v-19.8h29.8v-29.8h19.8v-39.7h-19.8v-29.8h-29.8v-19.8h-39.7v19.8h-29.8v29.8h-19.8zm49.6 0h39.7v39.7h-39.7v-39.7"/><path class="sty3" d="M2261.8 535.4v99.2h29.8v19.8h19.8v29.8h99.2v-29.8h19.8v-19.8h29.8v-99.2h-29.8v-19.8h-19.8v-29.8h-99.2v29.8h-19.8v19.8h-29.8zm29.8 29.7h19.8v-29.8h29.8v-19.8h39.7v19.8h29.8v29.8h19.8v39.7h-19.8v29.8h-29.8v19.8h-39.7v-19.8h-29.8v-29.8h-19.8v-39.7z"/><g><path class="sty3" d="M2083.3 565.1h39.7v39.7h-39.7z"/><path class="sty4" d="M2033.6 565.1v39.7h19.8v29.8h29.8v19.8h39.7v-19.8h29.8v-29.8h19.8v-39.7h-19.8v-29.8h-29.8v-19.8h-39.7v19.8h-29.8v29.8h-19.8zm49.7 0h39.7v39.7h-39.7v-39.7"/><path class="sty3" d="M2003.9 535.4v99.2h29.8v19.8h19.8v29.8h99.2v-29.8h19.8v-19.8h29.8v-99.2h-29.8v-19.8h-19.8v-29.8h-99.2v29.8h-19.8v19.8h-29.8zm29.7 29.7h19.8v-29.8h29.8v-19.8h39.7v19.8h29.8v29.8h19.8v39.7h-19.8v29.8h-29.8v19.8h-39.7v-19.8h-29.8v-29.8h-19.8v-39.7z"/></g><g><path class="sty3" d="M357 565.1h39.7v39.7H357z"/><path class="sty4" d="M307.3 565.1v39.7h19.8v29.8H357v19.8h39.7v-19.8h29.8v-29.8h19.8v-39.7h-19.8v-29.8h-29.8v-19.8H357v19.8h-29.8v29.8h-19.9zm49.7 0h39.7v39.7H357v-39.7"/><path class="sty3" d="M277.6 535.4v99.2h29.8v19.8h19.8v29.8h99.2v-29.8h19.8v-19.8H476v-99.2h-29.8v-19.8h-19.8v-29.8h-99.2v29.8h-19.8v19.8h-29.8zm29.7 29.7h19.8v-29.8H357v-19.8h39.7v19.8h29.8v29.8h19.8v39.7h-19.8v29.8h-29.8v19.8H357v-19.8h-29.8v-29.8h-19.8v-39.7z"/></g><path class="sty3" d="M1911 434h12v12h-12zM227.9 307.2h29.8V337h-29.8z"/><g><path d="M288.4 385.4h12.1v12.1h-12.1v-12.1zm16.2-16.1h12.1v12.1h-12.1v-12.1zm0 32.3h12.1v12.1h-12.1v-12.1zm16.1-48.5h12.1v12.1h-12.1v-12.1zm0 64.7h12.1v12.1h-12.1v-12.1zM353.1 336.9h12.1V349h-12.1v-12.1zm0 16.2h12.1v12.1h-12.1v-12.1zm0 16.2h12.1v12.1h-12.1v-12.1zm0 16.1h12.1v12.1h-12.1v-12.1zm0 16.2h12.1v12.1h-12.1v-12.1zm0 16.2h12.1v12.1h-12.1v-12.1zm0 16.1h12.1V446h-12.1v-12.1zm16.2-64.6h12.1v12.1h-12.1v-12.1zm16.1 0h12.1v12.1h-12.1v-12.1zm16.2 16.1h12.1v12.1h-12.1v-12.1zm0 16.2h12.1v12.1h-12.1v-12.1zm0 16.2h12.1v12.1h-12.1v-12.1zm0 16.1h12.1V446h-12.1v-12.1zM433.9 345H446v12.1h-12.1V345zm0 56.6H446v12.1h-12.1v-12.1zm0 16.2H446v12.1h-12.1v-12.1zm0 16.1H446V446h-12.1v-12.1zm16.2-97h12.1V349h-12.1v-12.1zm0 48.5h12.1v12.1h-12.1v-12.1zm0 48.5h12.1V446h-12.1v-12.1zm16.2-97h12.1V349h-12.1v-12.1zm0 48.5h12.1v12.1h-12.1v-12.1zm0 48.5h12.1V446h-12.1v-12.1zm16.1-97h12.1V349h-12.1v-12.1zm0 48.5h12.1v12.1h-12.1v-12.1zm0 48.5h12.1V446h-12.1v-12.1zm16.2-88.9h12.1v12.1h-12.1V345zm0 16.2h12.1v12.1h-12.1v-12.1zm0 16.2h12.1v12.1h-12.1v-12.1zm0 56.5h12.1V446h-12.1v-12.1zM530.9 353.1H543v12.1h-12.1v-12.1zm0 64.7H543v12.1h-12.1v-12.1zm16.2-48.5h12.1v12.1h-12.1v-12.1zm0 32.3h12.1v12.1h-12.1v-12.1zm16.2-16.2h12.1v12.1h-12.1v-12.1zM653.1 345h12.1v12.1h-12.1V345zm0 16.2h12.1v12.1h-12.1v-12.1zm0 16.2h12.1v12.1h-12.1v-12.1zm0 16.2h12.1v12.1h-12.1v-12.1zm0 16.2h12.1V422h-12.1v-12.2zm0 16.2h12.1v12.1h-12.1V426zm16.2-89.1h12.1V349h-12.1v-12.1zm0 97.2h12.1v12.1h-12.1v-12.1zm16.2-97.2h12.1V349h-12.1v-12.1zm0 97.2h12.1v12.1h-12.1v-12.1zm16.2-97.2h12.1V349h-12.1v-12.1zm0 97.2h12.1v12.1h-12.1v-12.1zm16.2-89.1H730v12.1h-12.1V345zm0 16.2H730v12.1h-12.1v-12.1zm0 16.2H730v12.1h-12.1v-12.1zm0 16.2H730v12.1h-12.1v-12.1zm0 16.2H730V422h-12.1v-12.2zm0 16.2H730v12.1h-12.1V426zM750.3 369.3h12.1v12.1h-12.1v-12.1zm0 16.2h12.1v12.1h-12.1v-12.1zm0 16.2h12.1v12.1h-12.1v-12.1zm0 16.2h12.1V430h-12.1v-12.1zm0 16.2h12.1v12.1h-12.1v-12.1zm0 16.2h12.1v12.1h-12.1v-12.1zm0 16.2h12.1v12.1h-12.1v-12.1zm16.2-97.2h12.1v12.1h-12.1v-12.1zm0 64.8h12.1v12.1h-12.1v-12.1zm16.2-64.8h12.1v12.1h-12.1v-12.1zm0 64.8h12.1v12.1h-12.1v-12.1zm16.2-56.7H811v12.1h-12.1v-12.1zm0 16.2H811v12.1h-12.1v-12.1zm0 16.2H811V422h-12.1v-12.2zm0 16.2H811v12.1h-12.1V426zM831.2 377.4h12.1v12.1h-12.1v-12.1zm0 16.2h12.1v12.1h-12.1v-12.1zm0 16.2h12.1V422h-12.1v-12.2zm0 16.2h12.1v12.1h-12.1V426zm16.2-56.7h12.1v12.1h-12.1v-12.1zm0 32.4h12.1v12.1h-12.1v-12.1zm0 32.4h12.1v12.1h-12.1v-12.1zm16.2-64.8h12.1v12.1h-12.1v-12.1zm0 32.4h12.1v12.1h-12.1v-12.1zm0 32.4h12.1v12.1h-12.1v-12.1zm16.2-56.7H892v12.1h-12.1v-12.1zm0 16.2H892v12.1h-12.1v-12.1zm0 32.4H892v12.1h-12.1V426zM912.2 369.3h12.1v12.1h-12.1v-12.1zm0 16.2h12.1v12.1h-12.1v-12.1zm0 16.2h12.1v12.1h-12.1v-12.1zm0 16.2h12.1V430h-12.1v-12.1zm0 16.2h12.1v12.1h-12.1v-12.1zm16.2-56.7h12.1v12.1h-12.1v-12.1zm16.2-8.1h12.1v12.1h-12.1v-12.1zm16.2 16.2H973v12.1h-12.1v-12.1zm0 16.2H973v12.1h-12.1v-12.1zm0 16.2H973V430h-12.1v-12.1zm0 16.2H973v12.1h-12.1v-12.1z"/><g><path d="M1070.4 336.9h12.1V349h-12.1v-12.1zm0 16.2h12.1v12.1h-12.1v-12.1zm0 16.2h12.1v12.1h-12.1v-12.1zm0 16.1h12.1v12.1h-12.1v-12.1zm0 16.2h12.1v12.1h-12.1v-12.1zm0 16.2h12.1v12.1h-12.1v-12.1zm0 16.1h12.1V446h-12.1v-12.1zm16.1-97h12.1V349h-12.1v-12.1zm0 97h12.1V446h-12.1v-12.1zm16.2-97h12.1V349h-12.1v-12.1zm0 97h12.1V446h-12.1v-12.1zm16.2-97h12.1V349h-12.1v-12.1zm0 97h12.1V446h-12.1v-12.1zM1135 345h12.1v12.1H1135V345zm0 16.2h12.1v12.1H1135v-12.1zm0 16.2h12.1v12.1H1135v-12.1zm0 16.1h12.1v12.1H1135v-12.1zm0 16.2h12.1v12.1H1135v-12.1zm0 16.2h12.1V438H1135v-12.1zM1167.4 377.4h12.1v12.1h-12.1v-12.1zm0 32.3h12.1v12.1h-12.1v-12.1zm0 16.2h12.1V438h-12.1v-12.1zm16.1-56.6h12.1v12.1h-12.1v-12.1zm0 32.3h12.1v12.1h-12.1v-12.1zm0 32.3h12.1V446h-12.1v-12.1zm16.2-64.6h12.1v12.1h-12.1v-12.1zm0 32.3h12.1v12.1h-12.1v-12.1zm0 32.3h12.1V446h-12.1v-12.1zm16.2-56.5h12.1v12.1h-12.1v-12.1zm0 16.1h12.1v12.1h-12.1v-12.1zm0 16.2h12.1v12.1h-12.1v-12.1zm0 16.2h12.1V438h-12.1v-12.1zM1248.2 369.3h12.1v12.1h-12.1v-12.1zm16.2-32.4h12.1V349h-12.1v-12.1zm0 16.2h12.1v12.1h-12.1v-12.1zm0 16.2h12.1v12.1h-12.1v-12.1zm0 16.1h12.1v12.1h-12.1v-12.1zm0 16.2h12.1v12.1h-12.1v-12.1zm0 16.2h12.1v12.1h-12.1v-12.1zm16.1-48.5h12.1v12.1h-12.1v-12.1zm0 64.6h12.1V446h-12.1v-12.1zm16.2-8h12.1V438h-12.1v-12.1zM1329 377.4h12.1v12.1H1329v-12.1zm0 32.3h12.1v12.1H1329v-12.1zm0 16.2h12.1V438H1329v-12.1zm16.2-56.6h12.1v12.1h-12.1v-12.1zm0 32.3h12.1v12.1h-12.1v-12.1zm0 32.3h12.1V446h-12.1v-12.1zm16.2-64.6h12.1v12.1h-12.1v-12.1zm0 32.3h12.1v12.1h-12.1v-12.1zm0 32.3h12.1V446h-12.1v-12.1zm16.1-56.5h12.1v12.1h-12.1v-12.1zm0 16.1h12.1v12.1h-12.1v-12.1zm0 16.2h12.1v12.1h-12.1v-12.1zm0 16.2h12.1V438h-12.1v-12.1z"/></g><g><path d="M1473.3 336.9h12.1V349h-12.1v-12.1zm0 16.2h12.1v12.1h-12.1v-12.1zm0 16.2h12.1v12.1h-12.1v-12.1zm0 16.2h12.1v12.1h-12.1v-12.1zm0 16.2h12.1v12.1h-12.1v-12.1zm0 16.2h12.1V430h-12.1v-12.1zm0 16.2h12.1v12.1h-12.1v-12.1zm16.2-64.8h12.1v12.1h-12.1v-12.1zm0 64.8h12.1v12.1h-12.1v-12.1zm16.2-64.8h12.1v12.1h-12.1v-12.1zm0 64.8h12.1v12.1h-12.1v-12.1zm16.2-56.7h12.1v12.1h-12.1v-12.1zm0 16.2h12.1v12.1h-12.1v-12.1zm0 16.2h12.1V422h-12.1v-12.2zm0 16.2h12.1v12.1h-12.1V426zM1554.3 377.4h12.1v12.1h-12.1v-12.1zm0 16.2h12.1v12.1h-12.1v-12.1zm0 16.2h12.1V422h-12.1v-12.2zm0 16.2h12.1v12.1h-12.1V426zm16.2-56.7h12.1v12.1h-12.1v-12.1zm0 32.4h12.1v12.1h-12.1v-12.1zm0 32.4h12.1v12.1h-12.1v-12.1zm16.2-64.8h12.1v12.1h-12.1v-12.1zm0 32.4h12.1v12.1h-12.1v-12.1zm0 32.4h12.1v12.1h-12.1v-12.1zm16.2-56.7h12.1v12.1h-12.1v-12.1zm0 16.2h12.1v12.1h-12.1v-12.1zm0 32.4h12.1v12.1h-12.1V426zM1635.3 369.3h12.1v12.1h-12.1v-12.1zm0 16.2h12.1v12.1h-12.1v-12.1zm0 16.2h12.1v12.1h-12.1v-12.1zm0 16.2h12.1V430h-12.1v-12.1zm16.2 16.2h12.1v12.1h-12.1v-12.1zm16.2-40.5h12.1v12.1h-12.1v-12.1zm0 16.2h12.1V422h-12.1v-12.2zm0 16.2h12.1v12.1h-12.1V426zm16.2 8.1h12.1v12.1h-12.1v-12.1zm16.2-64.8h12.1v12.1h-12.1v-12.1zm0 16.2h12.1v12.1h-12.1v-12.1zm0 16.2h12.1v12.1h-12.1v-12.1zm0 16.2h12.1V430h-12.1v-12.1zM1732.5 377.4h12.1v12.1h-12.1v-12.1zm0 16.2h12.1v12.1h-12.1v-12.1zm0 16.2h12.1V422h-12.1v-12.2zm0 16.2h12.1v12.1h-12.1V426zm16.2-56.7h12.1v12.1h-12.1v-12.1zm0 32.4h12.1v12.1h-12.1v-12.1zm0 32.4h12.1v12.1h-12.1v-12.1zm16.2-64.8h12.1v12.1h-12.1v-12.1zm0 32.4h12.1v12.1h-12.1v-12.1zm0 32.4h12.1v12.1h-12.1v-12.1zm16.2-56.7h12.1v12.1h-12.1v-12.1zm0 16.2h12.1v12.1h-12.1v-12.1zm0 32.4h12.1v12.1h-12.1V426zM1813.5 377.4h12.1v12.1h-12.1v-12.1zm0 16.2h12.1v12.1h-12.1v-12.1zm0 16.2h12.1V422h-12.1v-12.2zm0 16.2h12.1v12.1h-12.1V426zm16.2-56.7h12.1v12.1h-12.1v-12.1zm0 64.8h12.1v12.1h-12.1v-12.1zm0 32.4h12.1v12.1h-12.1v-12.1zm16.1-97.2h12.1v12.1h-12.1v-12.1zm0 64.8h12.1v12.1h-12.1v-12.1zm0 32.4h12.1v12.1h-12.1v-12.1zm16.2-97.2h12.1v12.1H1862v-12.1zm0 16.2h12.1v12.1H1862v-12.1zm0 16.2h12.1v12.1H1862v-12.1zm0 16.2h12.1V430H1862v-12.1zm0 16.2h12.1v12.1H1862v-12.1zm0 16.2h12.1v12.1H1862v-12.1zM1894.4 369.3h12.1v12.1h-12.1v-12.1zm16.2-32.4h12.1V349h-12.1v-12.1zm0 16.2h12.1v12.1h-12.1v-12.1zm0 16.2h12.1v12.1h-12.1v-12.1zm0 16.2h12.1v12.1h-12.1v-12.1zm0 16.2h12.1v12.1h-12.1v-12.1zm0 16.2h12.1V430h-12.1v-12.1zm16.2-48.6h12.1v12.1h-12.1v-12.1zm0 64.8h12.1v12.1h-12.1v-12.1zm16.2-8.1h12.1v12.1H1943V426z"/></g><g><path d="M2020.5 385.4h12.1v12.1h-12.1v-12.1zm16.2-16.1h12.1v12.1h-12.1v-12.1zm0 32.3h12.1v12.1h-12.1v-12.1zm16.1-48.5h12.1v12.1h-12.1v-12.1zm0 64.7h12.1v12.1h-12.1v-12.1zM2085.2 433.9h12.1V446h-12.1v-12.1zm16.2-16.1h12.1v12.1h-12.1v-12.1zm16.1-16.2h12.1v12.1h-12.1v-12.1zm16.2-16.2h12.1v12.1h-12.1v-12.1zm16.2-16.1h12.1v12.1h-12.1v-12.1zm16.1-16.2h12.1v12.1H2166v-12.1zM2198.4 336.9h12.1V349h-12.1v-12.1zm0 16.2h12.1v12.1h-12.1v-12.1zm0 16.2h12.1v12.1h-12.1v-12.1zm0 16.1h12.1v12.1h-12.1v-12.1zm0 16.2h12.1v12.1h-12.1v-12.1zm0 16.2h12.1v12.1h-12.1v-12.1zm0 16.1h12.1V446h-12.1v-12.1zm16.1-64.6h12.1v12.1h-12.1v-12.1zm16.2 0h12.1v12.1h-12.1v-12.1zm16.2 16.1h12.1v12.1h-12.1v-12.1zm0 16.2h12.1v12.1h-12.1v-12.1zm0 16.2h12.1v12.1h-12.1v-12.1zm0 16.1h12.1V446h-12.1v-12.1zM2279.2 345h12.1v12.1h-12.1V345zm0 56.6h12.1v12.1h-12.1v-12.1zm0 16.2h12.1v12.1h-12.1v-12.1zm0 16.1h12.1V446h-12.1v-12.1zm16.2-97h12.1V349h-12.1v-12.1zm0 48.5h12.1v12.1h-12.1v-12.1zm0 48.5h12.1V446h-12.1v-12.1zm16.1-97h12.1V349h-12.1v-12.1zm0 48.5h12.1v12.1h-12.1v-12.1zm0 48.5h12.1V446h-12.1v-12.1zm16.2-97h12.1V349h-12.1v-12.1zm0 48.5h12.1v12.1h-12.1v-12.1zm0 48.5h12.1V446h-12.1v-12.1zm16.2-88.9h12.1v12.1h-12.1V345zm0 16.2h12.1v12.1h-12.1v-12.1zm0 16.2h12.1v12.1h-12.1v-12.1zm0 56.5h12.1V446h-12.1v-12.1zM2376.2 353.1h12.1v12.1h-12.1v-12.1zm0 64.7h12.1v12.1h-12.1v-12.1zm16.2-48.5h12.1v12.1h-12.1v-12.1zm0 32.3h12.1v12.1h-12.1v-12.1zm16.1-16.2h12.1v12.1h-12.1v-12.1z"/></g></g></svg>