<svg xmlns="http://www.w3.org/2000/svg" viewBox="0 0 420 98">
    <defs>
        <style>
            .cls-1 {
            fill: #00a6de;
            }

            .cls-2 {
            fill: #fff;
            }
        </style>
    </defs>
    <title>Jugend hackt</title>
    <description>Das Jugend hackt logo</description>
    <g data-name="Layer 1">
        <g>
            <polygon class="cls-1" points="0 0 0 98 28 70 420 70 420 0 0 0"/>
            <g>
                <rect class="cls-2" x="22.91" y="46.31" width="3.97" height="3.99"/>
                <rect class="cls-2" x="22.91" y="40.99" width="3.97" height="3.99"/>
                <rect class="cls-2" x="22.91" y="22.36" width="3.97" height="3.99"/>
                <rect class="cls-2" x="22.91" y="17.04" width="3.97" height="3.99"/>
                <rect class="cls-2" x="28.2" y="48.97" width="3.97" height="3.99"/>
                <rect class="cls-2" x="28.2" y="17.04" width="3.97" height="3.99"/>
                <rect class="cls-2" x="33.48" y="48.97" width="3.97" height="3.99"/>
                <rect class="cls-2" x="33.48" y="17.04" width="3.97" height="3.99"/>
                <rect class="cls-2" x="38.77" y="48.97" width="3.97" height="3.99"/>
                <rect class="cls-2" x="38.77" y="17.04" width="3.97" height="3.99"/>
                <rect class="cls-2" x="44.06" y="46.31" width="3.97" height="3.99"/>
                <rect class="cls-2" x="44.06" y="40.99" width="3.97" height="3.99"/>
                <rect class="cls-2" x="44.06" y="35.67" width="3.97" height="3.99"/>
                <rect class="cls-2" x="44.06" y="30.34" width="3.97" height="3.99"/>
                <rect class="cls-2" x="44.06" y="25.02" width="3.97" height="3.99"/>
                <rect class="cls-2" x="44.06" y="19.7" width="3.97" height="3.99"/>
                <rect class="cls-2" x="54.64" y="43.65" width="3.97" height="3.99"/>
                <rect class="cls-2" x="54.64" y="38.33" width="3.97" height="3.99"/>
                <rect class="cls-2" x="54.64" y="33.01" width="3.97" height="3.99"/>
                <rect class="cls-2" x="54.64" y="27.68" width="3.97" height="3.99"/>
                <rect class="cls-2" x="54.64" y="22.36" width="3.97" height="3.99"/>
                <rect class="cls-2" x="54.64" y="17.04" width="3.97" height="3.99"/>
                <rect class="cls-2" x="59.93" y="48.97" width="3.97" height="3.99"/>
                <rect class="cls-2" x="65.22" y="48.97" width="3.97" height="3.99"/>
                <rect class="cls-2" x="70.51" y="48.97" width="3.97" height="3.99"/>
                <rect class="cls-2" x="75.8" y="43.65" width="3.97" height="3.99"/>
                <rect class="cls-2" x="75.8" y="38.33" width="3.97" height="3.99"/>
                <rect class="cls-2" x="75.8" y="33.01" width="3.97" height="3.99"/>
                <rect class="cls-2" x="75.8" y="27.68" width="3.97" height="3.99"/>
                <rect class="cls-2" x="75.8" y="22.36" width="3.97" height="3.99"/>
                <rect class="cls-2" x="75.8" y="17.04" width="3.97" height="3.99"/>
                <rect class="cls-2" x="86.37" y="46.31" width="3.97" height="3.99"/>
                <rect class="cls-2" x="86.37" y="40.99" width="3.97" height="3.99"/>
                <rect class="cls-2" x="86.37" y="35.67" width="3.97" height="3.99"/>
                <rect class="cls-2" x="86.37" y="30.34" width="3.97" height="3.99"/>
                <rect class="cls-2" x="86.37" y="25.02" width="3.97" height="3.99"/>
                <rect class="cls-2" x="86.37" y="19.7" width="3.97" height="3.99"/>
                <rect class="cls-2" x="91.66" y="48.97" width="3.97" height="3.99"/>
                <rect class="cls-2" x="91.66" y="17.04" width="3.97" height="3.99"/>
                <rect class="cls-2" x="96.95" y="48.97" width="3.97" height="3.99"/>
                <rect class="cls-2" x="96.95" y="35.67" width="3.97" height="3.99"/>
                <rect class="cls-2" x="96.95" y="17.04" width="3.97" height="3.99"/>
                <rect class="cls-2" x="102.24" y="48.97" width="3.97" height="3.99"/>
                <rect class="cls-2" x="102.24" y="35.67" width="3.97" height="3.99"/>
                <rect class="cls-2" x="102.24" y="17.04" width="3.97" height="3.99"/>
                <rect class="cls-2" x="107.53" y="46.31" width="3.97" height="3.99"/>
                <rect class="cls-2" x="107.53" y="40.99" width="3.97" height="3.99"/>
                <rect class="cls-2" x="107.53" y="35.67" width="3.97" height="3.99"/>
                <rect class="cls-2" x="107.53" y="19.7" width="3.97" height="3.99"/>
                <rect class="cls-2" x="118.11" y="46.31" width="3.97" height="3.99"/>
                <rect class="cls-2" x="118.11" y="40.99" width="3.97" height="3.99"/>
                <rect class="cls-2" x="118.11" y="35.67" width="3.97" height="3.99"/>
                <rect class="cls-2" x="118.11" y="30.34" width="3.97" height="3.99"/>
                <rect class="cls-2" x="118.11" y="25.02" width="3.97" height="3.99"/>
                <rect class="cls-2" x="118.11" y="19.7" width="3.97" height="3.99"/>
                <rect class="cls-2" x="123.4" y="48.97" width="3.97" height="3.99"/>
                <rect class="cls-2" x="123.4" y="33.01" width="3.97" height="3.99"/>
                <rect class="cls-2" x="123.4" y="17.04" width="3.97" height="3.99"/>
                <rect class="cls-2" x="128.68" y="48.97" width="3.97" height="3.99"/>
                <rect class="cls-2" x="128.68" y="33.01" width="3.97" height="3.99"/>
                <rect class="cls-2" x="128.68" y="17.04" width="3.97" height="3.99"/>
                <rect class="cls-2" x="133.98" y="48.97" width="3.97" height="3.99"/>
                <rect class="cls-2" x="133.98" y="33.01" width="3.97" height="3.99"/>
                <rect class="cls-2" x="133.98" y="17.04" width="3.97" height="3.99"/>
                <rect class="cls-2" x="139.26" y="48.97" width="3.97" height="3.99"/>
                <rect class="cls-2" x="139.26" y="17.04" width="3.97" height="3.99"/>
                <rect class="cls-2" x="149.84" y="48.97" width="3.97" height="3.99"/>
                <rect class="cls-2" x="149.84" y="43.65" width="3.97" height="3.99"/>
                <rect class="cls-2" x="149.84" y="38.33" width="3.97" height="3.99"/>
                <rect class="cls-2" x="149.84" y="33.01" width="3.97" height="3.99"/>
                <rect class="cls-2" x="149.84" y="27.68" width="3.97" height="3.99"/>
                <rect class="cls-2" x="149.84" y="22.36" width="3.97" height="3.99"/>
                <rect class="cls-2" x="149.84" y="17.04" width="3.97" height="3.99"/>
                <rect class="cls-2" x="155.13" y="27.68" width="3.97" height="3.99"/>
                <rect class="cls-2" x="160.42" y="33.01" width="3.97" height="3.99"/>
                <rect class="cls-2" x="165.71" y="38.33" width="3.97" height="3.99"/>
                <rect class="cls-2" x="171" y="48.97" width="3.97" height="3.99"/>
                <rect class="cls-2" x="171" y="43.65" width="3.97" height="3.99"/>
                <rect class="cls-2" x="171" y="38.33" width="3.97" height="3.99"/>
                <rect class="cls-2" x="171" y="33.01" width="3.97" height="3.99"/>
                <rect class="cls-2" x="171" y="27.68" width="3.97" height="3.99"/>
                <rect class="cls-2" x="171" y="22.36" width="3.97" height="3.99"/>
                <rect class="cls-2" x="171" y="17.04" width="3.97" height="3.99"/>
                <rect class="cls-2" x="181.57" y="48.97" width="3.97" height="3.99"/>
                <rect class="cls-2" x="181.57" y="43.65" width="3.97" height="3.99"/>
                <rect class="cls-2" x="181.57" y="38.33" width="3.97" height="3.99"/>
                <rect class="cls-2" x="181.57" y="33.01" width="3.97" height="3.99"/>
                <rect class="cls-2" x="181.57" y="27.68" width="3.97" height="3.99"/>
                <rect class="cls-2" x="181.57" y="22.36" width="3.97" height="3.99"/>
                <rect class="cls-2" x="181.57" y="17.04" width="3.97" height="3.99"/>
                <rect class="cls-2" x="186.86" y="48.97" width="3.97" height="3.99"/>
                <rect class="cls-2" x="186.86" y="17.04" width="3.97" height="3.99"/>
                <rect class="cls-2" x="192.15" y="48.97" width="3.97" height="3.99"/>
                <rect class="cls-2" x="192.15" y="17.04" width="3.97" height="3.99"/>
                <rect class="cls-2" x="197.44" y="48.97" width="3.97" height="3.99"/>
                <rect class="cls-2" x="197.44" y="17.04" width="3.97" height="3.99"/>
                <rect class="cls-2" x="202.73" y="46.31" width="3.97" height="3.99"/>
                <rect class="cls-2" x="202.73" y="40.99" width="3.97" height="3.99"/>
                <rect class="cls-2" x="202.73" y="35.67" width="3.97" height="3.99"/>
                <rect class="cls-2" x="202.73" y="30.34" width="3.97" height="3.99"/>
                <rect class="cls-2" x="202.73" y="25.02" width="3.97" height="3.99"/>
                <rect class="cls-2" x="202.73" y="19.7" width="3.97" height="3.99"/>
                <rect class="cls-2" x="245.04" y="48.97" width="3.96" height="3.99"/>
                <rect class="cls-2" x="245.04" y="43.65" width="3.96" height="3.99"/>
                <rect class="cls-2" x="245.04" y="38.33" width="3.96" height="3.99"/>
                <rect class="cls-2" x="245.04" y="33.01" width="3.96" height="3.99"/>
                <rect class="cls-2" x="245.04" y="27.68" width="3.96" height="3.99"/>
                <rect class="cls-2" x="245.04" y="22.36" width="3.96" height="3.99"/>
                <rect class="cls-2" x="245.04" y="17.04" width="3.96" height="3.99"/>
                <rect class="cls-2" x="250.33" y="33.01" width="3.96" height="3.99"/>
                <rect class="cls-2" x="255.62" y="33.01" width="3.97" height="3.99"/>
                <rect class="cls-2" x="260.91" y="33.01" width="3.96" height="3.99"/>
                <rect class="cls-2" x="266.19" y="48.97" width="3.97" height="3.99"/>
                <rect class="cls-2" x="266.19" y="43.65" width="3.97" height="3.99"/>
                <rect class="cls-2" x="266.19" y="38.33" width="3.97" height="3.99"/>
                <rect class="cls-2" x="266.19" y="33.01" width="3.97" height="3.99"/>
                <rect class="cls-2" x="266.19" y="27.68" width="3.97" height="3.99"/>
                <rect class="cls-2" x="266.19" y="22.36" width="3.97" height="3.99"/>
                <rect class="cls-2" x="266.19" y="17.04" width="3.97" height="3.99"/>
                <rect class="cls-2" x="276.77" y="48.97" width="3.97" height="3.99"/>
                <rect class="cls-2" x="276.77" y="43.65" width="3.97" height="3.99"/>
                <rect class="cls-2" x="276.77" y="38.33" width="3.97" height="3.99"/>
                <rect class="cls-2" x="276.77" y="33.01" width="3.97" height="3.99"/>
                <rect class="cls-2" x="276.77" y="27.68" width="3.97" height="3.99"/>
                <rect class="cls-2" x="276.77" y="22.36" width="3.97" height="3.99"/>
                <rect class="cls-2" x="282.07" y="35.67" width="3.96" height="3.99"/>
                <rect class="cls-2" x="282.07" y="18.37" width="3.96" height="3.99"/>
                <rect class="cls-2" x="287.35" y="35.67" width="3.97" height="3.99"/>
                <rect class="cls-2" x="287.35" y="17.04" width="3.97" height="3.99"/>
                <rect class="cls-2" x="292.64" y="35.67" width="3.97" height="3.99"/>
                <rect class="cls-2" x="292.64" y="18.37" width="3.97" height="3.99"/>
                <rect class="cls-2" x="297.93" y="48.97" width="3.97" height="3.99"/>
                <rect class="cls-2" x="297.93" y="43.65" width="3.97" height="3.99"/>
                <rect class="cls-2" x="297.93" y="38.33" width="3.97" height="3.99"/>
                <rect class="cls-2" x="297.93" y="33.01" width="3.97" height="3.99"/>
                <rect class="cls-2" x="297.93" y="27.68" width="3.97" height="3.99"/>
                <rect class="cls-2" x="297.93" y="22.36" width="3.97" height="3.99"/>
                <rect class="cls-2" x="308.51" y="46.31" width="3.97" height="3.99"/>
                <rect class="cls-2" x="308.51" y="40.99" width="3.97" height="3.99"/>
                <rect class="cls-2" x="308.51" y="35.67" width="3.97" height="3.99"/>
                <rect class="cls-2" x="308.51" y="30.34" width="3.97" height="3.99"/>
                <rect class="cls-2" x="308.51" y="25.02" width="3.97" height="3.99"/>
                <rect class="cls-2" x="308.51" y="19.7" width="3.97" height="3.99"/>
                <rect class="cls-2" x="313.8" y="48.97" width="3.97" height="3.99"/>
                <rect class="cls-2" x="313.8" y="17.04" width="3.97" height="3.99"/>
                <rect class="cls-2" x="319.09" y="48.97" width="3.96" height="3.99"/>
                <rect class="cls-2" x="319.09" y="17.04" width="3.96" height="3.99"/>
                <rect class="cls-2" x="324.37" y="48.97" width="3.97" height="3.99"/>
                <rect class="cls-2" x="324.37" y="17.04" width="3.97" height="3.99"/>
                <rect class="cls-2" x="329.66" y="46.31" width="3.97" height="3.99"/>
                <rect class="cls-2" x="329.66" y="19.7" width="3.97" height="3.99"/>
                <rect class="cls-2" x="340.24" y="48.97" width="3.96" height="3.99"/>
                <rect class="cls-2" x="340.24" y="43.65" width="3.96" height="3.99"/>
                <rect class="cls-2" x="340.24" y="38.33" width="3.96" height="3.99"/>
                <rect class="cls-2" x="340.24" y="33.01" width="3.96" height="3.99"/>
                <rect class="cls-2" x="340.24" y="27.68" width="3.96" height="3.99"/>
                <rect class="cls-2" x="340.24" y="22.36" width="3.96" height="3.99"/>
                <rect class="cls-2" x="340.24" y="17.04" width="3.96" height="3.99"/>
                <rect class="cls-2" x="345.53" y="33.01" width="3.97" height="3.99"/>
                <rect class="cls-2" x="350.82" y="38.33" width="3.97" height="3.99"/>
                <rect class="cls-2" x="350.82" y="27.68" width="3.97" height="3.99"/>
                <rect class="cls-2" x="356.11" y="43.65" width="3.96" height="3.99"/>
                <rect class="cls-2" x="356.11" y="22.36" width="3.96" height="3.99"/>
                <rect class="cls-2" x="361.4" y="48.97" width="3.96" height="3.99"/>
                <rect class="cls-2" x="361.4" y="17.04" width="3.96" height="3.99"/>
                <rect class="cls-2" x="371.98" y="17.04" width="3.97" height="3.99"/>
                <rect class="cls-2" x="377.26" y="17.04" width="3.97" height="3.99"/>
                <rect class="cls-2" x="382.55" y="48.97" width="3.97" height="3.99"/>
                <rect class="cls-2" x="382.55" y="43.65" width="3.97" height="3.99"/>
                <rect class="cls-2" x="382.55" y="38.33" width="3.97" height="3.99"/>
                <rect class="cls-2" x="382.55" y="33.01" width="3.97" height="3.99"/>
                <rect class="cls-2" x="382.55" y="27.68" width="3.97" height="3.99"/>
                <rect class="cls-2" x="382.55" y="22.36" width="3.97" height="3.99"/>
                <rect class="cls-2" x="382.55" y="17.04" width="3.97" height="3.99"/>
                <rect class="cls-2" x="387.84" y="17.04" width="3.97" height="3.99"/>
                <rect class="cls-2" x="393.13" y="17.04" width="3.96" height="3.99"/>
            </g>
        </g>
    </g>
</svg>
