<svg xmlns="http://www.w3.org/2000/svg" xmlns:xlink="http://www.w3.org/1999/xlink" x="0px" y="0px"
     viewBox="0 0 329 61.2" style="enable-background:new 0 0 329 61.2;" xml:space="preserve">
     <style type="text/css">
	 .changecolor{fill-rule:evenodd;clip-rule:evenodd;fill:var(--event-single-color);}
	 .st2{fill:#FFFFFF;}
     </style>
     <title>So ist Jugent hackt</title>
     <g transform="translate(-568.000000, -3971.000000)">
	 <g transform="translate(568.000000, 3643.000000)">
	     <g transform="translate(0.000000, 328.000000)">
		 <polygon class="changecolor" points="0,61 329,61.1 329,26 24.1,26 0,0 0,25.3"/>
		 <path fill="#FFFFFF" d="M16,35.8h2v2h-2V35.8z M16,38.3h2v2h-2V38.3z M16,41h2v2h-2V41z M16,48.8h2v2h-2V48.8z M18.6,34.5h1.9v2 h-1.9V34.5z M18.6,42.2h1.9v2h-1.9V42.2z M18.6,50h1.9v2h-1.9V50z M21.2,34.5h1.9v2h-1.9V34.5z M21.2,42.2h1.9v2h-1.9V42.2z M21.2,50h1.9v2h-1.9V50z M23.8,34.5h2v2h-2V34.5z M23.8,42.2h2v2h-2V42.2z M23.8,50h2v2h-2V50z M26.4,35.8h2v2h-2V35.8z M26.4,43.5h2v2h-2V43.5z M26.4,46.2h2v1.9h-2V46.2z M26.4,48.8h2v2h-2V48.8z"/>
		 <path fill="#FFFFFF" d="M31.6,35.8h2v2h-2V35.8z M31.6,38.3h2v2h-2V38.3z M31.6,41h2v2h-2V41z M31.6,43.5h2v2h-2V43.5z M31.6,46.2 h2v1.9h-2V46.2z M31.6,48.8h2v2h-2V48.8z M34.2,34.5h1.9v2h-1.9V34.5z M34.2,50h1.9v2h-1.9V50z M36.8,34.5h1.9v2h-1.9V34.5z M36.8,50h1.9v2h-1.9V50z M39.4,34.5h2v2h-2V34.5z M39.4,50h2v2h-2V50z M42,35.8h2v2h-2V35.8z M42,38.3h2v2h-2V38.3z M42,41h2 v2h-2V41z M42,43.5h2v2h-2V43.5z M42,46.2h2v1.9h-2V46.2z M42,48.8h2v2h-2V48.8z"/>
		 <path fill="#FFFFFF"  d="M62.8,34.5h2v2h-2V34.5z M62.8,50h2v2h-2V50z M65.4,34.5h1.9v2h-1.9V34.5z M65.4,50h1.9v2h-1.9V50z M68,34.5h1.9v2H68V34.5z M68,37h1.9v2H68V37z M68,39.7h1.9v1.9H68V39.7z M68,42.2h1.9v2H68V42.2z M68,44.8h1.9v2H68V44.8z M68,47.5h1.9v2H68V47.5z M68,50h1.9v2H68V50z M70.6,34.5h2v2h-2V34.5z M70.6,50h2v2h-2V50z M73.2,34.5h2v2h-2V34.5z M73.2,50 h2v2h-2V50z"/>
		 <path fill="#FFFFFF" d="M78.4,35.8h2v2h-2V35.8z M78.4,38.3h2v2h-2V38.3z M78.4,41h2v2h-2V41z M78.4,48.8h2v2h-2V48.8z M81,34.5 h1.9v2H81V34.5z M81,42.2h1.9v2H81V42.2z M81,50h1.9v2H81V50z M83.6,34.5h1.9v2h-1.9V34.5z M83.6,42.2h1.9v2h-1.9V42.2z M83.6,50h1.9v2h-1.9V50z M86.2,34.5h2v2h-2V34.5z M86.2,42.2h2v2h-2V42.2z M86.2,50h2v2h-2V50z M88.8,35.8h2v2h-2V35.8z M88.8,43.5h2v2h-2V43.5z M88.8,46.2h2v1.9h-2V46.2z M88.8,48.8h2v2h-2V48.8z"/>
		 <path fill="#FFFFFF" d="M94,34.5h2v2h-2V34.5z M96.6,34.5h1.9v2h-1.9V34.5z M99.2,34.5h1.9v2h-1.9V34.5z M99.2,37h1.9v2h-1.9V37z M99.2,39.7h1.9v1.9h-1.9V39.7z M99.2,42.2h1.9v2h-1.9V42.2z M99.2,44.8h1.9v2h-1.9V44.8z M99.2,47.5h1.9v2h-1.9V47.5z M99.2,50h1.9v2h-1.9V50z M101.8,34.5h2v2h-2V34.5z M104.4,34.5h2v2h-2V34.5z"/>
		 <path fill="#FFFFFF" d="M125.2,34.5h2v2h-2V34.5z M125.2,37h2v2h-2V37z M125.2,46.2h2v1.9h-2V46.2z M125.2,48.8h2v2h-2V48.8z M127.8,34.5h1.9v2h-1.9V34.5z M127.8,50h1.9v2h-1.9V50z M130.4,34.5h1.9v2h-1.9V34.5z M130.4,50h1.9v2h-1.9V50z M133,34.5h2v2 h-2V34.5z M133,50h2v2h-2V50z M135.6,35.8h2v2h-2V35.8z M135.6,38.3h2v2h-2V38.3z M135.6,41h2v2h-2V41z M135.6,43.5h2v2h-2 V43.5z M135.6,46.2h2v1.9h-2V46.2z M135.6,48.8h2v2h-2V48.8z"/>
		 <path fill="#FFFFFF" d="M140.8,34.5h2v2h-2V34.5z M140.8,37h2v2h-2V37z M140.8,39.7h2v1.9h-2V39.7z M140.8,42.2h2v2h-2V42.2z M140.8,44.8h2v2h-2V44.8z M140.8,47.5h2v2h-2V47.5z M143.4,50h1.9v2h-1.9V50z M146,50h1.9v2H146V50z M148.6,50h2v2h-2V50z M151.2,34.5h2v2h-2V34.5z M151.2,37h2v2h-2V37z M151.2,39.7h2v1.9h-2V39.7z M151.2,42.2h2v2h-2V42.2z M151.2,44.8h2v2h-2V44.8 z M151.2,47.5h2v2h-2V47.5z"/>
		 <path fill="#FFFFFF" d="M156.4,35.8h2v2h-2V35.8z M156.4,38.3h2v2h-2V38.3z M156.4,41h2v2h-2V41z M156.4,43.5h2v2h-2V43.5z M156.4,46.2h2v1.9h-2V46.2z M156.4,48.8h2v2h-2V48.8z M159,34.5h1.9v2H159V34.5z M159,50h1.9v2H159V50z M161.6,34.5h1.9v2 h-1.9V34.5z M161.6,43.5h1.9v2h-1.9V43.5z M161.6,50h1.9v2h-1.9V50z M164.2,34.5h2v2h-2V34.5z M164.2,43.5h2v2h-2V43.5z M164.2,50h2v2h-2V50z M166.8,35.8h2v2h-2V35.8z M166.8,43.5h2v2h-2V43.5z M166.8,46.2h2v1.9h-2V46.2z M166.8,48.8h2v2h-2V48.8 z"/>
		 <path fill="#FFFFFF" d="M172,35.8h1.9v2H172V35.8z M172,38.3h1.9v2H172V38.3z M172,41h1.9v2H172V41z M172,43.5h1.9v2H172V43.5z M172,46.2h1.9v1.9H172V46.2z M172,48.8h1.9v2H172V48.8z M174.6,34.5h1.9v2h-1.9V34.5z M174.6,42.2h1.9v2h-1.9V42.2z M174.6,50 h1.9v2h-1.9V50z M177.2,34.5h2v2h-2V34.5z M177.2,42.2h2v2h-2V42.2z M177.2,50h2v2h-2V50z M179.8,34.5h2v2h-2V34.5z M179.8,42.2h2v2h-2V42.2z M179.8,50h2v2h-2V50z M182.4,34.5h2v2h-2V34.5z M182.4,50h2v2h-2V50z"/>
		 <path fill="#FFFFFF" d="M187.6,34.5h2v2h-2V34.5z M187.6,37h2v2h-2V37z M187.6,39.7h2v1.9h-2V39.7z M187.6,42.2h2v2h-2V42.2z M187.6,44.8h2v2h-2V44.8z M187.6,47.5h2v2h-2V47.5z M187.6,50h2v2h-2V50z M190.2,39.7h2v1.9h-2V39.7z M192.8,42.2h2v2h-2V42.2 z M195.4,44.8h2v2h-2V44.8z M198,34.5h1.9v2H198V34.5z M198,37h1.9v2H198V37z M198,39.7h1.9v1.9H198V39.7z M198,42.2h1.9v2H198 V42.2z M198,44.8h1.9v2H198V44.8z M198,47.5h1.9v2H198V47.5z M198,50h1.9v2H198V50z"/>
		 <path fill="#FFFFFF" d="M203.2,34.5h2v2h-2V34.5z M203.2,37h2v2h-2V37z M203.2,39.7h2v1.9h-2V39.7z M203.2,42.2h2v2h-2V42.2z M203.2,44.8h2v2h-2V44.8z M203.2,47.5h2v2h-2V47.5z M203.2,50h2v2h-2V50z M205.8,34.5h2v2h-2V34.5z M205.8,50h2v2h-2V50z M208.4,34.5h1.9v2h-1.9V34.5z M208.4,50h1.9v2h-1.9V50z M211,34.5h1.9v2H211V34.5z M211,50h1.9v2H211V50z M213.6,35.8h2v2h-2 V35.8z M213.6,38.3h2v2h-2V38.3z M213.6,41h2v2h-2V41z M213.6,43.5h2v2h-2V43.5z M213.6,46.2h2v1.9h-2V46.2z M213.6,48.8h2v2 h-2V48.8z"/>
		 <path fill="#FFFFFF" d="M234.4,34.5h2v2h-2V34.5z M234.4,37h2v2h-2V37z M234.4,39.7h2v1.9h-2V39.7z M234.4,42.2h2v2h-2V42.2z M234.4,44.8h2v2h-2V44.8z M234.4,47.5h2v2h-2V47.5z M234.4,50h2v2h-2V50z M237,42.2h1.9v2H237V42.2z M239.6,42.2h1.9v2h-1.9 V42.2z M242.2,42.2h2v2h-2V42.2z M244.8,34.5h2v2h-2V34.5z M244.8,37h2v2h-2V37z M244.8,39.7h2v1.9h-2V39.7z M244.8,42.2h2v2 h-2V42.2z M244.8,44.8h2v2h-2V44.8z M244.8,47.5h2v2h-2V47.5z M244.8,50h2v2h-2V50z"/>
		 <path fill="#FFFFFF" d="M250,37h1.9v2H250V37z M250,39.7h1.9v1.9H250V39.7z M250,42.2h1.9v2H250V42.2z M250,44.8h1.9v2H250V44.8z M250,47.5h1.9v2H250V47.5z M250,50h1.9v2H250V50z M252.6,35.1h1.9v2h-1.9V35.1z M252.6,43.5h1.9v2h-1.9V43.5z M255.2,34.5h2v2 h-2V34.5z M255.2,43.5h2v2h-2V43.5z M257.8,35.1h2v2h-2V35.1z M257.8,43.5h2v2h-2V43.5z M260.4,37h2v2h-2V37z M260.4,39.7h2 v1.9h-2V39.7z M260.4,42.2h2v2h-2V42.2z M260.4,44.8h2v2h-2V44.8z M260.4,47.5h2v2h-2V47.5z M260.4,50h2v2h-2V50z"/>
		 <path fill="#FFFFFF" d="M265.6,35.8h2v2h-2V35.8z M265.6,38.3h2v2h-2V38.3z M265.6,41h2v2h-2V41z M265.6,43.5h2v2h-2V43.5z M265.6,46.2h2v1.9h-2V46.2z M265.6,48.8h2v2h-2V48.8z M268.2,34.5h2v2h-2V34.5z M268.2,50h2v2h-2V50z M270.8,34.5h2v2h-2V34.5 z M270.8,50h2v2h-2V50z M273.4,34.5h2v2h-2V34.5z M273.4,50h2v2h-2V50z M276,35.8h1.9v2H276V35.8z M276,48.8h1.9v2H276V48.8z" />
		 <path fill="#FFFFFF" d="M281.2,34.5h2v2h-2V34.5z M281.2,37h2v2h-2V37z M281.2,39.7h2v1.9h-2V39.7z M281.2,42.2h2v2h-2V42.2z M281.2,44.8h2v2h-2V44.8z M281.2,47.5h2v2h-2V47.5z M281.2,50h2v2h-2V50z M283.8,42.2h2v2h-2V42.2z M286.4,39.7h2v1.9h-2V39.7 z M286.4,44.8h2v2h-2V44.8z M289,37h2v2h-2V37z M289,47.5h2v2h-2V47.5z M291.6,34.5h1.9v2h-1.9V34.5z M291.6,50h1.9v2h-1.9V50z "/>
		 <path fill="#FFFFFF" d="M296.8,34.5h2v2h-2V34.5z M299.4,34.5h2v2h-2V34.5z M302,34.5h1.9v2H302V34.5z M302,37h1.9v2H302V37z M302,39.7h1.9v1.9H302V39.7z M302,42.2h1.9v2H302V42.2z M302,44.8h1.9v2H302V44.8z M302,47.5h1.9v2H302V47.5z M302,50h1.9v2 H302V50z M304.6,34.5h1.9v2h-1.9V34.5z M307.2,34.5h2v2h-2V34.5z"/>
	     </g>
	 </g>
     </g>
 </svg>
